<svg width="34" height="32" viewBox="0 0 34 32" fill="none" xmlns="http://www.w3.org/2000/svg">
<path d="M25.3086 6.625C25.3086 3.00681 22.3643 0 18.7461 0C17.3362 0 16.0187 0.603312 14.9961 1.68912C13.9734 0.603312 12.656 0 11.2461 0C7.62791 0 4.68359 3.00681 4.68359 6.625C4.68359 10.2642 7.35416 12.1429 10.4468 14.3191C11.7222 15.2162 13.0415 16.1446 14.3818 17.3074L14.9952 17.8402L15.6095 17.3083C17.1247 15.9972 18.5657 14.9709 19.8365 14.0654C22.8934 11.8893 25.3086 10.1699 25.3086 6.625ZM17.8086 9.4375H15.9336V11.3125H14.0586V9.4375H12.1836V7.5625H14.0586V5.6875H15.9336V7.5625H17.8086V9.4375Z" fill="white"/>
<path d="M29.8712 8.57422C27.9586 8.57422 27.4649 17.4617 27.4273 17.6493C27.2369 18.9515 26.3195 20.8793 24.7703 22.04L20.7096 24.9883L19.5853 23.4869L23.646 20.5395C25.2546 19.3335 25.9877 17.2742 23.9773 17.2742C22.1768 17.2742 18.8113 19.3588 17.8135 20.1857C16.6221 21.1732 15.9336 22.6405 15.9336 24.188V31.9993H21.5586C21.5586 31.0992 22.0461 30.118 22.796 29.1805C23.5836 28.1492 24.7086 27.0992 25.871 26.0305C28.0835 23.9492 30.3773 21.8117 30.6773 19.6368C30.8555 18.1758 31.0034 15.67 30.996 13.4368C30.9879 10.9358 30.776 8.65503 29.8712 8.57422Z" fill="white"/>
<path d="M12.9594 20.0118C10.3156 18.193 8.3095 17.2742 7.01575 17.2742C5.00537 17.2742 5.7385 19.3335 7.34706 20.5395L11.4077 23.4869L10.2835 24.9883L6.22281 22.04C4.67343 20.8793 3.75606 18.9515 3.56562 17.6493C3.52806 17.4617 3.03437 8.57422 1.12181 8.57422C0.0718091 8.66797 -0.0406911 11.7242 0.0156214 14.6492C0.0531839 16.7867 0.221871 18.868 0.315559 19.6368C0.615621 21.8117 2.90937 23.9493 5.12187 26.0305C6.28437 27.0992 7.40931 28.1492 8.19687 29.1805C8.94681 30.118 9.43431 31.0992 9.43431 31.9993H15.0593V24.2254C15.0594 22.5691 14.2819 21.0089 12.9594 20.0118Z" fill="white"/>
</svg>
