<svg width="32" height="30" viewBox="0 0 32 30" fill="none" xmlns="http://www.w3.org/2000/svg">
<path d="M4.22462 24.5993H11.2646L10.6246 27.1593H7.80862C7.04062 27.1593 6.52862 27.6713 6.52862 28.4393C6.52862 29.0793 7.04062 29.7193 7.80862 29.7193H24.1926C24.9606 29.7193 25.4726 29.0793 25.4726 28.4393C25.4726 27.6713 24.9606 27.1593 24.1926 27.1593H21.5046L20.8646 24.5993H27.9046C29.8246 24.5993 31.4886 22.9353 31.4886 21.0153C31.4886 14.8713 31.4886 10.2633 31.4886 3.99132C31.4886 2.07132 29.8246 0.407319 27.9046 0.407319H4.22462C2.30462 0.279319 0.640625 1.94332 0.640625 3.86332V20.8873C0.640625 22.9353 2.17662 24.5993 4.22462 24.5993ZM3.20062 3.86332C3.20062 3.35132 3.71262 2.83932 4.22462 2.83932H27.7766C28.2886 2.83932 28.8006 3.35132 28.8006 3.86332V16.9193H3.20062V3.86332Z" fill="white"/>
<path d="M23.6791 12.3115C23.0391 12.3115 22.6551 11.9275 22.3991 11.5435C22.1431 11.0315 22.2711 10.5195 22.6551 10.1355L22.7831 10.0075C23.2951 9.49548 23.2951 8.72748 22.7831 8.21548L21.8871 7.31948C21.3751 6.80748 20.6071 6.80748 20.0951 7.31948L19.9671 7.44748C19.7111 7.95948 19.1991 7.95948 18.6871 7.83148C18.6871 7.83148 18.6871 7.83148 18.5591 7.83148C18.0471 7.70348 17.7911 7.19148 17.7911 6.67948V6.55148C17.7911 5.91148 17.2791 5.27148 16.5111 5.27148H15.3591C14.7191 5.27148 14.0791 5.78348 14.0791 6.55148V6.67948C14.0791 7.19148 13.8231 7.70348 13.3111 7.83148C13.3111 7.83148 13.3111 7.83148 13.1831 7.83148C12.7991 7.95948 12.2871 7.95948 11.9031 7.57548V7.44748C11.3911 6.93548 10.6231 6.93548 10.1111 7.44748L9.21506 8.34348C8.70306 8.85548 8.70306 9.62348 9.21506 10.1355L9.34306 10.2635C9.72706 10.5195 9.85506 11.0315 9.59906 11.5435C9.34306 12.0555 8.95906 12.3115 8.44706 12.3115H8.31906C7.67906 12.3115 7.03906 12.8235 7.03906 13.5915V14.3595H12.1591V14.2315C12.1591 12.0555 13.8231 10.3915 15.9991 10.3915C18.1751 10.3915 19.8391 12.0555 19.8391 14.2315V14.3595H24.9591V13.5915C24.9591 12.9515 24.3191 12.3115 23.6791 12.3115Z" fill="white"/>
</svg>
