<svg width="32" height="32" viewBox="0 0 32 32" fill="none" xmlns="http://www.w3.org/2000/svg">
<path d="M0.617299 11.7917L15.2837 21.1248C15.5024 21.2635 15.7517 21.3328 15.9997 21.3328C16.249 21.3328 16.497 21.2635 16.7156 21.1248L31.382 11.7917C31.766 11.5464 31.9993 11.1224 31.9993 10.6664C31.9993 10.2105 31.766 9.78646 31.382 9.54247L16.7156 0.20798C16.2783 -0.0693266 15.7209 -0.0693266 15.2836 0.20798L0.617299 9.54247C0.233307 9.78646 1.25501e-08 10.2105 1.25501e-08 10.6664C-6.24861e-05 11.1224 0.233307 11.5464 0.617299 11.7917Z" fill="white"/>
<path d="M31.382 20.208L27.2527 17.5801L18.1476 23.3746C17.5009 23.7839 16.7596 23.9999 15.9997 23.9999C15.2397 23.9999 14.4984 23.7839 13.8557 23.376L4.74652 17.5801L0.617299 20.208C0.233307 20.4533 0 20.8773 0 21.3333C0 21.7893 0.233307 22.2133 0.617299 22.4573L15.2837 31.7918C15.5024 31.9305 15.7503 31.9998 15.9997 31.9998C16.2477 31.9998 16.497 31.9305 16.7156 31.7918L31.382 22.4573C31.7659 22.2133 31.9993 21.7893 31.9993 21.3333C31.9993 20.8773 31.7659 20.4533 31.382 20.208Z" fill="white"/>
</svg>
