<svg width="32" height="24" viewBox="0 0 32 24" fill="none" xmlns="http://www.w3.org/2000/svg">
<path d="M25.4613 0.154297H4.44625C2.12875 0.154297 0.25 2.0443 0.25 4.3618V15.893C0.25 18.2105 2.12875 20.0893 4.44625 20.0893H19.5764V17.9912V17.6019V13.9367L19.6045 13.9547C19.8891 11.8734 22.6431 10.4492 26.5041 10.4492C27.6752 10.4492 28.7283 10.5932 29.6586 10.8339V4.3618C29.6575 2.0443 27.7787 0.154297 25.4613 0.154297ZM5.85138 16.9022H4.45075C3.89163 16.9022 3.43825 16.4488 3.43825 15.8897C3.43825 15.3305 3.89163 14.8772 4.45075 14.8772H5.85138C6.4105 14.8772 6.86388 15.3305 6.86388 15.8897C6.86388 16.4488 6.4105 16.9022 5.85138 16.9022ZM18.1814 11.2963C18.1814 13.0783 16.7369 14.5239 14.9537 14.5239C13.1718 14.5239 11.7261 13.0794 11.7261 11.2963V8.95517C11.7261 7.17317 13.1706 5.72755 14.9537 5.72755C16.7358 5.72755 18.1814 7.17205 18.1814 8.95517V11.2963ZM25.4568 5.3743H24.0561C23.497 5.3743 23.0436 4.92092 23.0436 4.3618C23.0436 3.80267 23.497 3.3493 24.0561 3.3493H25.4568C26.0159 3.3493 26.4692 3.80267 26.4692 4.3618C26.4692 4.92092 26.0159 5.3743 25.4568 5.3743Z" fill="white"/>
<path d="M31.7506 14.3136C31.7506 15.0842 30.7753 15.7671 29.3015 16.1485C28.496 16.3667 27.5341 16.4893 26.5048 16.4893C25.481 16.4893 24.5191 16.3667 23.7148 16.1485C22.241 15.766 21.2656 15.091 21.2656 14.3136C21.2656 13.1132 23.6124 12.1367 26.5059 12.1367C29.4039 12.1367 31.7506 13.1121 31.7506 14.3136Z" fill="white"/>
<path d="M29.7228 17.7836C28.7745 18.0401 27.6551 18.1785 26.502 18.1785C25.3533 18.1785 24.2351 18.0401 23.2698 17.7791C22.4216 17.5597 21.768 17.2751 21.2617 16.9624V17.9917C21.2617 18.7691 22.2371 19.4452 23.7108 19.8345C24.5163 20.046 25.4782 20.1686 26.5008 20.1686C27.5313 20.1686 28.4932 20.046 29.2987 19.8345C30.7736 19.4441 31.749 18.7624 31.749 17.9917V16.959C31.2393 17.274 30.5801 17.5609 29.7228 17.7836Z" fill="white"/>
<path d="M29.7296 21.4647C28.7598 21.7201 27.6438 21.8551 26.502 21.8551C25.3635 21.8551 24.2508 21.7201 23.2811 21.4647C22.4272 21.2397 21.7702 20.9517 21.2617 20.6367V21.6683C21.2617 22.8687 23.6085 23.8452 26.502 23.8452C29.4011 23.8452 31.749 22.8698 31.749 21.6683V20.6367C31.2405 20.9517 30.5835 21.2397 29.7296 21.4647Z" fill="white"/>
</svg>
