<svg width="134" height="134" viewBox="0 0 134 134" fill="none" xmlns="http://www.w3.org/2000/svg">
<circle cx="67" cy="67" r="66" fill="white" stroke="#0CA9CB" stroke-width="2"/>
<path d="M65.2363 85.3266L48.9349 69.0254L43.0195 74.9407L61.2898 93.2109L67.4798 87.0209C66.6675 86.5682 65.912 86.0023 65.2363 85.3266Z" fill="#FFB09E"/>
<path d="M52.4701 78.3569L64.3082 90.195L67.3602 87.1431C66.558 86.6922 65.8023 86.1284 65.1197 85.4457L48.8185 69.1445L43.1406 74.8224L47.6647 79.3464L48.6544 78.3568C49.708 77.3033 51.4164 77.3033 52.4701 78.3569Z" fill="#F89580"/>
<path d="M26.7388 88.6849L47.5452 109.491C48.223 110.169 49.322 110.169 49.9998 109.491L62.6769 96.8142C63.3546 96.1365 63.3546 95.0374 62.6769 94.3597L41.8704 73.5532C41.1927 72.8755 40.0936 72.8755 39.4159 73.5532L26.7388 86.2303C26.061 86.9081 26.061 88.0071 26.7388 88.6849Z" fill="#FEB137"/>
<path d="M29.8808 91.8267L36.7427 84.9649C38.8969 82.8107 42.3894 82.8107 44.5436 84.9649L59.5349 99.9561L62.6769 96.8141C63.3546 96.1363 63.3546 95.0373 62.6769 94.3595L41.8704 73.5532C41.1927 72.8755 40.0936 72.8755 39.4159 73.5532L26.7388 86.2303C26.061 86.9081 26.061 88.0071 26.7388 88.6849L29.8808 91.8267Z" fill="#FFD15B"/>
<path d="M61.5152 57.1914L61.233 57.4729L61.3461 57.5917C63.1062 59.4425 64.0756 61.8666 64.0756 64.4174C64.0756 64.5694 64.072 64.7208 64.0653 64.8713C63.9665 67.0644 63.0226 69.0539 61.4074 70.4729C59.9009 71.7963 57.8728 72.5553 55.8434 72.5553C53.6638 72.5553 51.6024 71.6942 50.0387 70.1305L49.9492 70.2784L65.1165 85.4454C69.1371 89.4661 75.6558 89.4661 79.6765 85.4454L84.7228 80.3991L61.5152 57.1914Z" fill="#FFB09E"/>
<path d="M102.152 79.2695H101.914L92.7539 88.4297V88.6672L99.8469 91.4347L100.157 91.3623L104.83 86.6894L104.919 86.3625L102.152 79.2695Z" fill="#FFCEBF"/>
<path d="M99.8477 91.4358L107.063 94.2509C107.484 94.4154 107.9 93.9998 107.735 93.5785L104.92 86.3633L99.8477 91.4358Z" fill="#5B5555"/>
<path d="M54.1855 32.0979L54.4641 31.5817L47.9249 25.0427C46.5347 23.6524 44.2807 23.6524 42.8904 25.0427L38.5271 29.4059C37.1368 30.7961 37.1368 33.0501 38.5271 34.4404L45.0663 40.9796L45.593 40.6903L54.1855 32.0979Z" fill="#FD6930"/>
<path d="M54.2945 47.2205C55.9366 45.5784 58.12 44.6741 60.4425 44.6741C61.1472 44.6741 61.8506 44.7594 62.5331 44.9277L62.6266 44.9509L62.7412 44.8318L65.2266 42.3463L58.3979 35.5176L57.8945 35.7835L49.262 44.4161L49 44.9154L52.7998 48.7152L54.2945 47.2205Z" fill="#FFD15B"/>
<path d="M93.8812 71.0019L91.3958 73.4873C90.4627 74.4202 89.2224 74.934 87.9029 74.934C86.5836 74.934 85.3432 74.4202 84.4101 73.4873C83.477 72.5542 82.9634 71.314 82.9634 69.9946C82.9634 68.6752 83.4772 67.4347 84.4101 66.5018L85.9596 64.9525L85.7221 64.715C84.7891 65.6479 83.5488 66.1617 82.2294 66.1617C80.91 66.1617 79.6695 65.6479 78.7366 64.715C78.5971 64.5754 78.462 64.4188 78.312 64.222L78.2191 64.1004L78.0896 64.1813C77.1267 64.7827 76.0142 65.1006 74.8725 65.1006C73.2503 65.1006 71.7251 64.4689 70.5782 63.322L62.9808 55.7246L61.3945 57.3107L92.7531 88.6693L102.151 79.2715L93.8812 71.0019Z" fill="#FFD15B"/>
<path d="M74.8723 65.1006C73.2501 65.1006 71.7249 64.4689 70.5781 63.322L62.9807 55.7246L61.3945 57.3107L92.7531 88.6693L95.6941 85.7284L75.0596 65.0941C74.9971 65.0959 74.935 65.1006 74.8723 65.1006Z" fill="#FFC344"/>
<path d="M54.2945 47.2205C54.8409 46.6741 55.4483 46.2113 56.0999 45.8346C55.7461 44.9307 55.9332 43.8641 56.6634 43.1338L61.3386 38.4585L58.3977 35.5176L49 44.9154L52.7998 48.7152L54.2945 47.2205Z" fill="#FFC344"/>
<path d="M44.361 34.4404C42.9707 33.0501 42.9707 30.7961 44.361 29.4059L48.3245 25.4423L47.9249 25.0427C46.5347 23.6524 44.2807 23.6524 42.8904 25.0427L38.5271 29.4059C37.1368 30.7961 37.1368 33.0501 38.5271 34.4404L45.0663 40.9796L47.9832 38.0626L44.361 34.4404Z" fill="#EF4424"/>
<path d="M59.9533 44.6873L54.5902 39.3242L52.8086 41.1059L57.0577 45.355C57.9683 44.9703 58.9447 44.7431 59.9533 44.6873Z" fill="#FEB137"/>
<path d="M83.1925 71.4935C83.0402 71.0143 82.9602 70.5094 82.9602 69.992C82.9602 69.3247 83.0921 68.6777 83.3427 68.0804L81.3415 66.0792C80.3589 65.9025 79.454 65.4332 78.7333 64.7123C78.5937 64.5727 78.4587 64.4161 78.3087 64.2193L78.2158 64.0977L78.0863 64.1786C77.6089 64.4768 77.0947 64.7047 76.5586 64.8592L83.1925 71.4935Z" fill="#FEB137"/>
<path d="M87.9036 74.9315C87.3863 74.9315 86.8816 74.8513 86.4023 74.699L96.5618 84.8584L98.3434 83.0768L89.8155 74.5488C89.218 74.7996 88.571 74.9315 87.9036 74.9315Z" fill="#FEB137"/>
<path d="M97.5479 60.3549C95.5533 58.3603 92.3194 58.3603 90.3249 60.3549L91.8743 58.8056C93.8689 56.8109 93.8689 53.577 91.8743 51.5824C89.8796 49.5878 86.6457 49.5878 84.6511 51.5824C86.6457 49.5878 86.6457 46.3539 84.6511 44.3592C82.6565 42.3646 79.4226 42.3646 77.428 44.3592L75.8786 45.9086C77.8732 43.914 77.8732 40.6801 75.8786 38.6854C73.884 36.6908 70.6501 36.6908 68.6554 38.6854L62.6277 44.7132C62.5649 44.776 62.5041 44.84 62.4453 44.9051C64.0047 45.27 65.4365 46.0599 66.5972 47.2208L79.543 60.1666C80.2317 60.8553 80.3004 61.9551 79.7029 62.7253C79.2435 63.3175 78.6929 63.809 78.0803 64.1898C78.2416 64.4149 78.421 64.6309 78.6232 64.8331C80.6179 66.8277 83.8516 66.8277 85.8462 64.8331L84.2969 66.3825C82.3022 68.3771 82.3022 71.611 84.2969 73.6056C86.2915 75.6003 89.5254 75.6003 91.52 73.6056L97.5478 67.5779C99.5424 65.5834 99.5424 62.3495 97.5479 60.3549Z" fill="#FFB09E"/>
<path d="M45.0625 40.9805L54.4589 31.5841L58.3938 35.519L48.9974 44.9154L45.0625 40.9805Z" fill="#E1D3CE"/>
<path d="M45.0625 40.9805L48.003 38.04L51.9379 41.9749L48.9974 44.9154L45.0625 40.9805Z" fill="#CDBFBA"/>
<path d="M66.5973 47.2208L68.4722 49.0956C68.2364 47.5451 68.7142 45.9072 69.9083 44.7132L75.9067 38.7148C75.8971 38.7051 75.8884 38.695 75.8786 38.6854C73.884 36.6908 70.6501 36.6908 68.6555 38.6854L62.6277 44.7132C62.5649 44.776 62.5041 44.84 62.4453 44.9051C64.0049 45.27 65.4365 46.0601 66.5973 47.2208Z" fill="#F89580"/>
<path d="M77.4276 44.3584L71.3999 50.3862C71.1182 50.6679 70.8778 50.9747 70.6758 51.2989L76.1959 56.8189C75.0337 54.8592 75.2949 52.2896 76.9802 50.6045L83.2262 44.3584C83.4491 44.1355 83.6882 43.939 83.9386 43.766C81.9482 42.39 79.1994 42.5867 77.4276 44.3584Z" fill="#F89580"/>
<path d="M90.4932 51.581C90.7096 51.3646 90.941 51.1733 91.1833 51.004C89.1913 49.6114 86.4286 49.8027 84.6503 51.581L78.6226 57.6087C78.3409 57.8904 78.1005 58.1973 77.8984 58.5213L79.5423 60.1652C80.231 60.8539 80.2997 61.9537 79.7023 62.7238C79.2425 63.3164 78.6916 63.8081 78.0785 64.189C78.2397 64.4141 78.4203 64.6295 78.6226 64.8317C80.4008 66.61 83.1636 66.8013 85.1555 65.4087C84.9133 65.2393 84.6817 65.0479 84.4655 64.8317C82.4709 62.8371 82.4709 59.6032 84.4655 57.6085L90.4932 51.581Z" fill="#F89580"/>
<path d="M89.8262 73.7871C87.8316 71.7925 87.8316 68.5586 89.8262 66.564L95.854 60.5362C96.1565 60.2337 96.4879 59.9777 96.8388 59.7671C94.848 58.3857 92.0945 58.5806 90.3206 60.3545L84.2928 66.3822C82.2982 68.3768 82.2982 71.6107 84.2928 73.6054C85.985 75.2975 88.5685 75.5533 90.5312 74.3745C90.2835 74.2025 90.047 74.0078 89.8262 73.7871Z" fill="#F89580"/>
<path d="M79.6599 60.0477L66.7141 47.1019C63.2527 43.6405 57.6406 43.6405 54.1792 47.1019L46.7444 54.5367C43.2831 57.998 43.2831 63.6102 46.7444 67.0715L49.9219 70.249C55.0198 75.3468 63.9105 72.0807 64.235 64.8785C64.2419 64.7256 64.2454 64.5718 64.2454 64.4173C64.2454 61.7261 63.1884 59.2833 61.4696 57.4758L62.9842 55.9612L70.4628 63.4398C73.091 66.068 77.4789 65.8641 79.8339 62.8279C80.4841 61.9899 80.4101 60.7979 79.6599 60.0477Z" fill="#FFCEBF"/>
<path d="M47.6821 60.9267L56.6468 51.962C59.2634 49.3454 63.5056 49.3454 66.1222 51.962L78.365 64.2048C78.9063 63.8396 79.4035 63.3816 79.8327 62.8281C80.4829 61.9899 80.4088 60.7979 79.6586 60.0477L66.7128 47.1019C63.2513 43.6405 57.6393 43.6405 54.178 47.1019L46.7432 54.5367C43.8531 57.4267 43.3781 61.8154 45.3142 65.2003C45.674 63.6343 46.462 62.1468 47.6821 60.9267Z" fill="#FFB09E"/>
</svg>
