<svg width="134" height="134" viewBox="0 0 134 134" fill="none" xmlns="http://www.w3.org/2000/svg">
<circle cx="67" cy="67" r="66" fill="white" stroke="#E58C06" stroke-width="2"/>
<path d="M33.2031 45.8831L36.7659 49.4459L39.2854 46.9264V61.1683H44.3245V46.9264L46.844 49.4459L50.4068 45.8831L41.805 37.2812L33.2031 45.8831Z" fill="#FFD480"/>
<path d="M100.797 45.8831L92.1956 37.1133L83.5938 45.8831L87.1565 49.4459L89.6761 46.9264V61.1683H94.7151V46.9264L97.2347 49.4459L100.797 45.8831Z" fill="#FABE2C"/>
<path d="M67 18L54.4023 33.1172H61.9609V61.168H67H72.0391V33.1172H79.5977L67 18Z" fill="#FFD480"/>
<path d="M72.0391 33.1172H79.5977L67 18V61.168H72.0391V33.1172Z" fill="#FABE2C"/>
<path d="M67 58.6484H29.207V104H67H104.793V58.6484H67Z" fill="#97DE3D"/>
<path d="M67 58.6484H104.793V104H67V58.6484Z" fill="#59C36A"/>
<path d="M92.1953 73.7656C90.8052 73.7656 89.6758 72.6362 89.6758 71.2461V68.7266H67H44.3242V71.2461C44.3242 72.6362 43.1948 73.7656 41.8047 73.7656H39.2852V88.8828H41.8047C43.1948 88.8828 44.3242 90.0122 44.3242 91.4023V93.9219H67H89.6758V91.4023C89.6758 90.0122 90.8052 88.8828 92.1953 88.8828H94.7148V73.7656H92.1953Z" fill="#59C36A"/>
<path d="M89.6758 91.4023C89.6758 90.0122 90.8052 88.8828 92.1953 88.8828H94.7148V73.7656H92.1953C90.8052 73.7656 89.6758 72.6362 89.6758 71.2461V68.7266H67V93.9219H89.6758V91.4023Z" fill="#00A66C"/>
<path d="M67 93.9219C73.9575 93.9219 79.5977 88.2817 79.5977 81.3242C79.5977 74.3667 73.9575 68.7266 67 68.7266C60.0425 68.7266 54.4023 74.3667 54.4023 81.3242C54.4023 88.2817 60.0425 93.9219 67 93.9219Z" fill="#97DE3D"/>
<path d="M79.5977 81.3242C79.5977 74.3666 73.9576 68.7266 67 68.7266V93.9219C73.9576 93.9219 79.5977 88.2815 79.5977 81.3242Z" fill="#59C36A"/>
<path d="M67 78.8047H64.4805V83.8438H67H69.5195V78.8047H67Z" fill="#59C36A"/>
<path d="M67 78.8047H69.5195V83.8438H67V78.8047Z" fill="#00A66C"/>
</svg>
