<svg width="134" height="134" viewBox="0 0 134 134" fill="none" xmlns="http://www.w3.org/2000/svg">
<circle cx="67" cy="67" r="66" fill="white" stroke="#D91796" stroke-width="2"/>
<g clip-path="url(#clip0_151_157)">
<path d="M110 67C110 90.7486 90.7486 110 67 110C64.7639 110 62.5685 109.83 60.4256 109.501C58.4789 109.203 56.5768 108.773 54.7245 108.224C38.9958 103.546 27.0366 90.1128 24.4987 73.5744C24.1752 71.4617 24.0052 69.2971 24 67.0945V67C24 43.2514 43.2514 24 67 24C73.5954 24 79.8457 25.4848 85.4306 28.1389C86.4713 28.6336 87.4909 29.169 88.4843 29.7444C91.652 31.575 94.5659 33.7973 97.1563 36.3457C100.728 39.8606 103.687 43.9922 105.861 48.5713C108.515 54.1563 110 60.4059 110 67Z" fill="#FFE662"/>
<path d="M98.5919 61.9544L97.8971 49.5575L97.1563 36.3457L97.1524 36.2912C96.9581 32.8282 94.1939 30.0659 90.7328 29.871L88.4843 29.7444L86.1917 29.6165L77.4659 29.125L65.0677 28.4282C63.6216 28.3455 62.2103 28.8842 61.1854 29.9097L24 67.0945C24.0052 69.2971 24.1752 71.4617 24.4987 73.5744C27.0366 90.1128 38.9958 103.546 54.7245 108.224L97.1104 65.8347C98.1352 64.8112 98.6746 63.4005 98.5919 61.9544ZM86.6169 50.3403C83.8736 53.0835 79.4244 53.0855 76.6812 50.3422C73.9359 47.5957 73.9379 43.1465 76.6812 40.4032C79.4244 37.6599 83.8736 37.658 86.6202 40.4032C89.3635 43.1465 89.3615 47.5957 86.6169 50.3403Z" fill="#FFB525"/>
<path d="M105.859 48.5716L105.115 35.3047C104.92 31.8423 102.155 29.0793 98.6943 28.8845L94.1539 28.6299L85.4281 28.1391L73.0292 27.4416C71.5831 27.3603 70.1718 27.899 69.1476 28.9232L24.4961 73.5746C27.3319 92.0597 41.9379 106.666 60.423 109.502L105.073 64.8495C106.097 63.8259 106.635 62.4146 106.555 60.9691L105.859 48.5716ZM94.5791 49.3543C91.8358 52.0976 87.3866 52.0996 84.6433 49.3563C81.8981 46.6098 81.9001 42.1606 84.6433 39.4173C87.3866 36.674 91.8358 36.672 94.5824 39.4173C97.3256 42.1606 97.3237 46.6098 94.5791 49.3543Z" fill="#FF0000"/>
<path d="M34.0672 86.803C33.4971 86.2328 33.8179 85.3418 34.4235 84.7362L40.6069 78.5528C41.1954 77.9643 42.0681 78.339 42.6382 78.9091C43.2976 79.5685 43.5653 80.4412 43.0306 80.9759L38.4154 85.5911L41.427 88.6028L44.1178 85.912C44.6525 85.3779 45.4721 85.5911 46.0422 86.162C46.5232 86.6422 46.844 87.4624 46.2561 88.0503L43.5653 90.7411L48.1628 95.3386C48.733 95.9087 48.3236 96.889 47.6287 97.5838C46.9332 98.2787 45.953 98.6888 45.3835 98.1186L34.0672 86.803Z" fill="white"/>
<path d="M44.2936 76.5397C43.8481 76.0942 43.7943 75.364 44.3113 74.8469L48.0001 71.1582C50.4415 68.7167 53.2924 67.6833 56.1971 70.588C58.193 72.584 58.4247 74.633 57.6583 76.3619L63.7708 78.1263C63.9486 78.1617 64.091 78.2686 64.1802 78.3579C64.8757 79.0527 64.6972 80.7272 63.8771 81.5473C63.5208 81.9036 63.0399 82.0998 62.4697 81.9213L55.2884 79.6229L54.1119 80.7987L58.4069 85.0937C58.9771 85.6639 58.567 86.6441 57.8722 87.339C57.1774 88.0338 56.1971 88.4432 55.6269 87.8737L44.2936 76.5397ZM48.6595 75.3463L51.9736 78.6604L53.7379 76.8967C54.7359 75.8987 54.9321 74.883 53.6848 73.6357C52.4368 72.3884 51.4211 72.584 50.4238 73.5819L48.6595 75.3463Z" fill="white"/>
<path d="M63.1495 66.8804L65.8225 64.208C66.3573 63.6733 67.1768 63.8872 67.747 64.4573C68.2279 64.9383 68.5488 65.7578 67.9609 66.3457L65.2878 69.0187L68.3171 72.0481L73.0931 67.2721C73.6278 66.738 74.5011 67.0051 75.1606 67.6645C75.7307 68.2347 76.1047 69.108 75.5168 69.6959L69.1727 76.04C68.5671 76.6456 67.6761 76.9664 67.1059 76.3962L55.7903 65.0806C55.2195 64.5105 55.5404 63.6195 56.1466 63.0132L62.4901 56.6697C63.0786 56.0819 63.9513 56.4558 64.5214 57.026C65.1809 57.6854 65.4486 58.5587 64.9138 59.0935L60.1379 63.8688L63.1495 66.8804Z" fill="white"/>
<path d="M73.825 56.2066L76.4981 53.5342C77.0328 52.9994 77.8523 53.2133 78.4225 53.7835C78.9034 54.2644 79.2243 55.0839 78.6364 55.6718L75.9633 58.3449L78.9927 61.3742L83.7686 56.5989C84.3034 56.0642 85.1767 56.3312 85.8354 56.9907C86.4063 57.5608 86.7803 58.4341 86.1924 59.022L79.8483 65.3661C79.242 65.9717 78.3516 66.2926 77.7815 65.7224L66.4659 54.4068C65.8957 53.8366 66.2159 52.9456 66.8215 52.34L73.1656 45.9959C73.7541 45.408 74.6268 45.782 75.197 46.3522C75.8564 47.0116 76.1241 47.8849 75.5893 48.4197L70.8134 53.195L73.825 56.2066Z" fill="white"/>
</g>
<defs>
<clipPath id="clip0_151_157">
<rect width="86" height="86" fill="white" transform="translate(24 24)"/>
</clipPath>
</defs>
</svg>
