<svg width="134" height="134" viewBox="0 0 134 134" fill="none" xmlns="http://www.w3.org/2000/svg">
<circle cx="67" cy="67" r="66" fill="white" stroke="#D45208" stroke-width="2"/>
<path d="M96.5625 42.8125V28.0312H81.7812V33.4062H87.1562L71.0312 49.5312L57.5938 36.0938L37.4375 56.25L41.4688 60.2812L57.5938 44.1562L71.0312 57.5938L91.1875 37.4375V42.8125H96.5625Z" fill="#236AF2"/>
<path d="M30.7188 95.2188H44.1562V100.594H30.7188V95.2188Z" fill="#FCA713"/>
<path d="M41.4688 100.594H54.9062V105.969H41.4688V100.594Z" fill="#FCA713"/>
<path d="M41.4688 89.8438H54.9062V95.2188H41.4688V89.8438Z" fill="#FCA713"/>
<path d="M57.5938 95.2188H71.0312V100.594H57.5938V95.2188Z" fill="#FCA713"/>
<path d="M54.9062 100.594H68.3438V105.969H54.9062V100.594Z" fill="#F4C067"/>
<path d="M54.9062 89.8438H68.3438V95.2188H54.9062V89.8438Z" fill="#F4C067"/>
<path d="M44.1562 95.2188H57.5938V100.594H44.1562V95.2188Z" fill="#F4C067"/>
<path d="M44.1562 84.4688H57.5938V89.8438H44.1562V84.4688Z" fill="#F4C067"/>
<path d="M28.0312 100.594H41.4688V105.969H28.0312V100.594Z" fill="#F4C067"/>
<path d="M28.0312 89.8438H41.4688V95.2188H28.0312V89.8438Z" fill="#F4C067"/>
<path d="M68.3438 95.2188H99.25V105.969H68.3438V95.2188Z" fill="#80C326"/>
<path d="M95.6497 95.2188C93.528 98.1321 90.7478 100.503 87.5358 102.137C84.3238 103.772 80.7709 104.624 77.1669 104.625H68.3438V105.969H99.25V95.2188H95.6497Z" fill="#69A709"/>
<path d="M80.4375 95.2188H85.8125V105.969H80.4375V95.2188Z" fill="#FCA713"/>
<path d="M73.7188 84.4688H104.625V95.2188H73.7188V84.4688Z" fill="#80C326"/>
<path d="M101.025 84.4688C98.903 87.3821 96.1228 89.7527 92.9108 91.3873C89.6988 93.022 86.1459 93.8744 82.5419 93.875H73.7188V95.2188H104.625V84.4688H101.025Z" fill="#69A709"/>
<path d="M85.8125 84.4688H91.1875V95.2188H85.8125V84.4688Z" fill="#FCA713"/>
<path d="M68.3438 73.7188H99.25V84.4688H68.3438V73.7188Z" fill="#80C326"/>
<path d="M95.6497 73.7188C93.528 76.6321 90.7478 79.0027 87.5358 80.6373C84.3238 82.272 80.7709 83.1244 77.1669 83.125H68.3438V84.4688H99.25V73.7188H95.6497Z" fill="#69A709"/>
<path d="M80.4375 73.7188H85.8125V84.4688H80.4375V73.7188Z" fill="#FCA713"/>
<path d="M64.3125 89.8438H68.3438V95.2188H64.3125V89.8438Z" fill="#F5B142"/>
<path d="M64.3125 95.2188H68.3438V100.594H64.3125V95.2188Z" fill="#ED8515"/>
<path d="M64.3125 100.594H68.3438V105.969H64.3125V100.594Z" fill="#F5B142"/>
<path d="M50.875 100.594H54.9062V105.969H50.875V100.594Z" fill="#ED8515"/>
<path d="M53.5625 95.2188H57.5938V100.594H53.5625V95.2188Z" fill="#FCA713"/>
<path d="M50.875 89.8438H54.9062V95.2188H50.875V89.8438Z" fill="#ED8515"/>
<path d="M37.4375 100.594H41.4688V105.969H37.4375V100.594Z" fill="#F5B142"/>
<path d="M40.125 95.2188H44.1562V100.594H40.125V95.2188Z" fill="#ED8515"/>
<path d="M37.4375 89.8438H41.4688V95.2188H37.4375V89.8438Z" fill="#F5B142"/>
<path d="M54.9062 84.4688H58.9375V89.8438H54.9062V84.4688Z" fill="#F5B142"/>
<path d="M50.875 58.9375H56.25V80.4375H50.875V58.9375Z" fill="#4DB7E5"/>
<path d="M64.3125 62.9688H69.6875V69.6875H64.3125V62.9688Z" fill="#4DB7E5"/>
<path d="M77.75 58.9375H83.125V69.6875H77.75V58.9375Z" fill="#4DB7E5"/>
<path d="M91.1875 48.1875H96.5625V69.6875H91.1875V48.1875Z" fill="#4DB7E5"/>
<path d="M42.8125 65.6562H37.4375V85.8125L42.8125 80.4375V65.6562Z" fill="#4DB7E5"/>
</svg>
