<svg width="134" height="134" viewBox="0 0 134 134" fill="none" xmlns="http://www.w3.org/2000/svg">
<circle cx="67" cy="67" r="66" fill="white" stroke="#11B684" stroke-width="2"/>
<g clip-path="url(#clip0_151_160)">
<path d="M98.2244 106.948H35.7817C34.146 106.948 32.8203 105.622 32.8203 103.987V56.2383H101.186V103.987C101.186 105.622 99.8601 106.948 98.2244 106.948Z" fill="#FFC73B"/>
<path d="M32.8203 56.2383H101.186V66.1742H32.8203V56.2383Z" fill="#EFB025"/>
<path d="M107 45.8778V58.1874C107 59.5021 105.933 60.5671 104.618 60.5671H29.3798C28.0651 60.5671 27 59.5021 27 58.1874V45.8778C27 44.5631 28.0651 43.498 29.3798 43.498H104.618C105.933 43.498 107 44.5631 107 45.8778Z" fill="#FFC73B"/>
<path d="M64.2828 49.1587C63.7634 49.7635 63.2538 50.377 62.7563 50.9971C60.9027 53.3036 59.2059 55.7206 57.6721 58.2291C57.2003 59.0006 56.745 59.78 56.3031 60.5686H40.0781C41.026 58.4177 42.0654 56.3065 43.1915 54.2429C45.2338 50.499 47.5641 46.9065 50.1678 43.4995C50.7898 42.6859 51.4264 41.8821 52.0789 41.0905C52.4695 40.6132 52.8668 40.1426 53.2697 39.6738C54.7504 40.9495 56.2299 42.2239 57.7112 43.4995C57.9407 43.696 58.1702 43.895 58.399 44.0922C60.1471 45.5973 61.8951 47.1018 63.6426 48.6088C63.8568 48.7906 64.0692 48.9756 64.2828 49.1587Z" fill="#EFB025"/>
<path d="M88.4896 60.5686H72.2634C71.8234 59.78 71.3662 59.0006 70.8944 58.2291C69.3606 55.7206 67.662 53.3036 65.8102 50.9971C65.3109 50.377 64.8013 49.7635 64.2812 49.1587C64.4955 48.9756 64.7079 48.7919 64.9221 48.6088C66.6714 47.1018 68.4194 45.5955 70.1669 44.0922C70.3964 43.895 70.6259 43.696 70.8553 43.4995C72.3361 42.2239 73.8174 40.9495 75.2969 39.6738C75.6997 40.1414 76.097 40.6132 76.4877 41.0892C77.1414 41.8821 77.7786 42.6859 78.3987 43.4995C81.0024 46.9065 83.3328 50.499 85.3762 54.2429C86.5023 56.3065 87.5417 58.4177 88.4896 60.5686Z" fill="#EFB025"/>
<path d="M67.0017 49.1593C66.4817 49.7635 65.972 50.377 65.4746 50.9971C63.6216 53.3036 61.9242 55.7206 60.3904 58.2297C55.521 66.1893 52.2867 75.0809 50.9226 84.3876C48.8724 81.6685 46.9803 78.7266 45.2781 75.5808C42.2837 77.5339 39.3571 79.7678 36.5391 82.2812C37.9862 72.4094 41.1747 62.9209 45.9104 54.2429C48.4397 49.6055 51.4121 45.1993 54.7971 41.0905C55.1877 40.6132 55.5851 40.1432 55.9879 39.6738C57.6981 41.1466 59.4071 42.6194 61.1179 44.0922C62.8654 45.5973 64.6134 47.1018 66.3615 48.6088C66.5751 48.7906 66.7875 48.9756 67.0017 49.1593Z" fill="#FF4440"/>
<path d="M97.4639 82.2812C94.6459 79.7678 91.7192 77.5339 88.7249 75.5808C87.0226 78.7266 85.1305 81.6685 83.0803 84.3876C81.7162 75.0809 78.4825 66.1893 73.6125 58.2297C72.0787 55.7206 70.3801 53.3036 68.5283 50.9971C68.0291 50.377 67.5194 49.7635 67 49.1593C67.2136 48.9756 67.426 48.7919 67.6403 48.6088C69.3895 47.1018 71.1376 45.5955 72.8856 44.0922C74.5958 42.6176 76.3066 41.1466 78.015 39.6738C78.4178 40.1414 78.8152 40.6132 79.2058 41.0892C82.5914 45.1981 85.5638 49.6042 88.0944 54.2429C92.8289 62.9209 96.0167 72.4094 97.4639 82.2812Z" fill="#FF4440"/>
<path d="M60.6328 49.1602H73.3715V60.5688H60.6328V49.1602Z" fill="#FF4440"/>
<path d="M88.0944 54.2435L73.6125 58.2303C72.0787 55.7212 70.3801 53.3042 68.5283 50.9977L67.6403 48.6094L67 46.887L72.8856 44.0928L79.2058 41.0898C82.5914 45.1987 85.5638 49.6049 88.0944 54.2435Z" fill="#EA2F2F"/>
<path d="M66.9976 46.8857L66.3573 48.6082L65.4705 50.9965C63.6174 53.303 61.92 55.72 60.3862 58.2291L45.9062 54.2423C48.4355 49.6049 51.408 45.1987 54.793 41.0898L61.1138 44.0916L66.9976 46.8857Z" fill="#EA2F2F"/>
<path d="M90.1122 27.5535L67 38.5294L71.4397 50.4697L96.1089 43.6796C99.3352 42.7915 101.108 39.329 99.9413 36.1924L97.9051 30.7175C96.7394 27.5809 93.1353 26.1179 90.1122 27.5535Z" fill="#FF4440"/>
<path d="M43.8836 27.5535L66.9958 38.5294L62.5561 50.4697L37.8875 43.6796C34.6612 42.7915 32.8887 39.329 34.0551 36.1924L36.0906 30.7175C37.257 27.5809 40.8605 26.1179 43.8836 27.5535Z" fill="#FF4440"/>
<path d="M72.5174 43.3293C72.0975 43.3293 71.6855 43.1217 71.4432 42.7415C71.0641 42.1488 71.2369 41.3615 71.8295 40.9825C72.0047 40.8708 76.1673 38.2218 80.9463 36.2889C87.836 33.502 92.4368 33.6515 94.6194 36.7332C95.0265 37.3075 94.8904 38.1028 94.3161 38.5093C93.7418 38.9158 92.9471 38.7803 92.5406 38.206C89.5816 34.0287 77.2787 40.5241 73.2022 43.1291C72.9898 43.2646 72.7524 43.3293 72.5174 43.3293Z" fill="#EA2F2F"/>
<path d="M61.3524 43.3293C61.1174 43.3293 60.88 43.2646 60.6676 43.1291C56.591 40.5241 44.2882 34.0287 41.3292 38.206C40.9221 38.7803 40.1274 38.9158 39.5531 38.5093C38.9793 38.1022 38.8432 37.3075 39.2503 36.7332C41.433 33.6515 46.0332 33.502 52.9234 36.2889C57.7025 38.2212 61.8651 40.8708 62.0403 40.9825C62.6329 41.3615 62.8056 42.1488 62.4272 42.7415C62.1837 43.1217 61.7723 43.3293 61.3524 43.3293Z" fill="#EA2F2F"/>
<path d="M70.6217 34.4258H63.3732C61.3895 34.4258 59.7812 36.0341 59.7812 38.0183V48.5487C59.7812 50.533 61.3895 52.1412 63.3732 52.1412H70.6217C72.6053 52.1412 74.2136 50.533 74.2136 48.5487V38.0183C74.2136 36.0341 72.6053 34.4258 70.6217 34.4258Z" fill="#EA2F2F"/>
<path d="M60.6328 60.5684H73.3715V106.947H60.6328V60.5684Z" fill="#FF4440"/>
<path d="M60.6328 60.5684H73.3715V66.1732H60.6328V60.5684Z" fill="#EA2F2F"/>
</g>
<defs>
<clipPath id="clip0_151_160">
<rect width="80" height="80" fill="white" transform="translate(27 27)"/>
</clipPath>
</defs>
</svg>
