<svg width="134" height="134" viewBox="0 0 134 134" fill="none" xmlns="http://www.w3.org/2000/svg">
<circle cx="67" cy="67" r="66" fill="white" stroke="#1254D2" stroke-width="2"/>
<path d="M53.3237 44.0447C57.0617 44.0485 60.6455 45.5351 63.2886 48.1782C65.9317 50.8214 67.4182 54.4052 67.422 58.1431C67.59 68.715 55.5937 75.6595 46.6041 70.5121C33.946 63.5255 38.6794 44.2186 53.3237 44.0447ZM63.4354 86.5645C62.2571 85.6947 61.3896 84.4692 60.961 83.0687C60.5323 81.6682 60.5653 80.1671 61.0549 78.7868C61.5446 77.4065 62.4651 76.2202 63.6804 75.4029C64.8958 74.5857 66.3417 74.1809 67.8048 74.2481C66.3763 73.2074 64.8353 72.3307 63.2109 71.6344C62.6098 72.0774 61.9791 72.4788 61.3232 72.8356C58.8692 74.1677 56.1207 74.8643 53.3285 74.862C50.5362 74.8598 47.7889 74.1586 45.3371 72.8225C44.6813 72.4701 44.0506 72.0732 43.4493 71.6344C40.2637 73.0071 37.4009 75.0319 35.0455 77.5783C32.6901 80.1248 30.8941 83.1364 29.7734 86.4192C29.4315 87.4998 29.3491 88.6458 29.533 89.7643C29.7169 90.8827 30.1619 91.942 30.8318 92.8563C31.5018 93.7706 32.3778 94.514 33.3889 95.0264C34.3999 95.5387 35.5175 95.8055 36.651 95.8051H61.7456C60.7818 94.344 60.4195 92.5671 60.7343 90.8453C61.0492 89.1236 62.0169 87.5899 63.4354 86.5645ZM89.4409 74.2481H100.45C101.558 74.2447 102.619 73.8023 103.401 73.0179C104.183 72.2335 104.622 71.1711 104.622 70.0635C104.622 68.9559 104.183 67.8935 103.401 67.1091C102.619 66.3246 101.558 65.8823 100.45 65.8788H89.4411C88.3417 65.8947 87.2927 66.3425 86.5209 67.1256C85.7491 67.9086 85.3164 68.9639 85.3164 70.0634C85.3164 71.1629 85.749 72.2182 86.5208 73.0013C87.2926 73.7844 88.3415 74.2322 89.4409 74.2481ZM78.4446 76.8883H67.4486C66.3472 76.8985 65.2945 77.3432 64.5193 78.1256C63.7441 78.9081 63.3092 79.9649 63.3092 81.0663C63.3092 82.1677 63.744 83.2245 64.5192 84.007C65.2943 84.7894 66.3471 85.2341 67.4484 85.2444H78.4446C78.9939 85.2454 79.538 85.1381 80.0458 84.9286C80.5536 84.719 81.015 84.4114 81.4038 84.0234C81.7926 83.6353 82.101 83.1744 82.3114 82.667C82.5219 82.1596 82.6302 81.6157 82.6302 81.0664C82.6302 80.5171 82.5219 79.9732 82.3114 79.4658C82.101 78.9584 81.7926 78.4974 81.4038 78.1094C81.015 77.7213 80.5536 77.4137 80.0458 77.2042C79.538 76.9947 78.9939 76.8873 78.4446 76.8883ZM100.45 76.8883H89.4411C88.3424 76.9026 87.2936 77.3491 86.5218 78.1311C85.7499 78.913 85.3171 79.9676 85.3171 81.0663C85.3171 82.165 85.7498 83.2196 86.5217 84.0015C87.2935 84.7835 88.3423 85.2301 89.4409 85.2444H100.45C101.557 85.2424 102.618 84.8014 103.4 84.0181C104.182 83.2347 104.621 82.1732 104.621 81.0664C104.621 79.9596 104.182 78.898 103.4 78.1147C102.618 77.3314 101.557 76.8903 100.45 76.8883ZM78.4446 87.8846H67.4486C66.3473 87.8949 65.2945 88.3395 64.5194 89.1219C63.7442 89.9043 63.3093 90.9612 63.3093 92.0625C63.3092 93.1639 63.7441 94.2208 64.5192 95.0032C65.2944 95.7856 66.3471 96.2304 67.4484 96.2407H78.4446C78.9939 96.2416 79.538 96.1343 80.0458 95.9248C80.5536 95.7152 81.015 95.4076 81.4038 95.0196C81.7926 94.6315 82.101 94.1706 82.3114 93.6632C82.5219 93.1558 82.6302 92.6119 82.6302 92.0626C82.6302 91.5133 82.5219 90.9694 82.3114 90.462C82.101 89.9546 81.7926 89.4937 81.4038 89.1057C81.015 88.7176 80.5536 88.41 80.0458 88.2005C79.538 87.991 78.9939 87.8836 78.4446 87.8846ZM100.45 87.8846H89.4411C88.3423 87.8987 87.2932 88.345 86.5212 89.127C85.7491 89.909 85.3162 90.9636 85.3162 92.0625C85.3162 93.1614 85.749 94.2161 86.5211 94.9981C87.2931 95.7802 88.3421 96.2266 89.4409 96.2407H100.45C101.557 96.2387 102.618 95.7976 103.4 95.0143C104.182 94.231 104.621 93.1694 104.621 92.0626C104.621 90.9558 104.182 89.8943 103.4 89.111C102.618 88.3277 101.557 87.8866 100.45 87.8846ZM75.8705 51.2127C75.8705 49.4471 76.2182 47.6987 76.8939 46.0675C77.5696 44.4363 78.5599 42.9541 79.8084 41.7056C81.0569 40.4571 82.539 39.4667 84.1703 38.7911C85.8015 38.1154 87.5498 37.7676 89.3155 37.7676C91.0811 37.7676 92.8294 38.1153 94.4607 38.791C96.0919 39.4667 97.5741 40.457 98.8226 41.7055C100.071 42.954 101.061 44.4361 101.737 46.0674C102.413 47.6986 102.761 49.4469 102.761 51.2125C102.027 69.0461 76.6105 69.065 75.8705 51.2127ZM84.3057 59.1992H87.9889C87.883 60.1377 88.2333 61.086 89.3089 61.1133C90.3945 61.0945 90.7332 60.1269 90.629 59.1991C91.5839 59.2726 92.5382 59.0501 93.362 58.5619C94.1858 58.0736 94.8391 57.3433 95.233 56.4704C95.6269 55.5975 95.7422 54.6244 95.5632 53.6836C95.3842 52.7428 94.9196 51.8801 94.2326 51.2128C94.9039 50.5387 95.3545 49.6765 95.5249 48.7406C95.6952 47.8046 95.5772 46.839 95.1865 45.9716C94.7957 45.1042 94.1507 44.376 93.3369 43.8834C92.523 43.3907 91.5787 43.157 90.629 43.213V42.6323C90.6238 42.2856 90.4825 41.9549 90.2355 41.7115C89.9885 41.4682 89.6557 41.3318 89.309 41.3318C88.9622 41.3317 88.6294 41.4681 88.3824 41.7115C88.1354 41.9548 87.994 42.2855 87.9888 42.6322V43.213H85.1376C84.8328 43.2182 84.5391 43.3285 84.3063 43.5253C84.0735 43.722 83.9158 43.9932 83.8599 44.2929C83.8039 44.5925 83.8533 44.9023 83.9995 45.1698C84.1457 45.4373 84.3798 45.646 84.6622 45.7608V56.5592C84.4796 56.5142 84.2896 56.5081 84.1045 56.5414C83.9194 56.5746 83.7434 56.6465 83.5879 56.7523C83.4325 56.8581 83.301 56.9954 83.2021 57.1554C83.1032 57.3153 83.0391 57.4943 83.0139 57.6807C82.9887 57.867 83.0031 58.0566 83.056 58.237C83.109 58.4175 83.1993 58.5848 83.3212 58.728C83.443 58.8713 83.5936 58.9872 83.7633 59.0684C83.9329 59.1496 84.1177 59.1941 84.3057 59.1992ZM93.0051 47.8729C93.0029 47.3379 92.7894 46.8255 92.4111 46.4472C92.0328 46.0689 91.5203 45.8554 90.9853 45.8531H87.3024V49.8926H90.9854C91.5204 49.8904 92.0328 49.6769 92.4111 49.2986C92.7894 48.9203 93.0029 48.4079 93.0051 47.8729ZM93.0051 54.5526C93.0052 54.2873 92.9529 54.0247 92.8514 53.7796C92.7499 53.5346 92.6012 53.3119 92.4136 53.1243C92.2261 52.9368 92.0034 52.788 91.7583 52.6865C91.5133 52.585 91.2506 52.5327 90.9854 52.5327H87.3024V56.559H90.9854C91.519 56.5597 92.0311 56.349 92.4097 55.9729C92.7882 55.5969 93.0023 55.0862 93.0051 54.5526Z" fill="url(#paint0_linear_151_161)"/>
<defs>
<linearGradient id="paint0_linear_151_161" x1="29.3719" y1="67.0009" x2="104.622" y2="67.0009" gradientUnits="userSpaceOnUse">
<stop stop-color="#FFDE00"/>
<stop offset="1" stop-color="#FD5900"/>
</linearGradient>
</defs>
</svg>
