<svg width="210" height="140" viewBox="0 0 210 140" fill="none" xmlns="http://www.w3.org/2000/svg">
<g clip-path="url(#clip0_739_176)">
<path fill-rule="evenodd" clip-rule="evenodd" d="M98.8001 9.72295C88.1628 13.6313 78.0514 22.0014 70.0857 29.8057C53.5003 46.0561 51.0245 49.4717 30.5627 63.1154C18.6373 71.067 9.23556 77.7912 4.60176 86.7858C-8.41111 112.049 7.08834 139.337 39.5681 139.337C40.8916 139.337 171.599 139.337 171.599 139.337C171.599 139.337 187.129 139.684 198.462 126.18C236.876 80.4103 173.166 -17.6063 98.8001 9.72295Z" fill="#F7F8FB"/>
<path fill-rule="evenodd" clip-rule="evenodd" d="M33.8785 139.334H186.471C186.653 139.334 186.803 139.484 186.803 139.667C186.803 139.85 186.655 140 186.471 140H33.8785C33.6965 140 33.5469 139.85 33.5469 139.667C33.5469 139.484 33.6965 139.334 33.8785 139.334Z" fill="#0F4884"/>
<path fill-rule="evenodd" clip-rule="evenodd" d="M174.991 126.937C176.211 118.721 183.756 108.369 185.352 106.529C175.425 105.311 172.984 120.751 173.433 128.227L174.991 126.937Z" fill="#3DB390"/>
<path fill-rule="evenodd" clip-rule="evenodd" d="M172.328 127.065C170.24 119.233 163.016 114.296 161.578 112.639C171.341 109.801 174.134 121.494 173.73 128.226L172.328 127.065Z" fill="#3DB390"/>
<path fill-rule="evenodd" clip-rule="evenodd" d="M173.201 127.646C172.633 119.68 168.552 107.304 167.234 105.716C176.443 105.573 174.851 121.179 174.372 127.514L173.201 127.646Z" fill="#84CDB3"/>
<path fill-rule="evenodd" clip-rule="evenodd" d="M176.061 129.43C177.684 122.903 184.766 115.975 189.054 113.482C178.698 110.784 174.715 123.07 174.531 130.413L176.061 129.43Z" fill="#84CDB3"/>
<path fill-rule="evenodd" clip-rule="evenodd" d="M181.09 128.227H168.031V133.781C168.031 136.835 170.519 139.335 173.56 139.335H175.562C178.602 139.335 181.09 136.835 181.09 133.781V128.227Z" fill="#C4DAFB"/>
<path d="M181.09 128.227H168.031V129.169H181.09V128.227Z" fill="#9DC1EF"/>
<path fill-rule="evenodd" clip-rule="evenodd" d="M180.894 126.789H168.217C167.762 126.789 167.391 127.163 167.391 127.62C167.391 128.077 167.762 128.45 168.217 128.45H180.894C181.349 128.45 181.721 128.077 181.721 127.62C181.721 127.163 181.349 126.789 180.894 126.789Z" fill="#C4DAFB"/>
<path fill-rule="evenodd" clip-rule="evenodd" d="M34.7789 22H101.199C102.775 22 104.064 23.5208 104.064 25.3786V68.6745C104.064 70.5333 102.775 72.0531 101.199 72.0531H34.7789C33.2031 72.0531 31.9141 70.5323 31.9141 68.6745V25.3786C31.9141 23.5208 33.2041 22 34.7789 22Z" fill="#B1D2FC"/>
<path fill-rule="evenodd" clip-rule="evenodd" d="M33.834 23.6055H102.146C102.324 23.6055 102.469 23.7515 102.469 23.9292V70.1237C102.469 70.3014 102.323 70.4475 102.146 70.4475H33.834C33.6561 70.4475 33.5117 70.3014 33.5117 70.1237V23.9292C33.5117 23.7515 33.6561 23.6055 33.834 23.6055Z" fill="#00001C"/>
<path d="M102.47 61.4492H33.5117V70.4483H102.47V61.4492Z" fill="#242032"/>
<path d="M98.3978 63.748H37.7617V63.84H98.3978V63.748Z" fill="#49445B"/>
<path d="M98.3978 67.5332H37.7617V67.6251H98.3978V67.5332Z" fill="#49445B"/>
<path d="M37.9453 67.8522C37.9524 67.8359 40.3598 62.0316 42.0697 63.055C42.7844 63.4829 43.2866 64.0007 43.7075 64.4338C44.2168 64.9587 44.6011 65.355 45.0738 65.2794C45.5537 65.2028 46.125 65.1293 46.6913 65.1753C47.2667 65.2222 47.8349 65.3908 48.2914 65.8003C48.6137 66.0894 48.8119 66.3713 49 66.6389C49.3223 67.0985 49.6161 67.5172 50.4883 67.844C51.3199 68.1555 52.1484 66.4734 52.8418 65.065C53.2169 64.302 53.5544 63.6167 53.8543 63.3379C53.8716 63.3225 53.8889 63.3062 53.9062 63.2909C54.3311 62.9171 54.7917 62.7731 55.2379 62.8006C55.6812 62.8272 56.1071 63.0243 56.4691 63.3328C56.4874 63.3491 56.5067 63.3654 56.526 63.3828C56.9296 63.7474 57.8029 64.3245 58.7504 64.7473C59.4355 65.0527 60.1573 65.2754 60.7633 65.2754C61.8205 65.2754 62.4661 66.2691 62.9835 67.0668C63.2214 67.4335 63.4308 67.7562 63.6301 67.9023L63.6606 67.9247C64.296 68.3925 65.2526 69.0983 65.9205 68.8072C66.1991 68.6856 66.6861 68.1453 67.2533 67.5162C68.1063 66.5704 69.1361 65.4286 70.0002 65.1293C70.7068 64.8842 71.641 64.2642 72.4645 63.7178C73.2717 63.1816 73.9752 62.7148 74.3097 62.7148C74.7692 62.7148 76.046 63.8996 77.0891 64.8678C77.5811 65.3244 78.0213 65.7329 78.2867 65.9372C78.5235 66.12 78.8285 66.3886 79.1569 66.6777C79.9732 67.3967 80.9431 68.2516 81.2969 68.1903C81.5469 68.1474 82.1945 67.6725 82.8655 67.1025C83.6076 66.4724 84.3691 65.7299 84.6588 65.3183C84.9445 64.9128 85.3989 64.2806 86.0912 63.823C86.7906 63.3603 87.7269 63.0795 88.9632 63.392C90.4667 63.7719 91.8087 64.8209 92.8273 65.6165C93.4434 66.0975 93.9375 66.4846 94.2546 66.5582C95.0903 66.7543 96.1608 65.9392 96.1638 65.9362L96.296 66.0751C96.2929 66.0771 95.1432 66.9544 94.2028 66.7338C93.8399 66.6491 93.3295 66.2497 92.6931 65.7523C91.6897 64.9679 90.3681 63.9354 88.9083 63.5666C87.7463 63.2725 86.8689 63.535 86.2142 63.968C85.5524 64.4052 85.1102 65.02 84.8326 65.4143C84.5338 65.8381 83.7591 66.5949 83.0068 67.2343C82.3114 67.8246 81.6262 68.319 81.3355 68.37C80.876 68.4497 79.8644 67.5581 79.0135 66.8084C78.6872 66.5204 78.3843 66.2538 78.1525 66.0751C77.879 65.8647 77.4368 65.4541 76.9417 64.9945C75.9261 64.0518 74.6828 62.8977 74.3097 62.8977C74.0423 62.8977 73.3642 63.3481 72.5865 63.8649C71.7529 64.4184 70.8074 65.0466 70.0744 65.2999C69.2622 65.5818 68.2506 66.7032 67.4139 67.6306C66.8314 68.2761 66.3313 68.8307 66.011 68.9706C65.2242 69.3138 64.2055 68.5631 63.5305 68.0657L63.5 68.0432C63.2733 67.8767 63.0547 67.5397 62.8066 67.1587C62.3146 66.4019 61.7026 65.4582 60.7633 65.4582C60.1238 65.4582 59.3705 65.2263 58.6589 64.9097C57.69 64.4777 56.7954 63.8853 56.3796 63.5105C56.3623 63.4951 56.345 63.4798 56.3267 63.4645C55.9994 63.1847 55.6171 63.0069 55.2237 62.9824C54.8333 62.9589 54.4277 63.0876 54.0495 63.4206C54.0343 63.4339 54.018 63.4492 54.0017 63.4635C53.7273 63.7188 53.3969 64.3898 53.0299 65.1365C52.2999 66.6205 51.4267 68.3925 50.41 68.0105C49.4778 67.6602 49.1677 67.218 48.8272 66.7338C48.6442 66.4734 48.4531 66.2007 48.1481 65.927C47.7302 65.5521 47.2067 65.3979 46.674 65.354C46.1321 65.3101 45.577 65.3806 45.1104 65.4561C44.5228 65.5501 44.106 65.1211 43.553 64.5512C43.1402 64.1263 42.6482 63.6187 41.9559 63.2041C40.4635 62.3104 38.1436 67.8972 38.1375 67.9135L37.9453 67.8522Z" fill="#F7AAAC"/>
<path fill-rule="evenodd" clip-rule="evenodd" d="M84.4339 35.4609H84.69V35.9542H85.7463V39.149H84.69V39.6423H84.4339V39.149H83.3776V35.9542H84.4339V35.4609ZM88.3926 36.6988H88.6487V39.0428H89.705V44.7889H88.6487V47.1329H88.3926V44.7889H87.3363V39.0428H88.3926V36.6988ZM60.5393 38.4443H60.7955V39.3308H61.8518V45.0769H60.7955V45.9634H60.5393V45.0769H59.4831V39.3308H60.5393V38.4443ZM64.6454 43.9136H64.9016V44.7889H65.9579V50.4614H64.9016V51.3367H64.6454V50.4614H63.5892V44.7889H64.6454V43.9136ZM68.6041 44.8083H68.8603V49.8149H69.9166V56.0625H68.8603V56.949H68.6041V56.0625H67.5489V49.8149H68.6052V44.8083H68.6041ZM45.0563 45.2005H45.3125V46.087H46.3687V51.8331H45.3125V52.7196H45.0563V51.8331H44V46.087H45.0563V45.2005ZM49.1634 49.4595H49.4196V51.1621H50.4758V54.3569H49.4196V56.0594H49.1634V54.3569H48.1071V51.1621H49.1634V49.4595ZM95.3035 42.5225H96.3598V40.1785H96.616V42.5225H97.6722V48.2686H96.616V50.6126H96.3598V48.2686H95.3035V42.5225Z" fill="#F6597B"/>
<path fill-rule="evenodd" clip-rule="evenodd" d="M73.9101 37.5725H74.175V39.286H75.2671V50.3856H74.175V52.098H73.9101V50.3856H72.8179V39.286H73.9101V37.5725ZM77.7089 39.2188V41.5624H77.444V39.2188H76.3519V33.54H77.444H77.7089H78.801V39.2188H77.7089ZM81.5161 28.4785H81.781V31.4054H82.8732V34.0667H81.781V38.482H81.5161V34.0667H80.424V31.4054H81.5161V28.4785ZM53.519 37.6568H53.7839V39.3702H54.876V50.4698H53.7839V52.1822H53.519V50.4698H52.4269V39.3702H53.519V37.6568ZM57.0529 31.8191H57.3178V34.0262H58.41V37.3614H57.3178V41.5166H57.0529V37.3614H55.9608V34.0262H57.0529V31.8191ZM39.5882 41.169H39.8531V46.0875H40.9453V57.1872H39.8531V57.9836H39.5882V57.1872H38.4961V46.0875H39.5882V41.169ZM92.8716 34.1659H93.9637V32.881H94.2286V34.1659H95.3208V38.337H94.2286V40.0206H93.9637V38.337H92.8716V34.1659Z" fill="#70CBD9"/>
<path fill-rule="evenodd" clip-rule="evenodd" d="M37.2623 25.6758H56.4367C56.8128 25.6758 57.1209 25.9852 57.1209 26.3631C57.1209 26.741 56.8128 27.0505 56.4367 27.0505H37.2623C36.8862 27.0505 36.5781 26.741 36.5781 26.3631C36.5781 25.9852 36.8862 25.6758 37.2623 25.6758Z" fill="#4D69AF"/>
<path fill-rule="evenodd" clip-rule="evenodd" d="M37.2623 28.6855H46.8032C47.1794 28.6855 47.4874 28.995 47.4874 29.3729C47.4874 29.7508 47.1794 30.0603 46.8032 30.0603H37.2623C36.8862 30.0603 36.5781 29.7508 36.5781 29.3729C36.5781 28.995 36.8862 28.6855 37.2623 28.6855Z" fill="#4D69AF"/>
<path fill-rule="evenodd" clip-rule="evenodd" d="M69.043 54.2891L70.5455 57.3095H67.5391L69.043 54.2891Z" fill="#F79646"/>
<path fill-rule="evenodd" clip-rule="evenodd" d="M39.7993 53.2617L41.3033 56.2821H38.2969L39.7993 53.2617Z" fill="#F79646"/>
<path d="M72.7416 87.2812H46.3672V137.105H72.7416V87.2812Z" fill="white"/>
<path d="M72.7393 87.2812H64.1797V137.105H72.7393V87.2812Z" fill="#9CC1F4"/>
<path d="M45.6912 87.2812H44.5898V137.105H45.6912V87.2812Z" fill="#C9DBF5"/>
<path d="M64.181 87.2812H63.0781V137.105H64.181V87.2812Z" fill="#C9DBF5"/>
<path d="M63.0806 120.941H46.3672V137.105H63.0806V120.941Z" fill="white"/>
<path d="M46.3663 120.941H45.6953V137.105H46.3663V120.941Z" fill="#B1CBEF"/>
<path d="M63.0782 120.941H45.6953V121.248H63.0782V120.941Z" fill="#B1CBEF"/>
<path d="M46.3663 88.6172H45.6953V119.608H46.3663V88.6172Z" fill="#B1CBEF"/>
<path d="M63.0782 119.605H45.6953V120.941H63.0782V119.605Z" fill="#D9E6F9"/>
<path fill-rule="evenodd" clip-rule="evenodd" d="M49.8226 125.9C50.1249 125.9 50.3717 126.148 50.3717 126.452V130.689C50.3717 130.993 50.1249 131.241 49.8226 131.241C49.5202 131.241 49.2734 130.993 49.2734 130.689V126.452C49.2734 126.148 49.5202 125.9 49.8226 125.9Z" fill="#C9DBF5"/>
<path d="M63.0782 135.77H45.6953V137.104H63.0782V135.77Z" fill="#C9DBF5"/>
<path d="M63.0806 104.777H46.3672V120.941H63.0806V104.777Z" fill="white"/>
<path d="M46.3663 104.777H45.6953V120.941H46.3663V104.777Z" fill="#B1CBEF"/>
<path d="M63.0782 104.777H45.6953V105.084H63.0782V104.777Z" fill="#B1CBEF"/>
<path d="M63.0782 103.443H45.6953V104.778H63.0782V103.443Z" fill="#D9E6F9"/>
<path fill-rule="evenodd" clip-rule="evenodd" d="M49.8226 109.738C50.1249 109.738 50.3717 109.986 50.3717 110.29V114.527C50.3717 114.831 50.1249 115.079 49.8226 115.079C49.5202 115.079 49.2734 114.831 49.2734 114.527V110.29C49.2734 109.986 49.5202 109.738 49.8226 109.738Z" fill="#C9DBF5"/>
<path d="M63.0782 119.605H45.6953V120.941H63.0782V119.605Z" fill="#C9DBF5"/>
<path d="M63.0782 87.2812H45.6953V88.6156H63.0782V87.2812Z" fill="#C9DBF5"/>
<path d="M63.0782 103.443H45.6953V104.778H63.0782V103.443Z" fill="#C9DBF5"/>
<path fill-rule="evenodd" clip-rule="evenodd" d="M49.8226 93.373C50.1249 93.373 50.3717 93.621 50.3717 93.9247V98.1617C50.3717 98.4654 50.1249 98.7134 49.8226 98.7134C49.5202 98.7134 49.2734 98.4654 49.2734 98.1617V93.9247C49.2734 93.621 49.5202 93.373 49.8226 93.373Z" fill="#C9DBF5"/>
<path d="M45.6928 137.104H44.5898V139.334H45.6928V137.104Z" fill="#C9DBF5"/>
<path d="M46.3663 137.104H45.6953V139.334H46.3663V137.104Z" fill="#B1CBEF"/>
<path d="M64.181 137.104H63.0781V139.334H64.181V137.104Z" fill="#C9DBF5"/>
<path d="M64.8507 137.104H64.1797V139.334H64.8507V137.104Z" fill="#A2C2ED"/>
<path d="M53.5834 137.104H52.4805V139.334H53.5834V137.104Z" fill="#C9DBF5"/>
<path d="M54.253 137.104H53.582V139.334H54.253V137.104Z" fill="#B1CBEF"/>
<path d="M72.0678 137.104H70.9648V139.334H72.0678V137.104Z" fill="#C9DBF5"/>
<path d="M72.7413 137.104H72.0703V139.334H72.7413V137.104Z" fill="#A2C2ED"/>
<path fill-rule="evenodd" clip-rule="evenodd" d="M151.576 110.615L150.461 110.759L153.942 138.891C153.981 139.2 154.263 139.42 154.57 139.38L154.634 139.372C154.905 139.336 155.099 139.084 155.067 138.811L151.576 110.615Z" fill="#B2D2FF"/>
<path fill-rule="evenodd" clip-rule="evenodd" d="M131.488 110.574H130.363V138.933C130.363 139.242 130.616 139.497 130.925 139.497H130.99C131.264 139.497 131.488 139.272 131.488 138.996V110.574Z" fill="#B2D2FF"/>
<path fill-rule="evenodd" clip-rule="evenodd" d="M114.906 110.574H113.781V138.933C113.781 139.242 114.034 139.497 114.343 139.497H114.408C114.682 139.497 114.906 139.272 114.906 138.996V110.574Z" fill="#B2D2FF"/>
<path fill-rule="evenodd" clip-rule="evenodd" d="M138.932 110.615L137.816 110.759L141.298 138.891C141.336 139.2 141.619 139.42 141.926 139.38L141.989 139.372C142.26 139.336 142.455 139.084 142.422 138.811L138.932 110.615Z" fill="#B2D2FF"/>
<path fill-rule="evenodd" clip-rule="evenodd" d="M131.531 107.113H112.256C111.1 107.113 110.156 108.062 110.156 109.222C110.156 110.383 111.1 111.332 112.256 111.332H131.531C132.687 111.332 133.631 110.383 133.631 109.222C133.631 108.063 132.685 107.113 131.531 107.113Z" fill="#B2D2FF"/>
<path fill-rule="evenodd" clip-rule="evenodd" d="M138.018 74.3281H157.652L152.714 107.191L133.08 107.21C133.005 107.21 132.928 107.204 132.851 107.191C132.042 107.191 131.502 106.305 131.627 105.502L136.337 75.5571C136.463 74.7543 137.21 74.3281 138.018 74.3281Z" fill="#B2D2FF"/>
<path fill-rule="evenodd" clip-rule="evenodd" d="M156.2 75.5594L151.211 107.116H129.428C128.272 107.116 127.328 108.065 127.328 109.225C127.328 110.386 128.272 111.335 129.428 111.335H151.375C153.47 111.335 153.832 109.363 154.022 108.17L159.104 76.0212C159.231 75.2185 158.691 74.332 157.881 74.332C157.073 74.3305 156.326 74.7567 156.2 75.5594Z" fill="#9CC1F4"/>
<path fill-rule="evenodd" clip-rule="evenodd" d="M109.564 111.695L111.823 111.936L109.016 138.54C108.95 139.164 108.388 139.62 107.767 139.555C107.145 139.488 106.691 138.924 106.756 138.299L109.564 111.695Z" fill="#DAE2ED"/>
<path fill-rule="evenodd" clip-rule="evenodd" d="M111.811 112.045L109.014 138.54C108.955 139.103 108.493 139.529 107.947 139.56C107.601 139.332 107.39 138.923 107.436 138.483L110.243 111.879L111.811 112.045Z" fill="#A2BCD9"/>
<path d="M118.722 98.3971L107.524 103.782L107.5 134.177C107.42 134.27 107.342 134.361 107.263 134.45C107.203 134.521 107.143 134.589 107.081 134.656C106.936 134.819 106.792 134.974 106.65 135.116C106.586 135.181 106.522 135.245 106.458 135.305C105.409 136.297 104.142 136.455 103.103 136.624C102.296 136.754 101.68 136.801 101.06 137.82C101.04 137.853 101.025 137.884 101.013 137.918C100.869 138.288 101.128 138.715 101.545 138.738L110.933 139.19C111.395 139.217 111.79 138.891 111.874 138.453C111.884 138.391 111.891 138.327 111.889 138.262L111.588 134.104C111.588 134.104 111.588 134.098 111.587 134.087C112.447 126.088 114.738 117.234 113.999 107.75C113.999 107.75 126.235 96.1826 126.233 95.7518C126.232 95.3241 118.722 98.3971 118.722 98.3971Z" fill="#F7AAAC"/>
<path d="M118.773 100.969C119.182 104.509 116.723 106.61 117.132 110.15C117.137 119.013 118.661 125.596 120.749 134.547C120.819 134.843 120.291 137.659 120.351 137.952C121.28 138.95 124.027 140.387 124.311 135.787C123.128 128.059 126.214 119.168 123.168 109.767L125.091 100.395L118.773 100.969Z" fill="#F7AAAC"/>
<path fill-rule="evenodd" clip-rule="evenodd" d="M125.319 91.8859C124.375 97.7547 104 90.6818 106.261 112.897C109.696 114.484 119.61 114.843 125.122 113.518C126.468 107.273 150.763 115.449 141.611 92.2718C139.853 88.1371 125.97 89.2405 125.319 91.8859Z" fill="#1F3E7A"/>
<path fill-rule="evenodd" clip-rule="evenodd" d="M128.621 75.7337C127.562 78.0707 126.985 82.9631 122.186 86.2299C116.966 89.7834 106.614 89.833 106.978 87.9687C107.217 86.746 113.593 87.0343 120.664 81.1112C122.174 79.8467 124.441 70.5995 128.736 68.3834C129.243 68.0548 130.101 73.4944 128.621 75.7337Z" fill="#F7AAAC"/>
<path fill-rule="evenodd" clip-rule="evenodd" d="M145.226 70.4402C147.02 77.7952 140.221 78.8133 141.848 93.6627C136.464 94.4143 129.079 94.5058 124.45 93.3605C125.19 87.8962 124.022 82.9495 123.808 79.9663C123.484 75.4783 124.514 72.1573 127.003 69.498C129.38 66.9564 142.193 65.898 145.226 70.4402Z" fill="#F6597B"/>
<path fill-rule="evenodd" clip-rule="evenodd" d="M141.366 88.082C141.306 89.6395 141.625 91.6402 141.848 93.6626C139.861 93.94 138.618 94.1011 136.41 94.1988C136.857 93.2069 140.288 88.8073 141.366 88.082Z" fill="#F66161"/>
<path fill-rule="evenodd" clip-rule="evenodd" d="M131.476 65.938L131.456 67.7543L131.193 67.9806C130.172 69.0964 131.301 71.3636 132.474 71.2861C135.44 71.4116 137.7 68.9538 136.799 67.6334L136.409 67.2026L136.305 64.6347C136.458 64.6254 137.567 63.9807 137.899 63.8769C138.229 63.7715 138.712 63.1268 138.74 62.4496C138.767 61.7724 137.728 61.9986 137.728 61.9986C138.977 60.2552 140.398 58.8279 138.533 57.2782C136.669 55.7285 132.406 54.8467 132.406 54.8467L129.838 53.9727C130.169 54.8591 130.07 56.7621 129.426 58.6156C128.509 61.2517 129.279 64.8377 131.476 65.938Z" fill="#F7AAAC"/>
<path fill-rule="evenodd" clip-rule="evenodd" d="M135.1 65.002C135.1 65.002 133.668 67.5094 132.479 67.7434C131.29 67.9774 131.897 67.8069 131.453 67.7558L131.475 65.9395C132.295 66.0666 133.097 65.9969 135.1 65.002Z" fill="#EA8287"/>
<path fill-rule="evenodd" clip-rule="evenodd" d="M101.572 80.6589C102.078 80.538 102.602 80.9239 102.744 81.5205C102.886 82.1187 102.591 82.7014 102.087 82.8223C101.581 82.9432 101.057 82.5573 100.915 81.9606C100.773 81.3624 101.066 80.7798 101.572 80.6589Z" fill="white"/>
<path fill-rule="evenodd" clip-rule="evenodd" d="M109.017 86.5684H127.477V87.0054C127.477 87.2456 127.281 87.4424 127.042 87.4424H109.451C109.212 87.4424 109.016 87.2456 109.016 87.0054V86.5684H109.017Z" fill="#3D7DDA"/>
<path fill-rule="evenodd" clip-rule="evenodd" d="M101.532 75.0215H116.067C116.641 75.0215 117.002 75.5081 117.11 76.0815L119.106 86.7978H102.632L100.636 75.9358C100.545 75.4399 101.039 75.0215 101.532 75.0215Z" fill="#3D7DDA"/>
<path fill-rule="evenodd" clip-rule="evenodd" d="M101.033 75.0215H115.569C116.143 75.0215 116.503 75.5081 116.611 76.0815L118.469 85.9888H118.493L118.612 86.7157C118.677 87.1093 118.287 87.4425 117.889 87.4425H102.83C102.432 87.4425 102.166 87.1108 102.107 86.7157L102.017 86.119L100.136 75.9343C100.046 75.4399 100.54 75.0215 101.033 75.0215Z" fill="#71BDF8"/>
<path fill-rule="evenodd" clip-rule="evenodd" d="M108.694 80.5975C109.041 80.5138 109.4 80.7788 109.497 81.1879C109.594 81.597 109.392 81.9969 109.047 82.0805C108.7 82.1642 108.34 81.8992 108.243 81.4901C108.146 81.0794 108.348 80.6796 108.694 80.5975Z" fill="#EDF8FD"/>
<path fill-rule="evenodd" clip-rule="evenodd" d="M144.953 70.6146C150.152 72.9469 144.508 82.7768 143.582 86.7658C142.677 90.4867 124.488 87.5794 121.305 87.443C121.535 86.7534 123.745 85.7306 125.263 85.3323C126.29 85.0626 128.021 85.8917 129.358 85.6267C135.701 84.3653 139.17 84.872 139.197 84.6349C139.393 79.8463 140.952 74.4641 143.562 71.2949C143.801 71.0036 144.566 70.441 144.953 70.6146Z" fill="#F7AAAC"/>
<path fill-rule="evenodd" clip-rule="evenodd" d="M134.773 58.6604C134.773 58.6604 130.866 58.7921 129.41 57.5245C126.356 54.8868 128.214 48.5965 136.023 50.9258C142.236 52.7792 139.194 58.9084 147.28 61.4468C150.276 62.3875 149.92 63.8954 147.291 64.9182C149.085 65.5551 147.351 67.3187 145.691 67.1064C148.854 69.651 142.006 71.6316 136.99 67.9494C134.104 65.8232 139.177 59.3237 134.773 58.6604Z" fill="#1F3E7A"/>
<path fill-rule="evenodd" clip-rule="evenodd" d="M103.41 136.342C103.41 136.342 100.199 137.309 100.267 138.33C100.401 140.393 111.739 139.35 111.805 139.28C112.24 138.817 112.311 136.787 111.83 136.058C111.473 135.517 106.878 137.899 103.41 136.342Z" fill="#1F3E7A"/>
<path fill-rule="evenodd" clip-rule="evenodd" d="M119.321 139.048C119.392 140.362 124.115 139.984 124.827 139.591C125.883 139.005 124.597 135.207 124.199 135.665C124.199 135.665 122.968 137.613 121.512 137.22C120.056 136.826 120.566 136.392 120.318 136.885C119.85 137.81 119.256 137.838 119.321 139.048Z" fill="#1F3E7A"/>
<path d="M94.2186 90.957H91.2461V139.339H94.2186V90.957Z" fill="#9CC1F4"/>
<path fill-rule="evenodd" clip-rule="evenodd" d="M84.8711 87.2852H134.33V91.2788H84.8711C83.7775 91.2788 82.8828 90.3799 82.8828 89.2812C82.8828 88.184 83.7775 87.2852 84.8711 87.2852Z" fill="#C9DBF5"/>
<path fill-rule="evenodd" clip-rule="evenodd" d="M132.353 87.2852H160.591C161.685 87.2852 162.579 88.184 162.579 89.2827C162.579 90.3815 161.685 91.2803 160.591 91.2803H147.993V139.34H145.465H144.874V91.2788H132.352C131.258 91.2788 130.363 90.3799 130.363 89.2812C130.365 88.1824 131.26 87.2852 132.353 87.2852Z" fill="#9CC1F4"/>
</g>
<defs>
<clipPath id="clip0_739_176">
<rect width="210" height="140" fill="white"/>
</clipPath>
</defs>
</svg>
