<svg width="194" height="156" viewBox="0 0 194 156" fill="none" xmlns="http://www.w3.org/2000/svg">
<g clip-path="url(#clip0_739_262)">
<path d="M194 2.94727V2.9574L193.766 2.94727H194Z" fill="white"/>
<path d="M193.767 2.94727L193.543 2.9574V2.94727H193.767Z" fill="white"/>
<path d="M92.9985 155.99C144.36 155.99 185.997 153.776 185.997 151.045C185.997 148.314 144.36 146.1 92.9985 146.1C41.6368 146.1 0 148.314 0 151.045C0 153.776 41.6368 155.99 92.9985 155.99Z" fill="#DCEFFE"/>
<path d="M78.5304 148.035C141.331 153.132 181.336 124.779 164.27 106.864C151.649 93.6095 163.995 90.9242 159.152 80.4566C154.524 70.4755 135.969 66.5337 138.783 43.2375C141.596 19.9414 113.387 19.5361 98.9611 7.93362C84.5148 -3.65872 55.9893 -3.35472 45.7434 14.2364C39.6876 24.6331 47.5683 39.5389 34.7736 44.3623C21.9687 49.1756 16.963 73.4952 27.6983 83.071C38.4336 92.6468 -2.78467 117.108 15.6274 134.537C26.7196 145.035 55.6019 146.17 78.5304 148.035Z" fill="#F7F8FB"/>
<path d="M113.428 35.821L113 35.365C113.449 34.9496 113.907 34.5139 114.346 34.0781L114.794 34.524C114.346 34.9597 113.887 35.3954 113.428 35.821Z" fill="#F492BB"/>
<path d="M12.3447 106.561C11.631 105.477 10.9785 104.383 10.4076 103.288L10.9683 102.994C11.5393 104.068 12.1815 105.153 12.8748 106.217L12.3447 106.561ZM8.807 99.8328C8.33803 98.6371 7.94043 97.411 7.63458 96.2052L8.24628 96.0532C8.55213 97.2387 8.93954 98.4344 9.39831 99.5998L8.807 99.8328ZM6.94132 92.4559C6.81898 91.3919 6.75781 90.3076 6.75781 89.2437C6.75781 89.041 6.75781 88.8485 6.76801 88.6458L7.4001 88.6559C7.4001 88.8485 7.3899 89.041 7.3899 89.2335C7.3899 90.2772 7.45107 91.3412 7.57341 92.3748L6.94132 92.4559ZM7.71614 84.9472L7.09425 84.856C7.28795 83.6299 7.56321 82.3734 7.90984 81.1371L8.51135 81.3094C8.17491 82.5152 7.90984 83.7414 7.71614 84.9472ZM38.8414 82.9408C37.7913 82.9408 36.7412 82.7686 35.7421 82.424L35.946 81.8363C37.1082 82.2315 38.3418 82.3937 39.555 82.2923L39.606 82.9104C39.3511 82.9307 39.0962 82.9408 38.8414 82.9408ZM43.3373 81.8161L43.0417 81.2587C44.102 80.7115 45.0705 79.9516 45.9269 79.0193L46.3958 79.4449C45.4885 80.438 44.4588 81.2385 43.3373 81.8161ZM32.3778 80.4684C31.4194 79.6476 30.5936 78.6444 29.9208 77.4892L30.4611 77.1751C31.1034 78.2695 31.8884 79.222 32.7856 80.0022L32.3778 80.4684ZM9.73474 77.7729L9.15363 77.5399C9.6124 76.3948 10.1527 75.2396 10.7542 74.0845L11.315 74.3682C10.7237 75.5031 10.1935 76.6481 9.73474 77.7729ZM48.5062 76.2023L47.9251 75.9692C48.3635 74.8748 48.6081 73.669 48.6387 72.4024L49.2708 72.4125C49.23 73.7602 48.9752 75.037 48.5062 76.2023ZM28.4527 73.9325C28.1367 72.7469 27.9328 71.4802 27.8614 70.1528L28.4935 70.1224C28.5648 71.4093 28.7585 72.6354 29.0644 73.7805L28.4527 73.9325ZM13.1806 71.1154L12.6505 70.781C13.303 69.7373 14.0268 68.6835 14.7812 67.6398L15.291 68.0046C14.5366 69.0381 13.8331 70.092 13.1806 71.1154ZM48.2003 68.7443C47.9047 67.5891 47.4663 66.4238 46.8954 65.2787L47.4561 65.0051C48.0474 66.1907 48.5062 67.3966 48.812 68.5923L48.2003 68.7443ZM28.6056 66.4035L27.9837 66.3326C28.1163 65.1166 28.3406 63.8601 28.6464 62.5833L29.2581 62.7252C28.9523 63.9817 28.7382 65.2179 28.6056 66.4035ZM17.6053 65.0355L17.1159 64.6404C17.9009 63.6878 18.7369 62.7252 19.6035 61.7727L20.0724 62.1881C19.2059 63.1305 18.3801 64.0932 17.6053 65.0355ZM44.9278 62.1273C44.1733 61.1343 43.3373 60.202 42.43 59.3711L42.8582 58.9151C43.7961 59.7764 44.6627 60.729 45.4375 61.7625L44.9278 62.1273ZM22.6722 59.4623L22.2236 59.0266C22.3765 58.8746 22.5294 58.7125 22.6823 58.5605C23.4674 57.7802 24.2932 57.1013 25.1393 56.5338L25.486 57.0506C24.6704 57.5978 23.8752 58.2565 23.1207 59.0063C22.978 59.1482 22.8251 59.3002 22.6722 59.4623ZM30.3286 59.1482L29.7373 58.9455C29.9106 58.4591 30.0941 57.9525 30.2878 57.4661C30.5732 56.7568 30.8995 56.0677 31.2563 55.4394L31.7966 55.7536C31.45 56.3616 31.134 57.0101 30.8587 57.6991C30.6854 58.1754 30.4917 58.6618 30.3286 59.1482ZM39.4531 57.1215C38.3622 56.4528 37.2204 55.936 36.0887 55.561L36.2824 54.9632C37.465 55.3482 38.6477 55.8853 39.7895 56.5845L39.4531 57.1215ZM28.8095 55.4496L28.626 54.8517C29.8698 54.4667 31.1646 54.2944 32.4695 54.3147L32.4593 54.9429C31.2257 54.9125 29.9921 55.0848 28.8095 55.4496ZM34.0803 52.8555L33.6521 52.3995C34.5595 51.5483 35.63 50.7985 36.8126 50.1905L37.098 50.7478C35.9664 51.3355 34.9469 52.0448 34.0803 52.8555ZM40.5643 49.4102L40.391 48.8124C41.5226 48.4881 42.7868 48.2348 44.1427 48.0321L44.2345 48.6502C42.9092 48.8428 41.6756 49.0961 40.5643 49.4102ZM72.8824 48.6502C72.1585 48.6502 71.4449 48.6502 70.7312 48.6401L70.7414 48.0118C71.9954 48.0321 73.2596 48.0321 74.534 48.0118L74.5441 48.6401C73.9834 48.6502 73.4329 48.6502 72.8824 48.6502ZM66.9285 48.559C65.6439 48.5185 64.3798 48.478 63.136 48.4273L63.1564 47.799C64.4001 47.8497 65.6643 47.8902 66.9489 47.9308L66.9285 48.559ZM78.3367 48.5388L78.3061 47.9105C79.6008 47.8497 80.8752 47.7686 82.0782 47.6673L82.1292 48.2854C80.9262 48.407 79.6518 48.4881 78.3367 48.5388ZM59.3434 48.2956C57.8448 48.2449 56.6418 48.2044 55.5509 48.1841L55.5611 47.5558C56.652 47.5761 57.855 47.6166 59.3638 47.6673L59.3434 48.2956ZM47.9863 48.2753L47.9455 47.6572C49.1179 47.5862 50.3617 47.5457 51.7584 47.5356L51.7686 48.1638C50.3821 48.174 49.1485 48.2044 47.9863 48.2753ZM85.9319 47.8902L85.8504 47.2721C87.1247 47.0999 88.3787 46.8972 89.5817 46.6743L89.7041 47.2924C88.4807 47.5254 87.2165 47.7281 85.9319 47.8902ZM93.415 46.4615L93.2621 45.8535C94.4957 45.5393 95.7089 45.1746 96.8813 44.7895L97.0852 45.3772C95.9026 45.7724 94.669 46.1372 93.415 46.4615ZM100.653 44.0295L100.409 43.4519C101.571 42.9554 102.713 42.4183 103.814 41.8407L104.11 42.3879C102.988 42.9757 101.826 43.5228 100.653 44.0295ZM107.392 40.4728L107.056 39.9458C108.106 39.2771 109.136 38.5475 110.125 37.7773L110.512 38.2739C109.503 39.044 108.463 39.7837 107.392 40.4728Z" fill="#F492BB"/>
<path d="M15.8022 111.151C15.3944 110.664 14.9866 110.178 14.6094 109.692L15.1089 109.307C15.4861 109.783 15.8837 110.269 16.2915 110.756L15.8022 111.151Z" fill="#F492BB"/>
<path d="M64.4141 18.4309L68.9508 24.3588L71.6321 22.3322L67.0953 16.4043L64.4141 18.4309ZM66.8609 18.8667C66.6366 19.0389 66.3103 18.9984 66.137 18.7653C65.9637 18.5424 66.0045 18.2181 66.239 18.0459C66.4633 17.8736 66.7895 17.9141 66.9628 18.1472C67.1361 18.3701 67.0953 18.6944 66.8609 18.8667Z" fill="white"/>
<path d="M72.3349 21.8056L76.4435 18.6947C77.9116 17.5902 78.197 15.5028 77.0756 14.0436L75.3322 11.7637C76.0663 11.2063 76.209 10.1727 75.6483 9.44316C75.0875 8.71357 74.0477 8.57171 73.3136 9.12903L69.9391 11.7535L69.6027 9.04796C69.4701 7.94345 68.1754 7.30506 67.2782 7.96372C67.268 7.97385 67.268 7.97385 67.2578 7.98398L68.053 16.2121L72.3349 21.8056Z" fill="white"/>
<path d="M111.828 35.8292L116.559 40.5411L127.681 30.4688L114.061 33.61L111.828 35.8292Z" fill="#C9D7FA"/>
<path d="M112.552 32.1002L127.681 30.4688L111.828 35.8292L112.552 32.1002Z" fill="white"/>
<path d="M127.683 30.4688L113.084 41.1694L112.023 37.2782L127.683 30.4688Z" fill="white"/>
<path d="M132.148 51.5261C132.148 53.9175 130.201 55.8529 127.795 55.8529C125.389 55.8529 123.441 53.9175 123.441 51.5261C123.441 49.1346 125.389 47.1992 127.795 47.1992C130.201 47.1992 132.148 49.1346 132.148 51.5261Z" fill="#6E4AFF"/>
<path d="M129.374 52.418C129.374 53.2489 128.691 53.9278 127.855 53.9278C127.019 53.9278 126.336 53.2489 126.336 52.418H129.374Z" fill="white"/>
<path d="M140.988 104.899L137.43 103.268L120.73 137.984L137.807 135.744C143.292 135.025 147.39 130.374 147.39 124.882V114.85C147.401 110.574 144.903 106.693 140.988 104.899ZM144.587 123.99C144.587 128.327 141.355 131.995 137.022 132.563L123.534 134.336L136.716 106.926L139.52 108.213C142.599 109.631 144.576 112.691 144.576 116.066V123.99H144.587Z" fill="#E8E6E6"/>
<path d="M147.402 114.85V115.458C147.402 111.182 144.904 107.301 141 105.507L137.442 103.876L121.058 137.943L120.742 137.984L137.442 103.268L141 104.899C144.904 106.693 147.402 110.574 147.402 114.85Z" fill="#F4F4F4"/>
<path d="M144.943 125.5C144.943 126.706 143.883 128.105 142.822 129.209C143.934 127.75 144.586 125.936 144.586 123.99V116.066C144.586 112.692 142.608 109.622 139.529 108.213L137.021 107.058L136.746 105.244C136.746 105.244 143.414 107.757 144.555 110.726C145.718 113.695 144.943 123.068 144.943 125.5Z" fill="#DBD2DB"/>
<path d="M34.7031 92.0801C34.7031 92.0801 40.5856 129.948 55.511 148.816C56.3266 149.849 57.4481 150.609 58.7123 150.994C62.3825 152.109 71.3438 154.206 86.412 154.206C102.173 154.206 111.675 152.048 115.488 150.954C116.773 150.589 117.904 149.839 118.74 148.816C122.992 143.587 136.337 124.81 139.038 92.0801H34.7031Z" fill="#E8E6E6"/>
<path d="M124.218 140.902C129.01 130.212 142.182 97.4713 118.438 102.345L128.102 92.0703H139.052C137.135 115.377 129.815 131.6 124.218 140.902Z" fill="#F4F4F4"/>
<path d="M120.862 146.039C120.026 147.204 119.313 148.127 118.752 148.816C117.916 149.839 116.784 150.589 115.5 150.954C111.677 152.048 102.175 154.206 86.4237 154.206C71.3555 154.206 62.4044 152.099 58.724 150.994C57.4598 150.609 56.3384 149.849 55.5228 148.816C40.5871 129.948 34.7148 92.0801 34.7148 92.0801H36.9781C38.5583 100.744 44.7059 130.383 57.3681 146.384C58.1837 147.417 59.3051 148.177 60.5693 148.562C64.2395 149.677 73.2008 151.775 88.269 151.775C104.03 151.775 113.532 149.616 117.345 148.522C118.63 148.157 119.761 147.407 120.597 146.374C120.679 146.262 120.76 146.151 120.862 146.039Z" fill="#DBD2DB"/>
<path d="M139.051 92.0811C139.051 93.4896 137.848 94.8373 135.646 96.0735C128.163 91.848 109.149 88.8385 86.8731 88.8385C64.5971 88.8385 45.5937 91.8379 38.1004 96.0735C35.8983 94.8373 34.6953 93.4795 34.6953 92.0811C34.6953 85.8796 58.052 80.8535 86.8629 80.8535C115.694 80.8434 139.051 85.8694 139.051 92.0811Z" fill="#AAA0A8"/>
<path d="M124.106 97.6556C124.106 98.5473 123.239 99.4086 121.669 100.199C121.384 100.341 121.068 100.483 120.741 100.625C111.627 102.307 99.801 103.31 86.8738 103.31C73.6917 103.31 61.6515 102.256 52.4658 100.523C52.2211 100.422 51.9866 100.31 51.7725 100.199C50.1923 99.4086 49.3359 98.5575 49.3359 97.6556C49.3359 93.7138 66.0761 90.5117 86.7209 90.5117C107.366 90.5117 124.106 93.7138 124.106 97.6556Z" fill="#935454"/>
<path d="M114.205 92.8107C112.451 94.3611 106.854 95.4453 104.948 94.584C101.573 93.0641 98.0052 95.0907 93.3053 93.4694C88.6054 91.8481 85.6489 96.6208 79.6135 95.496C75.1583 94.6651 71.59 99.9039 64.1987 102.184C59.927 101.738 55.9815 101.171 52.4541 100.502C52.2094 100.4 51.9749 100.289 51.7608 100.178C50.1806 99.3871 49.3242 98.536 49.3242 97.6341C49.3242 93.6923 66.0644 90.4902 86.7092 90.4902C97.5974 90.5105 107.374 91.4022 114.205 92.8107Z" fill="#7C4A4A"/>
<path d="M92.7041 94.5143C92.7041 94.6359 92.3269 94.7474 91.8579 94.7474C91.3889 94.7474 91.0117 94.646 91.0117 94.5143C91.0117 94.3927 91.3889 94.2812 91.8579 94.2812C92.3269 94.2812 92.7041 94.3927 92.7041 94.5143Z" fill="#7C4A4A"/>
<path d="M90.6017 96.2049C91.1929 96.2049 91.6722 96.0733 91.6722 95.9111C91.6722 95.7488 91.1929 95.6172 90.6017 95.6172C90.0105 95.6172 89.5312 95.7488 89.5312 95.9111C89.5312 96.0733 90.0105 96.2049 90.6017 96.2049Z" fill="#7C4A4A"/>
<path d="M101.969 95.1728C101.969 95.3349 101.49 95.4666 100.899 95.4666C100.307 95.4666 99.8281 95.3349 99.8281 95.1728C99.8281 95.0106 100.307 94.8789 100.899 94.8789C101.49 94.8789 101.969 95.0106 101.969 95.1728Z" fill="#7C4A4A"/>
<path d="M88.7576 94.929C89.0616 94.929 89.3081 94.8609 89.3081 94.777C89.3081 94.6931 89.0616 94.625 88.7576 94.625C88.4535 94.625 88.207 94.6931 88.207 94.777C88.207 94.8609 88.4535 94.929 88.7576 94.929Z" fill="#7C4A4A"/>
<path d="M95.199 95.3548C95.503 95.3548 95.7495 95.2867 95.7495 95.2028C95.7495 95.1188 95.503 95.0508 95.199 95.0508C94.8949 95.0508 94.6484 95.1188 94.6484 95.2028C94.6484 95.2867 94.8949 95.3548 95.199 95.3548Z" fill="#7C4A4A"/>
<path d="M81.5503 96.7223C81.5503 96.8034 81.3056 96.8743 80.9997 96.8743C80.6939 96.8743 80.4492 96.8034 80.4492 96.7223C80.4492 96.6412 80.6939 96.5703 80.9997 96.5703C81.3056 96.5703 81.5503 96.6412 81.5503 96.7223Z" fill="#7C4A4A"/>
<path d="M85.4839 97.3512C85.4839 97.4323 85.2392 97.5032 84.9333 97.5032C84.6275 97.5032 84.3828 97.4323 84.3828 97.3512C84.3828 97.2702 84.6275 97.1992 84.9333 97.1992C85.2392 97.2094 85.4839 97.2702 85.4839 97.3512Z" fill="#7C4A4A"/>
<path d="M85.7289 96.085C85.7289 96.1356 85.5964 96.166 85.423 96.166C85.2497 96.166 85.1172 96.1255 85.1172 96.085C85.1172 96.0343 85.2497 96.0039 85.423 96.0039C85.5964 96.0039 85.7289 96.0444 85.7289 96.085Z" fill="#7C4A4A"/>
<path d="M87.2367 97.8154C87.2367 97.8661 87.1042 97.8965 86.9308 97.8965C86.7575 97.8965 86.625 97.856 86.625 97.8154C86.625 97.7648 86.7575 97.7344 86.9308 97.7344C87.1042 97.7344 87.2367 97.7749 87.2367 97.8154Z" fill="#7C4A4A"/>
<path d="M90.7054 95.1826C90.7054 95.2333 90.5729 95.2637 90.3996 95.2637C90.2263 95.2637 90.0938 95.2232 90.0938 95.1826C90.0938 95.132 90.2263 95.1016 90.3996 95.1016C90.5729 95.1016 90.7054 95.132 90.7054 95.1826Z" fill="#7C4A4A"/>
<path d="M94.134 96.9356C94.3029 96.9356 94.4398 96.8993 94.4398 96.8545C94.4398 96.8097 94.3029 96.7734 94.134 96.7734C93.9651 96.7734 93.8281 96.8097 93.8281 96.8545C93.8281 96.8993 93.9651 96.9356 94.134 96.9356Z" fill="#7C4A4A"/>
<path d="M97.1887 96.0235C97.3576 96.0235 97.4945 95.9872 97.4945 95.9424C97.4945 95.8976 97.3576 95.8613 97.1887 95.8613C97.0197 95.8613 96.8828 95.8976 96.8828 95.9424C96.8828 95.9872 97.0197 96.0235 97.1887 96.0235Z" fill="#7C4A4A"/>
<path d="M139.049 92.0811C139.049 93.4896 137.846 94.8373 135.643 96.0735C132.503 97.8468 127.335 99.4074 120.738 100.623C121.075 100.481 121.381 100.34 121.666 100.198C123.236 99.4073 124.103 98.5562 124.103 97.6543C124.103 93.7125 107.363 90.5104 86.7178 90.5104C66.073 90.5104 49.3431 93.7125 49.3431 97.6543C49.3431 98.546 50.2097 99.4073 51.7797 100.198C52.004 100.309 52.2283 100.421 52.4729 100.522C46.1419 99.3263 41.1667 97.8063 38.1082 96.0735C35.9061 94.8373 34.7031 93.4795 34.7031 92.0811C34.7031 85.8796 58.0598 80.8535 86.8708 80.8535C115.692 80.8434 139.049 85.8694 139.049 92.0811Z" fill="#CECCCE"/>
<path d="M57.7641 93.6196L56.3877 96.3657L49.1391 86.5264C48.6905 85.9184 48.5784 85.128 48.8333 84.4187L49.8834 81.5003L53.7167 78.9062L53.5841 83.9323L53.0846 84.824L57.7641 93.6196Z" fill="#FEAC84"/>
<path d="M55.163 89C54.5513 92.4554 53.5522 91.6853 52.9915 90.905C52.4307 90.1146 54.011 92.9114 54.011 92.9114L55.4383 94.6847L55.163 89Z" fill="#E87979"/>
<path d="M56.6534 95.8306L56.3781 96.3676L49.0683 86.5283C48.6198 85.9203 48.4974 85.13 48.7523 84.4206L49.8126 81.5023L53.6765 78.9082L53.6663 79.3642L50.4854 81.4922L49.4252 84.4105C49.1703 85.1198 49.2824 85.9102 49.7412 86.5182L56.6534 95.8306Z" fill="#E87979"/>
<path d="M87.4941 52.3878L86.5255 62.0751C86.4644 62.7135 86.1585 63.3013 85.6692 63.7269L79.6032 69.0062L76.9219 67.7092L78.5327 64.6692L83.3549 61.6698L85.557 52.1953L87.4941 52.3878Z" fill="#FEAC84"/>
<path d="M87.4941 52.3894L86.5255 62.0767C86.4644 62.7151 86.1585 63.3028 85.6692 63.7284L79.6032 69.0078L76.9219 67.7107L77.2787 67.042L79.5522 68.1465L85.6182 62.857C86.0974 62.4314 86.4134 61.8436 86.4746 61.2053L87.3615 52.3691L87.4941 52.3894Z" fill="#E87979"/>
<path d="M80.3253 68.8458L72.1694 74.7939L71.7106 89.7201L58.4571 88.7372L56.3876 79.4755L53.951 83.853C53.8286 84.0658 53.5534 84.1469 53.3393 84.0151L49.7506 81.9176C49.5467 81.796 49.4754 81.5426 49.5773 81.34L53.5126 73.6692C54.2568 72.0985 55.7351 71.0041 57.458 70.7407L69.7736 68.0351C70.2425 67.9338 70.7013 67.7919 71.1499 67.6095L78.3679 64.6C78.5208 64.5392 78.6941 64.6101 78.7553 64.752L80.4171 68.4911C80.4783 68.6127 80.4375 68.7546 80.3253 68.8458Z" fill="#00001C"/>
<path d="M55.4922 81.0458L57.7147 75.959C57.7147 75.959 57.6127 84.9471 64.9123 85.3018C72.2119 85.6564 58.7852 86.1124 58.7852 86.1124L57.6739 85.474L56.3893 79.4549L55.4922 81.0458Z" fill="#4D4D5C"/>
<path d="M64.5049 66.717L64.6782 69.5847C64.7496 70.8412 63.8321 71.9356 62.5781 72.0977C61.3955 72.2396 60.2842 71.51 59.9682 70.365L58.6836 65.7949L64.5049 66.717Z" fill="#EA9378"/>
<path d="M64.6273 68.0957C63.7097 69.3116 60.4167 69.3522 59.5298 68.5922L58.6836 66.5352L64.6578 67.7106L64.6273 68.0957Z" fill="#E87979"/>
<path d="M64.0447 58.6507C64.0447 58.6507 67.3377 65.4298 64.6564 67.7098C61.9752 69.9897 58.6822 67.1727 58.6822 67.1727C58.6822 67.1727 55.6135 64.5887 56.8471 61.6096C58.0705 58.6406 60.9047 58.1035 62.0567 58.1035C63.2087 58.1136 64.0447 58.6507 64.0447 58.6507Z" fill="#FEAC84"/>
<path d="M64.6037 60.1709C63.0745 62.8056 59.8019 63.7277 57.508 62.9677C55.2141 62.2077 57.2531 60.7384 57.2531 60.7384L58.9863 59.9277L64.6037 60.1709Z" fill="#E87979"/>
<path d="M57.4605 62.2281C60.7534 64.1331 64.8926 60.171 64.8926 60.171C64.8926 60.171 64.862 58.5295 63.4347 57.5871C61.3651 56.2191 58.6125 57.2831 56.7672 58.4991C56.0434 58.9753 55.7477 59.8468 55.656 60.7182C55.5132 62.0963 55.87 63.4744 56.6041 64.6499L57.8377 66.3523L57.4605 62.2281Z" fill="#4E3654"/>
<path d="M57.7354 64.1138C56.6038 63.4248 56.6038 65.036 57.0727 65.5831C57.5927 66.181 58.0311 66.1303 58.0311 66.1303L57.7354 64.1138Z" fill="#FEAC84"/>
<path d="M58.4596 104.331C63.9751 105.547 76.4639 103.267 76.4639 103.267L78.1461 99.6088L58.6839 97.6328L56.543 98.6968L58.4596 104.331Z" fill="#7877ED"/>
<path d="M58.5273 100.733C60.5154 102.202 69.5073 102.202 72.0663 101.848C74.615 101.493 76.2564 100.581 76.2564 100.581L64.6137 97.4297L58.5273 100.733Z" fill="#6173C1"/>
<path d="M55.3181 120.139L55.2773 122.49L57.8465 122.004L57.6935 119.906L55.3181 120.139Z" fill="#FEAC84"/>
<path d="M80.9492 120.372L81.1735 122.49L83.7324 122.004L83.3552 120.068L80.9492 120.372Z" fill="#FEAC84"/>
<path d="M57.8451 122.004L57.8757 125.155C57.8757 125.155 52.2583 130.637 50.6271 128.813C49.6994 127.779 51.0757 126.685 52.768 124.952C54.0628 123.625 55.0925 121.852 55.0925 121.852L57.8451 122.004Z" fill="#4E3654"/>
<path d="M81.0814 122.004L81.0508 125.155C81.0508 125.155 86.8721 130.434 88.5033 128.61C89.431 127.577 87.8508 126.695 86.1585 124.952C84.8637 123.625 83.834 121.852 83.834 121.852L81.0814 122.004Z" fill="#4E3654"/>
<path d="M88.566 128.539C87.0062 130.536 81.0625 125.145 81.0625 125.145L81.0931 121.993L81.7558 121.963L81.7456 122.784C81.7354 124.071 82.3267 125.287 83.3462 126.077C84.906 127.283 87.2305 128.833 88.566 128.539Z" fill="#403144"/>
<path d="M55.8462 85.3008H77.4493C77.9183 85.3008 78.2955 85.6757 78.2955 86.1418V99.852C78.2955 100.318 77.9183 100.693 77.4493 100.693H55.8462C55.3772 100.693 55 100.318 55 99.852V86.1317C55.0102 85.6757 55.3874 85.3008 55.8462 85.3008Z" fill="#FCC0AA"/>
<path d="M78.2955 97.6337V99.8427C78.2955 100.309 77.9183 100.684 77.4493 100.684H55.8462C55.3772 100.684 55 100.309 55 99.8427V94.5938L55.4384 94.6951C57.2531 95.6071 59.1901 100.177 63.5842 100.177C66.6223 100.177 70.5779 100.177 74.3093 98.6065C75.7569 97.9884 77.1435 97.3297 78.2955 97.6337Z" fill="#AAA0A8"/>
<path d="M59.0704 102.375L57.8674 120.99L55.1046 120.838L53.2083 102.254C53.1166 101.301 53.5142 100.379 54.2686 99.7812C55.4104 98.8794 57.0518 98.9908 58.0713 100.035L58.2752 100.247C58.8258 100.815 59.1214 101.585 59.0704 102.375Z" fill="#7877ED"/>
<path d="M83.6089 120.625L80.8562 120.777L77.0739 103.216L76.7171 103.317L72.6289 103.875L77.2982 99.6591C78.2056 98.504 79.9183 98.2304 81.0703 99.1525C81.1315 99.2032 81.1825 99.2437 81.2335 99.2944C81.7942 99.8111 82.1306 100.52 82.1816 101.28L83.6089 120.625Z" fill="#7877ED"/>
<path d="M68.0339 93.368C68.0339 94.128 67.412 94.736 66.6576 94.736C65.9031 94.736 65.2812 94.1178 65.2812 93.368C65.2812 92.608 65.9031 92 66.6576 92C67.412 92 68.0339 92.6181 68.0339 93.368Z" fill="#4E3654"/>
<path d="M85.5044 52.399L85.6063 50.4635C85.6063 50.3723 85.6675 50.2812 85.7388 50.2305L86.9418 49.4705C87.0744 49.3894 87.2477 49.4198 87.3394 49.5516C87.4006 49.6326 87.5026 49.6833 87.6045 49.6732L88.4099 49.6022C88.5628 49.5921 88.7056 49.7036 88.726 49.8556L89.0522 52.0342C89.0726 52.1963 88.9604 52.3483 88.7973 52.3686L85.8204 52.7131C85.6573 52.7334 85.4942 52.5814 85.5044 52.399Z" fill="#FEAC84"/>
<path d="M135.104 70.1422L135.318 68.4804C135.461 67.3353 134.584 66.322 133.422 66.2916L133.024 66.2815C132.606 66.2713 132.26 66.626 132.29 67.0414L132.351 67.923C132.086 68.0953 132.015 68.45 132.188 68.7235L132.953 69.9091L135.104 70.1422Z" fill="#FEAC84"/>
<path d="M92.9487 52.5513L92.8467 50.6159C92.8467 50.5247 92.7856 50.4335 92.7142 50.3828L91.5112 49.6228C91.3787 49.5418 91.2053 49.5722 91.1136 49.7039C91.0524 49.785 90.9505 49.8356 90.8485 49.8255L90.0431 49.7546C89.8902 49.7444 89.7475 49.8559 89.7271 50.0079L89.4008 52.1865C89.3804 52.3487 89.4926 52.5007 89.6557 52.5209L92.6326 52.8655C92.7958 52.8857 92.9589 52.7337 92.9487 52.5513Z" fill="#FEAC84"/>
<path d="M87.4142 49.6035C87.4142 49.6035 87.7813 50.6168 87.5672 50.779C87.3225 50.9614 86.9249 50.9816 86.8025 50.4952C86.8025 50.4952 86.7516 50.9512 86.9555 50.9816L87.3531 52.5523L87.4652 52.5421L87.2103 51.0019C87.2103 51.0019 87.8016 51.0019 87.8016 50.6168C87.8016 50.2318 87.5977 49.6744 87.5977 49.6744L87.4142 49.6035Z" fill="#E87979"/>
<path d="M87.2617 51.6602C87.4452 52.4201 88.1793 52.3391 89.0662 51.9844L89.0866 52.0756C89.1172 52.2175 89.0153 52.3593 88.8725 52.3695L87.4656 52.5417L87.2617 51.6602Z" fill="#E87979"/>
<path d="M91.2899 49.5625C91.2899 49.5625 90.8719 50.819 91.086 50.9811C91.3307 51.1635 91.7283 51.1838 91.8507 50.6974C91.8507 50.6974 91.9016 51.1534 91.6977 51.1838L91.3001 52.7544L91.188 52.7443L91.4429 51.2041C91.4429 51.2041 90.8516 51.2041 90.8516 50.819C90.8516 50.434 91.1064 49.6436 91.1064 49.6436L91.2899 49.5625Z" fill="#E87979"/>
<path d="M91.3991 51.8008C91.2155 52.5608 90.298 52.4493 89.4008 52.0946L89.3804 52.1858C89.3499 52.3277 89.4518 52.4696 89.5945 52.4797L91.185 52.733L91.3991 51.8008Z" fill="#E87979"/>
<path d="M135.138 69.7676L134.302 80.3365C134.251 80.985 133.956 81.5828 133.466 82.0084C132.386 82.9711 130.714 82.8191 129.817 81.6842L125.871 76.6987L124.413 86.5177L109.549 87.4297L109.804 74.2363L97.2742 65.5826C96.6829 65.1874 96.2343 64.6199 95.959 63.9714L91.3203 52.7135L92.8496 52.1055L99.3132 62.0157L106.919 66.4743C108.009 67.1127 109.314 67.2748 110.538 66.9303L110.772 66.8594C110.772 66.8594 115.299 65.3698 118.888 65.6434C119.876 65.7143 122.038 66.373 123.965 67.0215C126.269 67.7916 128.165 69.4534 129.215 71.6422L131.417 76.2528L132.875 69.6054L135.138 69.7676Z" fill="#57547F"/>
<path d="M132.844 82.3522V82.413C132.508 82.565 132.151 82.646 131.794 82.646C131.05 82.646 130.316 82.3218 129.816 81.6935L125.871 76.708L124.413 86.527L119.02 86.8817C117.603 86.4966 116.777 86.0102 118.541 85.5137C122.374 84.4497 125.432 74.043 125.432 74.043C125.585 75.0056 128.45 79.9303 129.011 79.373C129.51 78.8765 130.581 77.4882 130.815 77.1944C130.703 77.3565 130.356 77.9138 129.989 79.069C129.52 80.4775 130.295 82.9095 132.844 82.3522Z" fill="#474763"/>
<path d="M109.965 74.2874L97.282 65.583C96.6907 65.1878 96.2421 64.6203 95.9668 63.9718L91.3281 52.7139L91.5422 52.6328L95.926 63.2625C96.1911 63.9212 96.6499 64.4785 97.2412 64.8737L109.924 73.5781L109.965 74.2874Z" fill="#474763"/>
<path d="M108.792 102.659C114.307 103.875 125.491 101.747 125.491 101.747L127.173 98.0893L107.711 96.1133L105.57 97.1773L108.792 102.659Z" fill="#7877ED"/>
<path d="M106.793 97.4828C110.545 99.3878 121.882 102.053 123.951 102.053C123.951 102.053 124.991 99.246 125.909 98.486C126.826 97.726 123.329 95.4258 123.329 95.4258L106.793 97.4828Z" fill="#6173C1"/>
<path d="M106.13 121.234L106.64 122.764L104.244 123.271L103.836 121.447L106.13 121.234Z" fill="#FEAC84"/>
<path d="M124.461 120.98L124.359 122.764L126.765 123.271V121.183L124.461 120.98Z" fill="#FEAC84"/>
<path d="M110.53 66.211C111.926 69.7171 115.229 71.7944 117.676 70.9837C120.123 70.1731 120.439 63.6777 118.9 62.2489C117.37 60.8303 109 62.3503 110.53 66.211Z" fill="#FEAC84"/>
<path d="M117.776 62.552C115.115 66.8181 109.763 67.1221 109.763 67.1221C109.763 67.1221 109.202 62.9574 111.139 61.2347C113.076 59.5121 115.492 58.6001 117.419 59.5121C120.233 60.8294 119.713 65.9061 119.713 65.9061L117.776 62.552Z" fill="#D83A64"/>
<path d="M104.113 85.4531H127.398C128.03 85.4531 128.55 85.9598 128.55 86.5982V97.5622C128.55 98.1905 128.041 98.7073 127.398 98.7073H104.113C103.481 98.7073 102.961 98.2006 102.961 97.5622V86.588C102.961 85.9598 103.481 85.4531 104.113 85.4531Z" fill="#FCC0AA"/>
<path d="M128.55 94.787V97.5533C128.55 98.1816 128.041 98.6984 127.398 98.6984H104.113C103.481 98.6984 102.961 98.1816 102.961 97.5533V94.9593C107.508 94.6249 110.189 98.0093 114.451 97.8573C118.743 97.7053 122.566 98.2323 124.635 97.1683C126.705 96.1043 127.205 95.091 128.469 94.7363L128.55 94.787Z" fill="#AAA0A8"/>
<path d="M118.182 93.5203C118.182 94.2803 117.56 94.8883 116.806 94.8883C116.041 94.8883 115.43 94.2702 115.43 93.5203C115.43 92.7603 116.052 92.1523 116.806 92.1523C117.571 92.1523 118.182 92.7705 118.182 93.5203Z" fill="#4E3654"/>
<path d="M108.784 102.66L104.645 102.255L106.276 121.345L103.524 122.257L98.3242 102.447C98.1203 101.657 98.1305 100.826 98.365 100.046L98.5078 99.5693C99.1398 97.4818 101.199 96.1139 103.371 96.4381C103.381 96.4381 103.401 96.4381 103.412 96.4483L111.078 98.708L108.784 102.66Z" fill="#7877ED"/>
<path d="M124.218 100.867L125.074 99.0531C125.451 98.2424 126.144 97.6142 127.001 97.3507C127.888 97.0771 128.907 97.0873 129.662 97.4318C130.865 97.9993 131.537 99.2963 131.303 100.593L127.531 121.843L124.309 121.61L123.891 102.387C123.881 101.87 123.993 101.343 124.218 100.867Z" fill="#7877ED"/>
<path d="M87.4142 49.6016C87.4142 49.6016 87.7813 50.6149 87.5672 50.777C87.3225 50.9594 86.9249 50.9797 86.8025 50.4933C86.8025 50.4933 86.7516 50.9493 86.9555 50.9797L87.3531 52.5503L87.4652 52.5402L87.2103 50.9999C87.2103 50.9999 87.8016 50.9999 87.8016 50.6149C87.8016 50.2298 87.5977 49.6725 87.5977 49.6725L87.4142 49.6016Z" fill="#E87979"/>
<path d="M87.2578 51.6602C87.4413 52.4201 88.1754 52.3391 89.0623 51.9844L89.0827 52.0756C89.1133 52.2175 89.0113 52.3593 88.8686 52.3695L87.4617 52.5417L87.2578 51.6602Z" fill="#E87979"/>
<path d="M57.8694 125.144C57.8694 125.144 52.252 130.626 50.6208 128.792C49.9377 128.032 50.4984 127.252 51.5077 126.198C51.4364 128.083 53.8628 128.154 57.6145 124.374C57.6961 124.293 57.7776 124.212 57.8592 124.131L57.8694 125.144Z" fill="#403144"/>
<path d="M31.9524 149.787C22.3182 133.595 28.0987 111.656 28.0987 111.656C28.0987 111.656 43.6868 116.703 51.0476 149.787H31.9524Z" fill="#3DB390"/>
<path d="M40.7091 149.787C36.7432 133.068 20.625 127.383 20.625 127.383C20.625 127.383 21.3285 141.894 28.0979 149.787H40.7091Z" fill="#3DB390"/>
<path d="M44.3918 149.787C40.8848 134.932 35.2266 127.504 35.2266 127.504C35.2266 127.504 41.7615 142.015 42.465 149.787H44.3918Z" fill="#218164"/>
<path d="M36.4571 149.789L27.1797 135.207L34.4487 149.789H36.4571Z" fill="#218164"/>
<path d="M25.6519 149.817L20.0039 142.309L24.5611 149.898L25.6519 149.817Z" fill="#218164"/>
<path d="M143.719 151.155C143.719 151.155 148.041 142.025 152.639 139.674C152.639 139.674 147.98 145.115 145.482 151.155H143.719Z" fill="#3DB390"/>
<path d="M156.269 151.155C158.95 148.237 157.635 144.619 157.635 144.619C157.635 144.619 151.1 147.183 149.887 151.155H156.269Z" fill="#3DB390"/>
<path d="M152.559 151.154L155.219 147.992L153.598 151.154H152.559Z" fill="#218164"/>
<path d="M140.632 151.156C148.074 143.06 144.425 133.008 144.425 133.008C144.425 133.008 126.308 140.131 122.934 151.156H140.632Z" fill="#3DB390"/>
<path d="M130.336 151.157L137.727 142.402L133.231 151.157H130.336Z" fill="#218164"/>
<path d="M111.414 146.688C117.317 129.796 137.544 126.168 137.544 126.168C137.544 126.168 132.905 145.299 124.617 151.156H110.711L111.414 146.688Z" fill="#3DB390"/>
<path d="M115.438 151.156C115.438 151.156 121.432 138.499 127.794 135.236C127.794 135.236 121.33 142.775 117.864 151.156H115.438Z" fill="#218164"/>
<path d="M53.1992 149.787C57.1651 133.068 73.2833 127.383 73.2833 127.383C73.2833 127.383 72.5799 141.894 65.8104 149.787H53.1992Z" fill="#3DB390"/>
<path d="M57.4375 149.789L66.7251 135.207L59.4561 149.789H57.4375Z" fill="#218164"/>
</g>
<defs>
<clipPath id="clip0_739_262">
<rect width="194" height="156" fill="white"/>
</clipPath>
</defs>
</svg>
