<svg width="166" height="154" viewBox="0 0 166 154" fill="none" xmlns="http://www.w3.org/2000/svg">
<path d="M25.3546 153.612C25.3546 153.612 2.78627 131.462 0.371618 98.1002C-2.63166 56.6024 12.7027 34.6159 41.5054 30.1777C50.3448 28.8152 62.0454 19.5966 74.2262 8.26705C98.81 -14.6001 168.628 9.6789 152.54 84.7537C144.972 120.071 175.922 118.095 161.789 153.688L25.3546 153.612Z" fill="#FAFAFC"/>
<path d="M109.664 138.172C109.664 138.172 106.896 130.966 112.577 129.036C112.577 129.036 116.514 128.225 119.099 129.325C119.099 129.325 113.125 134.279 114.114 135.336C115.104 136.393 120.373 129.335 120.373 129.335C120.373 129.335 128.001 131.243 129.967 133.229C129.967 133.229 121.831 136.152 123.049 136.932C124.267 137.712 132.874 135.064 132.874 135.064C132.874 135.064 139.322 138.677 137.469 142.739C135.615 146.801 132.792 147.254 131.792 146.773C130.792 146.293 125.538 141.804 125.103 142.61C124.668 143.416 127.338 147.505 129.855 148.548C129.855 148.548 123.121 152.17 120.452 149.483C117.784 146.796 118.377 144.254 116.698 142.624C115.019 140.994 113.308 140.387 113.803 141.616C114.299 142.845 117.604 145.046 118.029 147.484C118.455 149.923 118.998 151.659 115.849 149.973C112.7 148.288 108.158 143.925 108.911 141.048C109.664 138.172 109.664 138.172 109.664 138.172Z" fill="#25A36E"/>
<path d="M134.054 141.651C134.054 141.651 115.671 134.298 109.66 138.172C109.66 138.172 107.781 140.579 104.098 142.068L103.238 143.105C103.238 143.105 107.678 140.844 108.907 141.049C108.908 141.049 109.447 133.792 134.054 141.651Z" fill="#378D4A"/>
<path d="M104.099 142.069C104.099 142.069 99.0474 143.609 96.8906 148.805L97.5932 149.128C97.5932 149.128 100.813 144.107 103.882 142.788C106.952 141.471 104.099 142.069 104.099 142.069Z" fill="#599DAD"/>
<path d="M66.3335 111.083C66.3335 111.083 69.9163 107.881 67.3194 105.191C67.3194 105.191 65.3694 103.617 63.6245 103.489C63.6245 103.489 65.5234 107.938 64.6751 108.241C63.8268 108.544 62.9156 103.13 62.9156 103.13C62.9156 103.13 58.1483 102.01 56.4935 102.549C56.4935 102.549 60.1684 106.49 59.2718 106.574C58.3751 106.658 54.3614 102.736 54.3614 102.736C54.3614 102.736 49.7626 102.896 49.6332 105.675C49.5038 108.454 50.9389 109.511 51.6296 109.53C52.3203 109.549 56.5072 108.563 56.519 109.133C56.5309 109.704 53.8884 111.207 52.1982 111.066C52.1982 111.066 54.8971 114.994 57.1396 114.268C59.382 113.542 59.7766 111.964 61.1707 111.54C62.5648 111.117 63.6855 111.269 63.0605 111.808C62.4363 112.348 59.9797 112.623 59.0503 113.853C58.1209 115.082 57.3264 115.889 59.5497 115.853C61.773 115.819 65.5307 114.699 65.9316 112.891C66.3335 111.083 66.3335 111.083 66.3335 111.083Z" fill="#46B159"/>
<path d="M51.832 106.047C51.832 106.047 64.1057 107.221 66.3327 111.082C66.3327 111.082 66.689 112.951 68.3054 114.827L68.4867 115.647C68.4867 115.647 66.6707 113.127 65.9318 112.89C65.9318 112.89 67.6976 108.716 51.832 106.047Z" fill="#378D4A"/>
<path d="M68.3047 114.828C68.3047 114.828 70.6647 117.122 70.3813 120.616L69.9002 120.595C69.9002 120.595 69.5448 116.895 68.22 115.289C66.8951 113.682 68.3047 114.828 68.3047 114.828Z" fill="#46B159"/>
<path d="M104.594 120.443C104.594 120.443 92.3814 112.059 99.2709 102.81C99.2709 102.81 104.619 97.2318 109.905 96.153C109.905 96.153 105.839 110.509 108.552 111.101C111.266 111.693 111.932 94.7777 111.932 94.7777C111.932 94.7777 126.074 89.4789 131.346 90.4764C131.346 90.4764 121.65 103.974 124.425 103.88C127.201 103.785 137.942 90.209 137.942 90.209C137.942 90.209 152.07 88.893 153.554 97.3422C155.038 105.792 151.063 109.589 148.957 109.918C146.852 110.246 133.658 108.875 133.846 110.625C134.034 112.374 142.705 115.933 147.82 114.838C147.82 114.838 141.103 127.913 133.96 126.572C126.817 125.231 124.991 120.562 120.562 119.813C116.132 119.065 112.765 119.972 114.886 121.377C117.007 122.782 124.628 122.658 127.953 126.053C131.278 129.447 134.024 131.602 127.209 132.369C120.394 133.137 108.464 131.188 106.529 125.816C104.594 120.443 104.594 120.443 104.594 120.443Z" fill="#25A36E"/>
<path d="M146.972 99.3438C146.972 99.3438 109.891 107.758 104.592 120.442C104.592 120.442 104.235 126.3 100.026 132.673L99.793 135.251C99.793 135.251 104.36 126.831 106.527 125.815C106.528 125.815 99.4914 113.743 146.972 99.3438Z" fill="#378D4A"/>
<path d="M100.027 132.673C100.027 132.673 93.7071 140.619 95.9441 151.193L97.4084 150.938C97.4084 150.938 97.0457 139.483 100.468 134.049C103.89 128.614 100.027 132.673 100.027 132.673Z" fill="#378D4A"/>
<path d="M57.7709 139.719C57.7709 139.719 67.0714 132.452 61.1396 125.436C61.1396 125.436 56.6137 121.264 52.3576 120.666C52.3576 120.666 56.2939 131.881 54.1654 132.487C52.0368 133.092 50.6783 119.672 50.6783 119.672C50.6783 119.672 39.1727 116.154 35.0295 117.206C35.0295 117.206 43.4015 127.463 41.1891 127.525C38.9777 127.586 29.771 117.318 29.771 117.318C29.771 117.318 18.4723 116.966 17.706 123.759C16.9397 130.551 20.2874 133.375 21.9776 133.532C23.6679 133.69 34.0919 131.952 34.0281 133.352C33.9643 134.752 27.2434 138.008 23.123 137.389C23.123 137.389 29.1059 147.457 34.7197 146.039C40.3335 144.622 41.5573 140.818 45.0426 140.006C48.5279 139.193 51.2505 139.748 49.6331 140.97C48.0149 142.192 41.9491 142.469 39.4716 145.331C36.994 148.194 34.9165 150.042 40.3727 150.317C45.8289 150.592 55.2205 148.456 56.4962 144.088C57.7709 139.719 57.7709 139.719 57.7709 139.719Z" fill="#46B159"/>
<path d="M57.9914 139.442C57.9914 139.442 64.9283 143.594 66.2185 152.107L65.0549 152.328C65.0549 152.328 62.12 143.683 58.047 140.591C53.9749 137.499 57.9914 139.442 57.9914 139.442Z" fill="#46B159"/>
<path d="M60.2891 134.097C60.2891 134.097 65.276 130.07 61.9939 126.312C61.9939 126.312 59.5 124.086 57.1838 123.799C57.1838 123.799 59.4189 129.854 58.2681 130.201C57.1173 130.548 56.2635 123.274 56.2635 123.274C56.2635 123.274 49.9854 121.464 47.7457 122.072C47.7457 122.072 52.38 127.568 51.18 127.621C49.979 127.674 44.8919 122.179 44.8919 122.179C44.8919 122.179 38.7541 122.086 38.3969 125.781C38.0397 129.475 39.8821 130.979 40.8015 131.051C41.7209 131.122 47.3657 130.087 47.3429 130.847C47.3211 131.608 43.7 133.434 41.4567 133.134C41.4567 133.134 44.7925 138.548 47.8286 137.729C50.8647 136.911 51.4952 134.835 53.3805 134.364C55.2657 133.892 56.7491 134.17 55.8808 134.847C55.0133 135.524 51.7212 135.728 50.4009 137.303C49.0806 138.879 47.9689 139.901 50.9339 140.003C53.8989 140.105 58.9797 138.863 59.634 136.48C60.2891 134.097 60.2891 134.097 60.2891 134.097Z" fill="#25A36E"/>
<path d="M41.3047 126.422C41.3047 126.422 57.5812 128.804 60.292 134.097C60.292 134.097 60.6428 136.612 62.6711 139.22L62.8579 140.323C62.8579 140.323 60.6055 136.845 59.6369 136.479C59.6378 136.48 62.2684 131.036 41.3047 126.422Z" fill="#378D4A"/>
<path d="M62.6693 139.22C62.6693 139.22 65.6616 142.434 65.0511 147.07L64.4115 147.01C64.4115 147.01 64.1837 142.057 62.5253 139.827C60.8679 137.599 62.6693 139.22 62.6693 139.22Z" fill="#6BB7BF"/>
<path d="M72.1641 115.968C72.1641 115.968 72.1641 114.491 72.3745 114C72.585 113.509 73.355 111.51 73.355 111.51H76.3665C76.3665 111.51 76.9268 113.334 76.9615 113.93C76.9961 114.526 76.9615 115.968 76.9615 115.968H72.1641Z" fill="#233862"/>
<path d="M91.2894 115.968C91.2894 115.968 91.2894 114.491 91.0789 114C90.8684 113.509 90.0984 111.51 90.0984 111.51H87.087C87.087 111.51 86.5266 113.334 86.492 113.93C86.4573 114.526 86.492 115.968 86.492 115.968H91.2894Z" fill="#233862"/>
<path d="M72.5427 64.8242C72.5427 64.8242 73.0693 80.9406 72.2821 90.1363C71.4948 99.3321 72.2875 112.129 72.2875 112.129C72.2875 112.129 74.8079 113.521 77.5387 112.129C77.5387 112.129 80.5347 94.3637 80.5156 90.1363C80.4955 85.6334 83.7758 65.527 83.7758 65.527L72.5427 64.8242Z" fill="#F99746"/>
<path d="M91.1797 112.128C91.1797 112.128 88.6602 113.52 85.9285 112.128C85.9285 112.128 82.9334 94.3634 82.9526 90.1352C82.9608 88.2332 82.3812 83.5477 81.7079 78.7701C80.7857 72.2346 79.6914 65.5267 79.6914 65.5267L90.9127 63.4961C90.9127 63.4961 90.3988 80.9412 91.1861 90.1361C91.9742 99.3319 91.1797 112.128 91.1797 112.128Z" fill="#F99746"/>
<path d="M82.9517 90.135C82.9599 88.2331 82.3804 83.5476 81.707 78.7699C82.4059 75.9161 84.108 73.1699 84.108 73.1699C86.2612 79.2207 82.9517 90.135 82.9517 90.135Z" fill="#ED7D2B"/>
<path d="M73.2794 37.1108C73.2794 37.1108 70.8001 36.9265 69.3331 37.4129C67.867 37.8994 58.1346 29.5149 55.9769 29.8517C55.9769 29.8517 54.0415 30.7853 54.0078 32.9948C54.0078 32.9948 61.7028 43.5778 66.6879 46.3075C71.6721 49.0372 72.0138 56.5857 72.0138 56.5857L74.792 54.5039L73.2794 37.1108Z" fill="#2A4E96"/>
<path d="M53.1048 19.3663C53.1577 19.4776 58.2649 30.6694 58.2649 30.6694C58.2649 30.6694 55.6789 33.4493 54.0106 32.9957L50.9453 19.2422L53.1048 19.3663Z" fill="#B56F40"/>
<path d="M53.1016 19.3667C53.1016 19.3667 53.0751 17.5707 52.8701 17.086C52.5722 16.3824 52.6478 15.5391 51.7193 15.697C50.7908 15.854 49.7493 16.5421 49.722 16.8533C49.6855 17.2713 49.9652 18.7087 50.2851 19.0382C50.6049 19.3686 51.1972 19.8815 51.1972 19.8815L53.1016 19.3667Z" fill="#B56F40"/>
<path d="M53.103 19.3676C53.103 19.3676 53.5467 18.2697 53.7855 17.9613C54.0242 17.6528 52.9016 15.9507 52.8014 15.9023C52.8014 15.9023 52.4159 16.0803 52.8387 16.877C53.1121 17.3918 52.7239 17.7869 52.7239 17.7869L53.103 19.3676Z" fill="#B56F40"/>
<path d="M79.3594 36.0565C79.3594 36.0565 81.5134 34.8135 83.046 34.6145C84.5777 34.4156 89.7169 22.6334 91.8071 22C91.8071 22 93.9557 22 94.9425 23.9777C94.9425 23.9777 92.5907 36.8569 89.2813 41.4812C85.9719 46.1056 88.6316 53.4752 88.6316 53.4752L85.5281 52.3864L79.3594 36.0565Z" fill="#2A4E96"/>
<path d="M73.1253 34.1984C73.1253 34.1984 69.5115 34.6821 69.0286 32.6314C68.5456 30.5807 65.31 29.6187 65.8595 27.7989C66.5337 25.5666 65.2143 23.7851 66.2868 22.1698C67.4686 20.3892 69.4669 20.8674 70.2778 19.8078C71.0897 18.7483 72.7207 17.6075 74.6779 18.3686C76.6352 19.1298 77.8671 18.2965 79.2148 19.1288C80.7036 20.0488 80.4886 21.5939 81.6868 22.1889C82.7848 22.7347 82.7575 24.7863 82.2417 26.545C81.87 27.8126 83.4199 28.6486 81.3497 30.41C80.4877 31.1429 80.9551 32.499 78.0721 33.2821C76.7746 33.6344 73.7996 33.5458 73.1253 34.1984Z" fill="#233862"/>
<path d="M72.8918 32.3423C72.8918 32.3423 73.3848 35.5949 73.239 37.1199L70.3906 40.0112L83.0425 39.5759L79.3558 36.0567C79.3558 36.0567 77.6692 31.885 77.8378 30.1957C78.0063 28.5055 72.8918 32.3423 72.8918 32.3423Z" fill="#B56F40"/>
<path d="M72.9609 32.7937C72.9609 32.7928 74.3678 34.9603 76.192 34.5688C78.0162 34.1773 78.0499 32.0234 78.0499 32.0234L72.9609 32.7937Z" fill="#99592E"/>
<path d="M75.813 33.7006C74.4799 33.9233 71.7072 32.6045 71.3017 30.4096L70.6693 26.9854C70.5217 26.1841 70.9582 25.4248 71.6397 25.2988L76.7087 24.3597C77.3903 24.2338 78.0691 24.7859 78.2176 25.5872L78.8144 28.818C79.24 31.1187 77.342 33.445 75.813 33.7006Z" fill="#B56F40"/>
<path d="M90.9461 64.0097C90.9461 64.0097 86.2298 65.8651 81.7668 66.692C79.8205 67.0525 77.6665 67.2304 75.9407 67.3162C74.0336 67.4139 72.6504 67.3993 72.6504 67.3993C72.6504 67.3993 71.6745 67.6703 71.3556 62.6636C71.1123 58.8542 71.0841 56.9012 70.2658 53.4751C69.8157 51.5896 69.32 49.0862 68.3523 47.5347C66.1791 44.0494 68.7068 39.1549 69.5633 38.5927C69.5633 38.5927 70.8499 37.8224 73.2436 37.1197C73.2527 37.1671 75.0514 38.9787 76.7754 38.9002C77.743 38.2924 78.4984 37.7877 79.3604 36.0564C80.8393 35.957 82.4703 35.9524 84.2425 36.0939C84.2425 36.0939 84.5605 36.8313 87.6905 50.0646C88.9306 55.3077 92.3576 63.767 90.9461 64.0097Z" fill="#2A4E96"/>
<path d="M70.9041 28.4714C70.9041 28.4714 71.3251 25.3821 74.4286 25.2616C77.5312 25.1412 77.913 25.7399 78.3722 26.4307C78.8324 27.1216 78.8068 23.5139 78.8068 23.5139L75.0464 23.1133C75.0464 23.1133 70.9697 24.4521 70.6481 25.1859C70.3182 25.937 70.4102 25.9735 70.4102 25.9735L70.9041 28.4714Z" fill="#233862"/>
<path d="M73.2389 30.1199C72.7177 30.2166 71.6525 30.2942 71.3017 29.4199C71.1951 29.1552 71.2024 28.9015 71.3208 28.6852C71.4511 28.4479 71.7081 28.2773 72.0243 28.2189L73.628 27.9214C73.9332 27.8648 74.1619 27.9131 74.3095 28.0646C74.5574 28.3202 74.489 28.7856 74.4489 28.9736C74.3095 29.617 74.0179 29.9602 73.5295 30.0515C73.5086 30.0578 73.3992 30.0898 73.2389 30.1199ZM72.0434 28.3247C71.7591 28.3777 71.5295 28.5273 71.4147 28.7373C71.3126 28.9243 71.3072 29.1461 71.401 29.3798C71.5805 29.8279 71.9851 30.0615 72.6029 30.0715C73.073 30.0797 73.4958 29.9492 73.5004 29.9483L73.5068 29.9465C73.9487 29.8644 74.2148 29.5486 74.3432 28.9508C74.3724 28.8176 74.4498 28.364 74.2321 28.1395C74.1118 28.0154 73.915 27.977 73.6471 28.0263L72.0434 28.3247Z" fill="#2C3A64"/>
<path d="M76.9378 29.4351C76.7766 29.4653 76.6636 29.4744 76.6426 29.4762C76.1542 29.5656 75.7597 29.3503 75.3988 28.799C75.2941 28.6375 75.0644 28.2277 75.2038 27.9001C75.2868 27.7057 75.4836 27.5779 75.7888 27.5213L77.3925 27.2238C77.7087 27.1654 78.0094 27.232 78.2162 27.4072C78.4039 27.566 78.5005 27.8015 78.496 28.0863C78.4814 29.029 77.459 29.3384 76.9378 29.4351ZM75.8089 27.6281C75.541 27.6774 75.3715 27.7833 75.3032 27.943C75.1802 28.2304 75.4143 28.6256 75.489 28.7406C75.8235 29.2517 76.1843 29.4525 76.6262 29.3703L76.6326 29.3694C76.6371 29.3694 77.0782 29.3393 77.5146 29.1632C78.0878 28.9314 78.3821 28.569 78.3894 28.0863C78.393 27.8344 78.3092 27.629 78.147 27.4912C77.9647 27.337 77.6969 27.2786 77.4126 27.3315L75.8089 27.6281Z" fill="#2C3A64"/>
<path d="M74.2716 28.5727C74.2479 28.5773 74.2224 28.5673 74.2069 28.5463C74.1869 28.5171 74.1933 28.4769 74.2224 28.4568C74.247 28.4395 74.8229 28.0416 75.4352 28.2341C75.4689 28.2451 75.4881 28.2807 75.4771 28.3144C75.4671 28.3482 75.4306 28.3674 75.3969 28.3564C74.8438 28.183 74.3017 28.5581 74.2962 28.5618C74.2889 28.5672 74.2807 28.5709 74.2716 28.5727Z" fill="#2C3A64"/>
<path d="M74.0234 31.6751C74.0234 31.6751 75.0349 31.4871 75.3119 31.4369C75.5825 31.3867 76.6358 31.1914 76.6358 31.1914C76.6358 31.1914 76.2622 32.2017 75.4877 32.3258C74.7123 32.4499 74.0234 31.6751 74.0234 31.6751Z" fill="#EBF3FA"/>
<path d="M89.8516 11.3053C89.8516 11.4285 90.0967 23.7309 90.0967 23.7309C90.0967 23.7309 93.6312 25.1126 94.9369 23.9782L91.7432 10.2539L89.8516 11.3053Z" fill="#B56F40"/>
<path d="M89.8518 11.305C89.8518 11.305 89.0982 9.67498 89.0727 9.1493C89.0362 8.38633 88.6034 7.65896 89.5082 7.39703C90.4131 7.1351 91.6495 7.30211 91.809 7.57134C92.0231 7.93184 92.3931 9.34826 92.2482 9.7845C92.1033 10.2207 91.7908 10.9399 91.7908 10.9399L89.8518 11.305Z" fill="#B56F40"/>
<path d="M89.8535 11.3043C89.8535 11.3043 88.9778 10.5085 88.6298 10.3333C88.2817 10.159 88.5559 8.13748 88.6243 8.05078C88.6243 8.05078 89.0489 8.04348 89.0125 8.94517C88.9888 9.52744 89.51 9.71544 89.51 9.71544L89.8535 11.3043Z" fill="#B56F40"/>
<path d="M45.3173 25.6105L41.0393 17.238C40.9673 17.0965 41.0229 16.9222 41.1641 16.8501L46.1911 14.2737C46.3324 14.2016 46.5064 14.2573 46.5784 14.3987L50.8564 22.7713C50.9284 22.9128 50.8728 23.0871 50.7316 23.1592L45.7046 25.7356C45.5633 25.8086 45.3902 25.752 45.3173 25.6105Z" fill="#F99746"/>
<path d="M55.2146 18.5178C55.149 18.3891 55.1326 18.2467 55.1636 18.1189C55.2292 17.8415 55.5317 17.5869 56.041 17.6845C56.3654 17.7466 56.8174 18.0605 57.3887 18.4575C58.3791 19.1447 59.735 20.0875 60.5952 19.7571C61.2275 19.5144 61.592 19.0261 61.5027 18.5433C61.4171 18.0824 60.8521 17.5458 59.5427 17.5494C59.3878 17.5504 59.2612 17.4244 59.2612 17.2684C59.2603 17.1132 59.386 16.9863 59.5418 16.9863C61.1956 16.9818 61.9246 17.7356 62.0558 18.4402C62.197 19.1995 61.6913 19.9406 60.7974 20.2837C59.6603 20.72 58.2242 19.7224 57.0698 18.9211C56.6142 18.6054 56.144 18.2777 55.9363 18.2385C55.7832 18.2093 55.7176 18.244 55.7094 18.2549C55.7121 18.265 55.7476 18.3179 55.857 18.3489C56.0064 18.3918 56.093 18.547 56.0511 18.6966C56.0082 18.8463 55.8533 18.933 55.7039 18.891C55.4561 18.8189 55.2966 18.6784 55.2146 18.5178Z" fill="#E6A330"/>
<path d="M52.6148 13.4366C52.6805 13.5653 52.7861 13.6611 52.9082 13.7113C53.1716 13.8199 53.5543 13.7232 53.7739 13.2523C53.9133 12.952 53.9233 12.4017 53.9361 11.7053C53.9579 10.4988 53.9889 8.84604 54.7589 8.34044C55.3256 7.96899 55.9334 7.95804 56.2724 8.31397C56.5958 8.65347 56.6997 9.42557 55.9307 10.487C55.8395 10.6129 55.8678 10.7891 55.9935 10.8803C56.1193 10.9716 56.2951 10.9433 56.3863 10.8173C57.3567 9.47667 57.1735 8.44356 56.6797 7.92518C56.1475 7.36665 55.2518 7.34383 54.4509 7.86951C53.4322 8.53848 53.4003 10.2889 53.3748 11.6953C53.3648 12.2502 53.3538 12.8233 53.2645 13.015C53.1989 13.1564 53.1315 13.1893 53.1187 13.1902C53.1124 13.182 53.0905 13.1227 53.1288 13.0159C53.1816 12.8699 53.106 12.7083 52.9602 12.6554C52.8144 12.6025 52.6531 12.6782 52.6003 12.8242C52.5119 13.0634 52.5328 13.276 52.6148 13.4366Z" fill="#E6A330"/>
<path d="M50.2062 18.6617L49.5273 17.3329C49.6567 17.5857 52.6217 16.12 52.4924 15.8672L53.1712 17.196C53.0099 16.8811 50.0449 18.3468 50.2062 18.6617Z" fill="#E6A330"/>
<path d="M62.7792 16.0086C58.2269 18.3422 53.7074 18.6096 52.6841 16.6073C51.6608 14.605 54.5211 11.0895 59.0733 8.75586C59.6966 9.97606 61.8734 14.2363 62.7792 16.0086Z" fill="#FFB93E"/>
<path d="M47.0234 15.268C47.7187 14.9112 49.0417 16.1077 49.9784 17.9393C50.9142 19.771 51.1092 21.5452 50.414 21.902C49.8427 20.7868 47.8517 16.8889 47.0234 15.268Z" fill="#FFB93E"/>
<path d="M62.4988 16.3244L58.6536 8.79879C58.5615 8.61899 58.6326 8.39814 58.8121 8.30596C58.9916 8.21378 59.2121 8.28497 59.3041 8.46476L63.1494 15.9904C63.2414 16.1702 63.1703 16.391 62.9908 16.4832C62.8104 16.5754 62.5899 16.5042 62.4988 16.3244Z" fill="#E6A330"/>
<path d="M48.4571 21.4746L46.2266 17.1094L44.833 17.8237L47.0636 22.1889L48.4571 21.4746Z" fill="#FFB93E"/>
<path d="M50.7988 16.0301C51.3774 15.7809 52.1883 15.6285 52.3997 15.8685C52.6111 16.1086 52.0708 17.1088 51.5177 17.4565C51.2535 17.6226 49.9195 17.7093 49.7509 17.3425C49.6179 17.0522 49.6106 16.5412 50.7988 16.0301Z" fill="#B56F40"/>
<path d="M99.4346 116.98H63.9766V153.583H99.4346V116.98Z" fill="#E6A330"/>
<path d="M98.9623 120.405H64.4565C63.1817 120.405 62.1484 119.37 62.1484 118.093C62.1484 116.816 63.1817 115.781 64.4565 115.781H98.9623C100.237 115.781 101.27 116.816 101.27 118.093C101.27 119.37 100.237 120.405 98.9623 120.405Z" fill="#FFB93E"/>
<path d="M114.957 17.5069C114.957 17.5069 113.899 18.3045 112.677 18.2379C111.77 18.1886 110.842 17.3937 110.806 17.3398L110.145 18.6258C110.145 18.6258 111.836 19.5475 113.233 19.2089C113.661 19.1049 114.341 18.6431 114.642 18.3063C114.975 17.934 114.957 17.5069 114.957 17.5069Z" fill="#6BB7BF"/>
<path d="M114.804 14.8986L116.577 14.0645C116.577 14.0645 116.504 17.8373 113.453 19.1314C113.453 19.1324 115.294 16.4656 114.804 14.8986Z" fill="#86D1CD"/>
<path d="M53.6309 55.6758C53.6309 55.6758 54.1184 57.4755 53.3958 59.037C52.8592 60.1961 51.3393 60.9947 51.25 61.0147L52.5812 62.5498C52.5812 62.5498 54.6651 60.8194 54.9503 58.8162C55.0378 58.202 54.79 57.0712 54.5084 56.5017C54.1977 55.8747 53.6309 55.6758 53.6309 55.6758Z" fill="#6BB7BF"/>
<path d="M50.1553 54.5133L49.9922 51.7617C49.9922 51.7617 54.8716 53.8243 54.9673 58.487C54.9682 58.487 52.4533 54.6904 50.1553 54.5133Z" fill="#86D1CD"/>
<path d="M111.33 79.3233C111.33 79.3233 109.686 78.6434 108.926 77.1841C108.363 76.1008 108.645 74.4827 108.682 74.4023L106.746 74.5164C106.746 74.5164 106.839 77.1056 108.187 78.491C108.599 78.9154 109.599 79.3872 110.194 79.5058C110.849 79.6363 111.33 79.3233 111.33 79.3233Z" fill="#6BB7BF"/>
<path d="M114.236 77.3652L116.411 78.8465C116.411 78.8465 112.006 81.3444 108.426 78.6977C108.426 78.6977 112.763 79.0043 114.236 77.3652Z" fill="#86D1CD"/>
<path d="M137.833 57.8054C137.833 57.8054 140.408 56.0138 142.341 58.6851L144.464 57.7707C144.464 57.7707 143.415 56.1133 139.3 56.848C136.608 57.3281 137.833 57.8054 137.833 57.8054Z" fill="#5685D8"/>
<path d="M135.297 59.5568C135.297 59.5568 135.998 56.6582 141.28 56.6582C141.28 56.6582 139.301 56.8462 137.754 59.4189L135.297 59.5568Z" fill="#739AF0"/>
<path d="M39.6926 86.9121C39.6926 86.9121 37.0374 88.5822 35.2296 85.8242L33.0664 86.6392C33.0664 86.6392 34.0368 88.344 38.1818 87.801C40.8935 87.446 39.6926 86.9121 39.6926 86.9121Z" fill="#5685D8"/>
<path d="M42.3057 85.2793C42.3057 85.2793 41.4711 88.1423 36.1953 87.8968C36.1953 87.8968 38.1808 87.8009 39.8446 85.303L42.3057 85.2793Z" fill="#739AF0"/>
<path d="M115.806 41.3052C115.806 41.3052 114.384 40.4053 114.235 39.3184C114.235 39.3184 112.85 39.3932 112.551 39.8431C112.551 39.8431 113.187 41.6429 113.936 41.9796C113.935 41.9805 115.619 42.0928 115.806 41.3052Z" fill="#ED7D2B"/>
<path d="M23.8347 55.4634C23.8347 55.4634 22.4123 54.5635 22.2629 53.4766C22.2629 53.4766 20.8779 53.5514 20.5781 54.0013C20.5781 54.0013 21.2141 55.8011 21.9631 56.1378C21.964 56.1378 23.6479 56.251 23.8347 55.4634Z" fill="#ED7D2B"/>
<path d="M15.9219 106.717C15.9219 106.717 17.3825 105.794 17.5356 104.678C17.5356 104.678 18.958 104.754 19.265 105.216C19.265 105.216 18.6117 107.063 17.8427 107.41C17.8436 107.41 16.1141 107.526 15.9219 106.717Z" fill="#F99746"/>
<path d="M88.4171 140.171H75.0053C72.31 140.171 70.125 137.982 70.125 135.283C70.125 132.583 72.31 130.395 75.0053 130.395H88.4171C91.1124 130.395 93.2974 132.583 93.2974 135.283C93.2965 137.982 91.1124 140.171 88.4171 140.171Z" fill="#FFB93E"/>
</svg>
