<svg width="168" height="60" viewBox="0 0 168 60" fill="none" xmlns="http://www.w3.org/2000/svg">
<rect x="0.667969" width="166.667" height="60" rx="10" fill="white"/>
<path d="M83.8786 32.2217C80.9065 32.2217 78.484 34.4824 78.484 37.5961C78.484 40.6908 80.9065 42.9705 83.8786 42.9705C86.852 42.9705 89.2745 40.6908 89.2745 37.5961C89.2732 34.4824 86.8508 32.2217 83.8786 32.2217ZM83.8786 40.8551C82.2497 40.8551 80.8458 39.5118 80.8458 37.5973C80.8458 35.6627 82.251 34.3396 83.8786 34.3396C85.5075 34.3396 86.9114 35.6627 86.9114 37.5973C86.9114 39.5105 85.5075 40.8551 83.8786 40.8551ZM72.1088 32.2217C69.1366 32.2217 66.7141 34.4824 66.7141 37.5961C66.7141 40.6908 69.1366 42.9705 72.1088 42.9705C75.0822 42.9705 77.5046 40.6908 77.5046 37.5961C77.5046 34.4824 75.0822 32.2217 72.1088 32.2217ZM72.1088 40.8551C70.4799 40.8551 69.0759 39.5118 69.0759 37.5973C69.0759 35.6627 70.4811 34.3396 72.1088 34.3396C73.7376 34.3396 75.1416 35.6627 75.1416 37.5973C75.1428 39.5105 73.7376 40.8551 72.1088 40.8551ZM58.1098 33.872V36.1517H63.5663C63.4033 37.4343 62.9762 38.3707 62.3241 39.0215C61.5305 39.8151 60.2883 40.6908 58.1098 40.6908C54.7509 40.6908 52.125 37.9828 52.125 34.6239C52.125 31.2651 54.7509 28.557 58.1098 28.557C59.9219 28.557 61.2449 29.2697 62.2218 30.1859L63.8304 28.5772C62.4657 27.2744 60.6548 26.2773 58.1098 26.2773C53.5087 26.2773 49.6406 30.0229 49.6406 34.6239C49.6406 39.225 53.5087 42.9705 58.1098 42.9705C60.5929 42.9705 62.4669 42.1554 63.9315 40.6289C65.4378 39.1226 65.9066 37.0047 65.9066 35.2949C65.9066 34.7667 65.8662 34.2777 65.7841 33.8708H58.1098V33.872ZM115.364 35.6424C114.917 34.4419 113.552 32.2217 110.763 32.2217C107.995 32.2217 105.693 34.4002 105.693 37.5961C105.693 40.6087 107.974 42.9705 111.027 42.9705C113.49 42.9705 114.916 41.4642 115.507 40.5885L113.675 39.3665C113.064 40.2624 112.229 40.8526 111.027 40.8526C109.827 40.8526 108.971 40.3029 108.422 39.2237L115.608 36.2515L115.364 35.6424ZM108.035 37.4343C107.974 35.3568 109.644 34.2991 110.845 34.2991C111.782 34.2991 112.575 34.768 112.841 35.439L108.035 37.4343ZM102.193 42.6457H104.554V26.8485H102.193V42.6457ZM98.3237 33.4234H98.2428C97.7133 32.7916 96.6948 32.2217 95.4134 32.2217C92.7256 32.2217 90.2627 34.5835 90.2627 37.6176C90.2627 40.6302 92.7256 42.9717 95.4134 42.9717C96.6961 42.9717 97.7133 42.4018 98.2428 41.751H98.3237V42.5244C98.3237 44.5804 97.2243 45.6798 95.4539 45.6798C94.0082 45.6798 93.1123 44.6423 92.7458 43.7666L90.6898 44.6221C91.28 46.0463 92.8469 47.7977 95.4539 47.7977C98.2226 47.7977 100.564 46.1688 100.564 42.1984V32.549H98.3249V33.4234H98.3237ZM95.6169 40.8551C93.988 40.8551 92.6245 39.4903 92.6245 37.6176C92.6245 35.7233 93.988 34.3396 95.6169 34.3396C97.2243 34.3396 98.4867 35.7233 98.4867 37.6176C98.4867 39.4903 97.2243 40.8551 95.6169 40.8551ZM126.427 26.8485H120.777V42.6457H123.133V36.661H126.425C129.039 36.661 131.609 34.7692 131.609 31.7554C131.609 28.7415 129.04 26.8485 126.427 26.8485ZM126.487 34.4622H123.133V29.0473H126.487C128.25 29.0473 129.251 30.5069 129.251 31.7554C129.251 32.9786 128.25 34.4622 126.487 34.4622ZM141.06 32.1939C139.353 32.1939 137.585 32.9458 136.853 34.6125L138.946 35.4857C139.393 34.6125 140.227 34.3269 141.1 34.3269C142.32 34.3269 143.559 35.0586 143.58 36.3589V36.5219C143.153 36.2781 142.238 35.9129 141.121 35.9129C138.865 35.9129 136.568 37.1525 136.568 39.4688C136.568 41.583 138.418 42.9439 140.49 42.9439C142.075 42.9439 142.949 42.2325 143.498 41.3985H143.578V42.6179H145.856V36.5611C145.857 33.7583 143.762 32.1939 141.06 32.1939ZM140.774 40.8513C140.003 40.8513 138.926 40.4646 138.926 39.5093C138.926 38.2898 140.268 37.8223 141.426 37.8223C142.461 37.8223 142.95 38.0459 143.58 38.3505C143.396 39.8151 142.137 40.8513 140.774 40.8513ZM154.148 32.5388L151.445 39.388H151.364L148.559 32.5388H146.019L150.225 42.1112L147.827 47.4363H150.286L156.77 32.5388H154.148ZM132.91 42.6457H135.267V26.8485H132.91V42.6457Z" fill="#00001C"/>
<path fill-rule="evenodd" clip-rule="evenodd" d="M88.0155 13.332C86.8864 13.332 85.9391 13.7243 85.1792 14.5062C84.4184 15.2877 84.0393 16.2457 84.0393 17.3739C84.0393 18.5021 84.4184 19.4601 85.1792 20.2415C85.9392 21.0235 86.8865 21.4145 88.0155 21.4145C89.1445 21.4145 90.0918 21.0234 90.8531 20.2415C91.6125 19.4601 91.9929 18.5022 91.9929 17.3739C91.9929 16.2517 91.6111 15.2963 90.848 14.5113C90.0844 13.7258 89.1384 13.332 88.0155 13.332ZM85.1943 17.3739C85.1943 16.5107 85.4693 15.8063 86.0127 15.2543C86.5585 14.7024 87.224 14.4264 88.0155 14.4264C88.8071 14.4264 89.4738 14.7013 90.0181 15.2542C90.5628 15.8063 90.8379 16.5106 90.8379 17.3739C90.8379 18.2371 90.5628 18.9415 90.0181 19.4936C89.4737 20.0454 88.807 20.3214 88.0155 20.3214C87.2239 20.3214 86.5585 20.0466 86.0128 19.4936C85.4693 18.9416 85.1943 18.2372 85.1943 17.3739Z" fill="#00001C"/>
<path d="M53.9722 13.3345C52.8572 13.3345 51.9054 13.7217 51.1255 14.4963C50.3439 15.2703 49.9531 16.2313 49.9531 17.3751C49.9531 18.5177 50.3439 19.4786 51.1255 20.2538C51.9054 21.0272 52.8572 21.4144 53.9722 21.4144C55.1336 21.4144 56.0853 21.0334 56.8148 20.268C57.4603 19.6209 57.779 18.7564 57.779 17.6809C57.779 17.4928 57.7622 17.297 57.7233 17.0934L57.7108 17.0282H53.8907V18.0998H56.636C56.5697 18.6995 56.366 19.1632 56.0321 19.4983C55.4833 20.047 54.7978 20.3214 53.971 20.3214C53.1934 20.3214 52.5233 20.0491 51.9555 19.5022C51.3904 18.958 51.1068 18.2506 51.1068 17.3738C51.1068 16.497 51.3904 15.7897 51.9555 15.2455C52.5233 14.6986 53.1934 14.4263 53.971 14.4263C54.834 14.4263 55.5013 14.7177 55.9856 15.2973L56.0419 15.3646L56.8218 14.5833L56.7746 14.527C56.4695 14.1633 56.063 13.8745 55.5594 13.6582C55.0565 13.4428 54.5264 13.3345 53.9722 13.3345Z" fill="#00001C"/>
<path d="M63.6047 13.5026H59.0176V21.2452H63.6047V20.1521H60.1523V17.9091H63.266V16.8375H60.1523V14.5944H63.6047V13.5026Z" fill="#00001C"/>
<path d="M69.8307 13.5026H64.4601V14.5944H66.578V21.2452H67.7128V14.5944H69.8307V13.5026Z" fill="#00001C"/>
<path d="M74.5745 13.5026H73.4397V21.2452H74.5745V13.5026Z" fill="#00001C"/>
<path d="M81.0131 13.5026H75.6425V14.5944H77.7604V21.2452H78.8952V14.5944H81.0131V13.5026Z" fill="#00001C"/>
<path d="M94.5098 13.5026H93.1997V21.2452H94.332L94.332 16.4413L94.2967 15.2043L98.0627 21.2452H99.2047V13.5026H98.0699V18.0196L98.07 18.0219L98.1052 19.2571L94.5098 13.5026Z" fill="#00001C"/>
<g filter="url(#filter0_ii_780_30)">
<path d="M12.3063 16.8568C11.9739 17.2087 11.7773 17.7549 11.7773 18.4621V43.7307C11.7773 44.4391 11.9739 44.9841 12.3063 45.336L12.3909 45.4183L26.5459 31.2632V31.0964V30.9296L12.3909 16.7734L12.3063 16.8568Z" fill="url(#paint0_linear_780_30)"/>
<path d="M31.2606 35.9851L26.543 31.2652V31.0984V30.9316L31.2617 26.2129L31.368 26.2734L36.9584 29.4497C38.5546 30.3569 38.5546 31.8411 36.9584 32.7494L31.368 35.9257L31.2606 35.9851Z" fill="url(#paint1_linear_780_30)"/>
<g filter="url(#filter1_i_780_30)">
<path d="M31.3693 35.9238L26.5431 31.0977L12.3047 45.3372C12.8303 45.8948 13.6997 45.9634 14.6789 45.4081L31.3693 35.9238Z" fill="url(#paint2_linear_780_30)"/>
</g>
<path d="M31.3693 26.2714L14.6789 16.7883C13.6997 16.2319 12.8303 16.3016 12.3047 16.8591L26.5443 31.0987L31.3693 26.2714Z" fill="url(#paint3_linear_780_30)"/>
</g>
<defs>
<filter id="filter0_ii_780_30" x="11.7773" y="16.4043" width="26.3789" height="29.3867" filterUnits="userSpaceOnUse" color-interpolation-filters="sRGB">
<feFlood flood-opacity="0" result="BackgroundImageFix"/>
<feBlend mode="normal" in="SourceGraphic" in2="BackgroundImageFix" result="shape"/>
<feColorMatrix in="SourceAlpha" type="matrix" values="0 0 0 0 0 0 0 0 0 0 0 0 0 0 0 0 0 0 127 0" result="hardAlpha"/>
<feOffset dy="-0.15"/>
<feComposite in2="hardAlpha" operator="arithmetic" k2="-1" k3="1"/>
<feColorMatrix type="matrix" values="0 0 0 0 0 0 0 0 0 0 0 0 0 0 0 0 0 0 0.12 0"/>
<feBlend mode="normal" in2="shape" result="effect1_innerShadow_780_30"/>
<feColorMatrix in="SourceAlpha" type="matrix" values="0 0 0 0 0 0 0 0 0 0 0 0 0 0 0 0 0 0 127 0" result="hardAlpha"/>
<feOffset dy="0.15"/>
<feComposite in2="hardAlpha" operator="arithmetic" k2="-1" k3="1"/>
<feColorMatrix type="matrix" values="0 0 0 0 1 0 0 0 0 1 0 0 0 0 1 0 0 0 0.25 0"/>
<feBlend mode="normal" in2="effect1_innerShadow_780_30" result="effect2_innerShadow_780_30"/>
</filter>
<filter id="filter1_i_780_30" x="12.3047" y="31.0977" width="19.0645" height="14.6934" filterUnits="userSpaceOnUse" color-interpolation-filters="sRGB">
<feFlood flood-opacity="0" result="BackgroundImageFix"/>
<feBlend mode="normal" in="SourceGraphic" in2="BackgroundImageFix" result="shape"/>
<feColorMatrix in="SourceAlpha" type="matrix" values="0 0 0 0 0 0 0 0 0 0 0 0 0 0 0 0 0 0 127 0" result="hardAlpha"/>
<feOffset dy="-0.15"/>
<feComposite in2="hardAlpha" operator="arithmetic" k2="-1" k3="1"/>
<feColorMatrix type="matrix" values="0 0 0 0 0 0 0 0 0 0 0 0 0 0 0 0 0 0 0.08 0"/>
<feBlend mode="normal" in2="shape" result="effect1_innerShadow_780_30"/>
</filter>
<linearGradient id="paint0_linear_780_30" x1="25.2912" y1="18.1948" x2="6.11693" y2="37.369" gradientUnits="userSpaceOnUse">
<stop stop-color="#00A0FF"/>
<stop offset="0.0066" stop-color="#00A1FF"/>
<stop offset="0.2601" stop-color="#00BEFF"/>
<stop offset="0.5122" stop-color="#00D2FF"/>
<stop offset="0.7604" stop-color="#00DFFF"/>
<stop offset="1" stop-color="#00E3FF"/>
</linearGradient>
<linearGradient id="paint1_linear_780_30" x1="39.0362" y1="31.0984" x2="11.3912" y2="31.0984" gradientUnits="userSpaceOnUse">
<stop stop-color="#FFE000"/>
<stop offset="0.4087" stop-color="#FFBD00"/>
<stop offset="0.7754" stop-color="#FFA500"/>
<stop offset="1" stop-color="#FF9C00"/>
</linearGradient>
<linearGradient id="paint2_linear_780_30" x1="28.7484" y1="33.7185" x2="2.74567" y2="59.7212" gradientUnits="userSpaceOnUse">
<stop stop-color="#FF3A44"/>
<stop offset="1" stop-color="#C31162"/>
</linearGradient>
<linearGradient id="paint3_linear_780_30" x1="8.71868" y1="8.44745" x2="20.3296" y2="20.0584" gradientUnits="userSpaceOnUse">
<stop stop-color="#32A071"/>
<stop offset="0.0685" stop-color="#2DA771"/>
<stop offset="0.4762" stop-color="#15CF74"/>
<stop offset="0.8009" stop-color="#06E775"/>
<stop offset="1" stop-color="#00F076"/>
</linearGradient>
</defs>
</svg>
