<svg width="120" height="120" viewBox="0 0 120 120" fill="none" xmlns="http://www.w3.org/2000/svg">
<circle cx="60" cy="60" r="60" fill="#6E4AFF"/>
<g clip-path="url(#clip0_739_1235)">
<path d="M67.5969 65.5234C67.8163 56.7838 79.9996 55.5769 81.9963 63.9934C96.7481 53.6471 89.4925 30.0587 71.2375 30H48.6438C23.8593 30.9432 23.8782 66.4719 48.6438 67.4062H67.5969V65.5234ZM70.4212 43.0547C70.4295 41.2703 72.7917 40.6325 73.6974 42.169L77.011 47.8495V43.0547C77.0975 40.7249 80.441 40.7266 80.5266 43.0547V54.3516C80.5266 55.1456 79.9941 55.8411 79.2276 56.0484C78.1096 56.3505 77.4269 55.5397 77.2504 55.2373L73.9368 49.5566V54.3516C73.8503 56.6814 70.5069 56.6796 70.4212 54.3516V43.0547ZM47.5774 51.0566C47.3233 57.7506 37.7247 57.7484 37.4719 51.0585C37.4719 50.0877 38.259 49.3008 39.2297 49.3008C40.2005 49.3008 40.9876 50.0878 40.9876 51.0586C40.9876 51.9052 41.6763 52.5937 42.5228 52.5937C43.3723 52.5937 44.0619 51.9042 44.0619 51.0566V44.8125H42.9954C40.6656 44.726 40.6674 41.3825 42.9954 41.2969H45.8197C46.7904 41.2969 47.5775 42.0839 47.5775 43.0547V51.0566H47.5774ZM60.7571 51.0566C60.5022 57.7522 50.9041 57.7472 50.6517 51.0566V46.3495C50.9065 39.6539 60.5047 39.6589 60.7571 46.3495V51.0566ZM67.3469 54.3516C67.2604 56.6814 63.9169 56.6796 63.8313 54.3516V43.0547C63.9177 40.7249 67.2612 40.7266 67.3469 43.0547V54.3516Z" fill="white"/>
<path d="M55.7051 44.8125C54.8576 44.8125 54.168 45.502 54.168 46.3496V51.0567C54.2455 53.0937 57.1654 53.092 57.2421 51.0567V46.3496C57.2423 45.502 56.5527 44.8125 55.7051 44.8125Z" fill="white"/>
<path d="M86.1747 73.0541H78.6434V65.5228C78.4562 60.5314 71.2968 60.5367 71.1121 65.5228V78.7025L68.786 77.152C66.8543 75.8641 64.2814 76.1194 62.6395 77.7612C61.5985 78.8021 61.6002 80.4874 62.6395 81.5267L70.6543 89.5415C70.9475 89.8347 71.3451 89.9994 71.7596 89.9994H86.1746C88.2539 89.9994 89.9402 88.3117 89.9402 86.2338V76.8198C89.9403 74.7405 88.2526 73.0541 86.1747 73.0541Z" fill="white"/>
</g>
<defs>
<clipPath id="clip0_739_1235">
<rect width="60" height="60" fill="white" transform="translate(30 30)"/>
</clipPath>
</defs>
</svg>
