<svg width="120" height="120" viewBox="0 0 120 120" fill="none" xmlns="http://www.w3.org/2000/svg">
<circle cx="60" cy="60" r="60" fill="#3CD3A6"/>
<g clip-path="url(#clip0_739_1255)">
<path d="M85.8013 34.1769C84.6307 32.9047 83.0082 32.1419 81.2818 32.0519C79.5553 31.962 77.8624 32.552 76.5659 33.6956L56.3534 53.9311C55.9905 54.2973 55.7572 54.7721 55.6888 55.2831L54.795 62.6623C54.6346 63.9823 55.8973 65.5681 57.3388 65.2061L64.718 64.3123C65.229 64.2439 65.7037 64.0106 66.07 63.6477L86.2825 43.4123C87.4414 42.1229 88.0415 40.4264 87.9513 38.6951C87.8611 36.9638 87.0879 35.3389 85.8013 34.1769Z" fill="white"/>
<path d="M65.2896 68.85L57.8875 69.7667C56.8541 69.8735 55.8098 69.7482 54.831 69.3998C53.8522 69.0515 52.9635 68.4889 52.23 67.7531C51.4964 67.0174 50.9365 66.127 50.591 65.1472C50.2456 64.1673 50.1234 63.1227 50.2333 62.0896L51.15 54.7104C51.3289 53.1923 52.0153 51.7791 53.0979 50.7L64.9 38.875H39.875C38.0533 38.8804 36.3078 39.6065 35.0197 40.8947C33.7315 42.1828 33.0054 43.9283 33 45.75V80.125C33.0054 81.9467 33.7315 83.6922 35.0197 84.9804C36.3078 86.2685 38.0533 86.9946 39.875 87H71.9583C73.78 86.9946 75.5256 86.2685 76.8137 84.9804C78.1018 83.6922 78.8279 81.9467 78.8333 80.125V57.3687L69.3 66.9021C68.2208 67.9846 66.8076 68.6709 65.2896 68.85Z" fill="white"/>
</g>
<defs>
<clipPath id="clip0_739_1255">
<rect width="55" height="55" fill="white" transform="translate(33 32)"/>
</clipPath>
</defs>
</svg>
