<svg width="80" height="80" viewBox="0 0 80 80" fill="none" xmlns="http://www.w3.org/2000/svg">
<circle cx="40" cy="40" r="40" fill="#FF8B4A"/>
<g clip-path="url(#clip0_739_1328)">
<path d="M50.4731 41.8955L50.0852 41.7662L50.3438 41.4429C50.6671 40.9903 50.861 40.5377 50.861 40.0205C50.861 38.7274 49.8265 37.6929 48.5334 37.6929H42.3912L42.4558 37.305C42.7791 35.5593 43.8783 33.2317 44.2015 32.5205V32.4558C45.1067 29.7403 42.9731 27.8006 41.7446 27.2188C41.68 27.2188 41.68 27.2188 41.6153 27.2188C41.5507 27.2188 41.5507 27.2188 41.486 27.2188C41.4214 27.2834 41.3567 27.3481 41.2921 27.4127L40.4515 30.5162C40.1929 31.4213 39.6757 32.2619 39.0291 32.9084C36.3136 35.43 33.8567 38.5981 33.1455 39.5032L33.0808 39.6325L28.4257 39.8265C28.2964 39.8265 28.1671 39.9558 28.1024 40.0851C27.9084 40.9903 26.486 49.2662 28.4257 52.111C28.4903 52.1756 28.555 52.2403 28.6843 52.2403H32.305C32.6929 52.2403 33.0162 52.305 33.3395 52.4989C34.1153 52.9515 36.1196 54.0506 37.736 54.5032C37.9946 54.5679 38.1886 54.5679 38.4472 54.5679H47.0464C48.3395 54.5679 49.3739 53.5334 49.3739 52.2403C49.3739 51.7877 49.2446 51.3351 48.986 50.9472L48.7274 50.5593L49.18 50.4946C50.2791 50.3006 51.1196 49.3308 51.1196 48.167C51.1196 47.6498 50.9257 47.0679 50.5377 46.68L50.2791 46.292L50.6024 46.0981C51.3783 45.7101 51.8955 44.8696 51.8955 44.0291C51.8955 43.0593 51.3783 42.2188 50.4731 41.8955Z" fill="white"/>
<path d="M39.9985 24.5671C40.3864 24.5671 40.7744 24.2438 40.7744 23.7912V20.7524C40.7744 20.3645 40.4511 19.9766 39.9985 19.9766C39.5459 19.9766 39.2227 20.2998 39.2227 20.7524V23.8559C39.2227 24.2438 39.6106 24.5671 39.9985 24.5671Z" fill="white"/>
<path d="M30.9467 26.4416C31.076 26.7002 31.3346 26.8295 31.5933 26.8295C31.7226 26.8295 31.8519 26.7649 31.9812 26.7002C32.3691 26.5063 32.4338 26.0537 32.2398 25.6657L30.6881 23.0149C30.5588 22.7563 30.3002 22.627 30.0415 22.627C29.9122 22.627 29.7829 22.6916 29.6536 22.7563C29.2657 22.9502 29.201 23.4028 29.395 23.7907L30.9467 26.4416Z" fill="white"/>
<path d="M25.7726 31.6146L23.1217 30.0629C22.9924 29.9982 22.8631 29.9336 22.7338 29.9336C22.4752 29.9336 22.2165 30.0629 22.0872 30.3215C21.8933 30.7095 22.0226 31.162 22.3458 31.356L24.9967 32.9077C25.126 32.9724 25.2553 33.037 25.3846 33.037C25.6433 33.037 25.9019 32.9077 26.0312 32.6491C26.2898 32.2612 26.1605 31.8086 25.7726 31.6146Z" fill="white"/>
<path d="M23.1232 39.8906H20.0845C19.6965 39.8906 19.3086 40.2139 19.3086 40.6665C19.3086 41.1191 19.6319 41.4424 20.0845 41.4424H23.1879C23.5758 41.4424 23.9638 41.1191 23.9638 40.6665C23.9638 40.2139 23.5758 39.8906 23.1232 39.8906Z" fill="white"/>
<path d="M57.6476 49.976L54.9967 48.4242C54.8674 48.3596 54.7381 48.2949 54.6088 48.2949C54.3502 48.2949 54.0915 48.4242 53.9622 48.6829C53.7683 49.0708 53.8976 49.5234 54.2208 49.7173L56.8717 51.2691C57.001 51.3337 57.1303 51.3984 57.2596 51.3984C57.5183 51.3984 57.7769 51.2691 57.9062 51.0104C58.1002 50.6225 57.9708 50.1699 57.6476 49.976Z" fill="white"/>
<path d="M59.9106 39.8906H56.8071C56.4192 39.8906 56.0312 40.2139 56.0312 40.6665C56.0312 41.1191 56.3545 41.4424 56.8071 41.4424H59.9106C60.2985 41.4424 60.6864 41.1191 60.6864 40.6665C60.6864 40.2139 60.3631 39.8906 59.9106 39.8906Z" fill="white"/>
<path d="M54.6079 32.9726C54.7372 32.9726 54.8666 32.9079 54.9959 32.8433L57.6467 31.2916C58.0347 31.0976 58.0993 30.645 57.9054 30.2571C57.776 29.9985 57.5174 29.8691 57.2588 29.8691C57.1295 29.8691 57.0002 29.9338 56.8709 29.9985L54.22 31.6148C53.8321 31.8088 53.7674 32.2614 53.9614 32.6493C54.0907 32.8433 54.3493 32.9726 54.6079 32.9726Z" fill="white"/>
<path d="M48.0804 26.7002C48.2097 26.7649 48.339 26.8295 48.4683 26.8295C48.7269 26.8295 48.9855 26.7002 49.1148 26.4416L50.6666 23.7907C50.8605 23.4028 50.7312 22.9502 50.4079 22.7563C50.2786 22.6916 50.1493 22.627 50.02 22.627C49.7614 22.627 49.5028 22.7563 49.3735 23.0149L47.7571 25.7304C47.5631 26.0537 47.6924 26.5063 48.0804 26.7002Z" fill="white"/>
</g>
<defs>
<clipPath id="clip0_739_1328">
<rect width="41.3793" height="41.3793" fill="white" transform="translate(19.3086 16.5508)"/>
</clipPath>
</defs>
</svg>
