<svg width="80" height="80" viewBox="0 0 80 80" fill="none" xmlns="http://www.w3.org/2000/svg">
<circle cx="40" cy="40" r="40" fill="#943FD7"/>
<g clip-path="url(#clip0_739_1359)">
<path d="M28.3193 36.1064C29.9299 36.1064 31.2402 34.796 31.2402 33.1855C31.2402 32.7329 31.1367 32.3041 30.9522 31.9212L34.2249 28.6001C34.7338 29.0307 35.3911 29.291 36.1084 29.291C36.8916 29.291 37.6033 28.9805 38.1283 28.4769L41.1052 31.3543C41.0217 31.6256 40.9765 31.9136 40.9765 32.2119C40.9765 33.8225 42.2868 35.1328 43.8974 35.1328C45.485 35.1328 46.7799 33.8594 46.8166 32.2805L49.6304 30.3898C50.1586 30.9139 50.8853 31.2383 51.6865 31.2383C53.2971 31.2383 54.6074 29.9279 54.6074 28.3174C54.6074 26.7069 53.2971 25.3965 51.6865 25.3965C50.0758 25.3965 48.7656 26.7069 48.7656 28.3174C48.7656 28.4177 48.7707 28.5169 48.7806 28.6147L46.1644 30.3726C45.6284 29.7133 44.8115 29.291 43.8974 29.291C43.2995 29.291 42.7432 29.4719 42.2797 29.7814L39.0172 26.6279C39.0247 26.5428 39.0293 26.457 39.0293 26.3701C39.0293 24.7595 37.719 23.4492 36.1084 23.4492C34.4978 23.4492 33.1875 24.7596 33.1875 26.3701C33.1875 26.53 33.2009 26.6868 33.2258 26.8398L29.5721 30.5474C29.1922 30.3663 28.7675 30.2646 28.3193 30.2646C26.7087 30.2646 25.3984 31.575 25.3984 33.1855C25.3984 34.796 26.7088 36.1064 28.3193 36.1064Z" fill="white"/>
<path d="M53.6318 54.6054V36.1064H49.7373V54.6054H45.8427V39.0273H41.9482V54.6054H38.0537V33.1855H34.1592V54.6054H30.2646V40.9746H26.3701V54.6054H23.4492V56.5527H56.5527V54.6054H53.6318Z" fill="white"/>
</g>
<defs>
<clipPath id="clip0_739_1359">
<rect width="33.1034" height="33.1034" fill="white" transform="translate(23.4492 23.4492)"/>
</clipPath>
</defs>
</svg>
