<svg width="80" height="80" viewBox="0 0 80 80" fill="none" xmlns="http://www.w3.org/2000/svg">
<circle cx="40" cy="40" r="40" fill="#32C7E8"/>
<g clip-path="url(#clip0_739_1350)">
<path d="M27.4688 48.1605C27.4688 55.0794 33.0776 60.6882 39.9964 60.6882C46.9153 60.6882 52.5241 55.0794 52.5241 48.1605C52.5241 41.2416 46.9153 35.6328 39.9964 35.6328C33.0776 35.6328 27.4688 41.2416 27.4688 48.1605ZM38.7844 42.2199V40.6438H41.2087V42.2253C42.9152 42.5064 44.2213 43.9913 44.2213 45.7762H41.7969C41.7969 45.1281 41.2698 44.601 40.6218 44.601H39.3412C38.6941 44.601 38.1675 45.1276 38.1675 45.7747C38.1675 46.4219 38.6941 46.9484 39.3412 46.9484H40.6518C42.6358 46.9484 44.2498 48.5625 44.2498 50.5464C44.2498 52.341 42.9291 53.8328 41.2086 54.1012V55.6774H38.7843V54.1044C37.0758 53.8462 35.7621 52.3681 35.7621 50.5887H38.1864C38.1864 51.2125 38.694 51.7201 39.3179 51.7201H40.6518C41.2989 51.7201 41.8255 51.1935 41.8255 50.5464C41.8255 49.8993 41.2989 49.3727 40.6518 49.3727H39.3412C37.3572 49.3727 35.7432 47.7586 35.7432 45.7746C35.7432 43.9802 37.0639 42.4885 38.7844 42.2199Z" fill="white"/>
<path d="M42.4266 33.6099C43.5858 33.8001 44.7168 34.1259 45.8079 34.5873C47.2368 35.1917 48.5483 36.0056 49.7199 37.0125V27.7919H52.1544V25.5927L46.0733 19.5117L39.9922 25.5928V27.7919H42.4266V33.6099Z" fill="white"/>
<path d="M30.2626 37.0129C31.4342 36.006 32.7457 35.1921 34.1746 34.5878C35.2656 34.1262 36.3967 33.8005 37.5559 33.6103V31.6709H39.9903V29.4717L33.9092 23.3906L27.8281 29.4717V31.6709H30.2626V37.0129Z" fill="white"/>
</g>
<defs>
<clipPath id="clip0_739_1350">
<rect width="41.3793" height="41.3793" fill="white" transform="translate(19.3086 19.3105)"/>
</clipPath>
</defs>
</svg>
