<svg width="167" height="60" viewBox="0 0 167 60" fill="none" xmlns="http://www.w3.org/2000/svg">
<rect width="166.667" height="60" rx="10" fill="white"/>
<path d="M110.419 28.0747V30.9698H108.605V32.8684H110.419V39.3194C110.419 41.5222 111.416 42.4033 113.923 42.4033C114.363 42.4033 114.783 42.3508 115.15 42.2879V40.4103C114.835 40.4418 114.636 40.4627 114.29 40.4627C113.167 40.4627 112.674 39.9383 112.674 38.7425V32.8684H115.15V30.9698H112.674V28.0747H110.419Z" fill="#00001C"/>
<path d="M121.536 42.5606C124.872 42.5606 126.917 40.3264 126.917 36.6236C126.917 32.9418 124.862 30.697 121.536 30.697C118.201 30.697 116.145 32.9418 116.145 36.6236C116.145 40.3264 118.19 42.5606 121.536 42.5606ZM121.536 40.5571C119.575 40.5571 118.473 39.1201 118.473 36.6236C118.473 34.1481 119.575 32.7005 121.536 32.7005C123.487 32.7005 124.599 34.1481 124.599 36.6236C124.599 39.1096 123.487 40.5571 121.536 40.5571Z" fill="#00001C"/>
<path d="M128.668 42.3404H130.923V35.5956C130.923 33.9907 132.129 32.9103 133.839 32.9103C134.237 32.9103 134.909 32.9837 135.098 33.0467V30.8229C134.856 30.76 134.426 30.7285 134.091 30.7285C132.601 30.7285 131.332 31.5467 131.007 32.6691H130.839V30.9173H128.668V42.3404Z" fill="#00001C"/>
<path d="M140.697 32.6166C142.365 32.6166 143.456 33.7809 143.508 35.5746H137.739C137.865 33.7914 139.029 32.6166 140.697 32.6166ZM143.498 39.2565C143.078 40.1481 142.145 40.6411 140.781 40.6411C138.977 40.6411 137.813 39.3718 137.739 37.3683V37.2425H145.806V36.4558C145.806 32.8684 143.886 30.697 140.708 30.697C137.488 30.697 135.442 33.0152 135.442 36.6656C135.442 40.3159 137.446 42.5606 140.718 42.5606C143.33 42.5606 145.155 41.3019 145.669 39.2565H143.498Z" fill="#00001C"/>
<path d="M95.6297 38.122C95.8036 40.927 98.1411 42.7209 101.62 42.7209C105.338 42.7209 107.665 40.84 107.665 37.8393C107.665 35.4801 106.339 34.1755 103.121 33.4253L101.392 33.0013C99.3479 32.5229 98.5216 31.8815 98.5216 30.7616C98.5216 29.3483 99.8046 28.4241 101.729 28.4241C103.555 28.4241 104.817 29.3265 105.045 30.7725H107.415C107.274 28.1306 104.947 26.2715 101.762 26.2715C98.3368 26.2715 96.0537 28.1306 96.0537 30.9247C96.0537 33.2296 97.3475 34.5995 100.185 35.2627L102.207 35.7519C104.284 36.2411 105.197 36.9587 105.197 38.1546C105.197 39.5462 103.762 40.5573 101.805 40.5573C99.7067 40.5573 98.2498 39.6115 98.0433 38.122H95.6297Z" fill="#00001C"/>
<path d="M72.2677 30.7285C70.7153 30.7285 69.3726 31.5047 68.6803 32.8054H68.5125V30.9173H66.3412V46.1376H68.5964V40.6096H68.7747C69.3726 41.8159 70.6628 42.5292 72.2887 42.5292C75.1733 42.5292 77.009 40.253 77.009 36.6236C77.009 32.9942 75.1733 30.7285 72.2677 30.7285ZM71.6279 40.5047C69.7398 40.5047 68.5544 39.0152 68.5544 36.6341C68.5544 34.2425 69.7398 32.753 71.6384 32.753C73.5474 32.753 74.6908 34.211 74.6908 36.6236C74.6908 39.0467 73.5474 40.5047 71.6279 40.5047Z" fill="#00001C"/>
<path d="M84.9004 30.7285C83.348 30.7285 82.0053 31.5047 81.313 32.8054H81.1452V30.9173H78.9739V46.1376H81.2291V40.6096H81.4074C82.0053 41.8159 83.2955 42.5292 84.9214 42.5292C87.806 42.5292 89.6417 40.253 89.6417 36.6236C89.6417 32.9942 87.806 30.7285 84.9004 30.7285ZM84.2606 40.5047C82.3724 40.5047 81.1871 39.0152 81.1871 36.6341C81.1871 34.2425 82.3724 32.753 84.271 32.753C86.1801 32.753 87.3235 34.211 87.3235 36.6236C87.3235 39.0467 86.1801 40.5047 84.2606 40.5047Z" fill="#00001C"/>
<path d="M62.2949 42.3404H64.8824L59.2181 26.652H56.5979L50.9336 42.3404H53.4342L54.8801 38.1764H60.8598L62.2949 42.3404ZM57.783 29.5005H57.9678L60.2401 36.1324H55.4999L57.783 29.5005Z" fill="#00001C"/>
<path d="M52.4531 14.8177V22.3859H55.1856C57.4409 22.3859 58.7468 20.996 58.7468 18.5782C58.7468 16.1971 57.4304 14.8177 55.1856 14.8177H52.4531ZM53.6279 15.8876H55.0545C56.6227 15.8876 57.551 16.8841 57.551 18.5939C57.551 20.3299 56.6384 21.3159 55.0545 21.3159H53.6279V15.8876Z" fill="#00001C"/>
<path d="M62.7465 22.496C64.4143 22.496 65.437 21.3789 65.437 19.5275C65.437 17.6866 64.409 16.5642 62.7465 16.5642C61.0786 16.5642 60.0507 17.6866 60.0507 19.5275C60.0507 21.3789 61.0734 22.496 62.7465 22.496ZM62.7465 21.4942C61.7657 21.4942 61.215 20.7757 61.215 19.5275C61.215 18.2897 61.7657 17.5659 62.7465 17.5659C63.722 17.5659 64.2779 18.2897 64.2779 19.5275C64.2779 20.7705 63.722 21.4942 62.7465 21.4942Z" fill="#00001C"/>
<path d="M74.1464 16.6743H73.0188L72.0013 21.0327H71.9122L70.7373 16.6743H69.6569L68.4821 21.0327H68.3982L67.3755 16.6743H66.2321L67.8055 22.3859H68.9646L70.1394 18.1796H70.2286L71.4087 22.3859H72.5782L74.1464 16.6743Z" fill="#00001C"/>
<path d="M75.445 22.3859H76.5726V19.045C76.5726 18.1533 77.1024 17.5974 77.9363 17.5974C78.7702 17.5974 79.1688 18.0537 79.1688 18.9715V22.3859H80.2964V18.6883C80.2964 17.3299 79.5936 16.5642 78.3191 16.5642C77.459 16.5642 76.8926 16.9471 76.6146 17.5817H76.5307V16.6743H75.445V22.3859Z" fill="#00001C"/>
<path d="M82.0723 22.3859H83.1999V14.4453H82.0723V22.3859Z" fill="#00001C"/>
<path d="M87.4408 22.496C89.1086 22.496 90.1314 21.3789 90.1314 19.5275C90.1314 17.6866 89.1034 16.5642 87.4408 16.5642C85.773 16.5642 84.745 17.6866 84.745 19.5275C84.745 21.3789 85.7677 22.496 87.4408 22.496ZM87.4408 21.4942C86.46 21.4942 85.9093 20.7757 85.9093 19.5275C85.9093 18.2897 86.46 17.5659 87.4408 17.5659C88.4163 17.5659 88.9723 18.2897 88.9723 19.5275C88.9723 20.7705 88.4163 21.4942 87.4408 21.4942Z" fill="#00001C"/>
<path d="M93.4911 21.531C92.8775 21.531 92.4317 21.232 92.4317 20.718C92.4317 20.2145 92.7883 19.947 93.575 19.8946L94.9701 19.8054V20.2827C94.9701 20.9908 94.3408 21.531 93.4911 21.531ZM93.2027 22.4803C93.9527 22.4803 94.5768 22.1551 94.9177 21.5834H95.0069V22.3859H96.0925V18.4838C96.0925 17.2775 95.2848 16.5642 93.853 16.5642C92.5576 16.5642 91.6345 17.1936 91.5191 18.1743H92.61C92.7359 17.7705 93.1712 17.5397 93.8006 17.5397C94.5715 17.5397 94.9701 17.8806 94.9701 18.4838V18.9768L93.4229 19.0659C92.0646 19.1498 91.2988 19.7425 91.2988 20.7705C91.2988 21.8142 92.1013 22.4803 93.2027 22.4803Z" fill="#00001C"/>
<path d="M99.9191 22.4803C100.706 22.4803 101.372 22.1079 101.713 21.4838H101.802V22.3859H102.882V14.4453H101.755V17.5817H101.671C101.361 16.9523 100.701 16.5799 99.9191 16.5799C98.4768 16.5799 97.5485 17.7233 97.5485 19.5275C97.5485 21.3369 98.4663 22.4803 99.9191 22.4803ZM100.239 17.5922C101.183 17.5922 101.776 18.3422 101.776 19.5327C101.776 20.7285 101.188 21.468 100.239 21.468C99.2845 21.468 98.7128 20.739 98.7128 19.5275C98.7128 18.3264 99.2897 17.5922 100.239 17.5922Z" fill="#00001C"/>
<path d="M110.195 22.496C111.862 22.496 112.885 21.3789 112.885 19.5275C112.885 17.6866 111.857 16.5642 110.195 16.5642C108.527 16.5642 107.499 17.6866 107.499 19.5275C107.499 21.3789 108.522 22.496 110.195 22.496ZM110.195 21.4942C109.214 21.4942 108.663 20.7757 108.663 19.5275C108.663 18.2897 109.214 17.5659 110.195 17.5659C111.17 17.5659 111.726 18.2897 111.726 19.5275C111.726 20.7705 111.17 21.4942 110.195 21.4942Z" fill="#00001C"/>
<path d="M114.378 22.3859H115.505V19.045C115.505 18.1533 116.035 17.5974 116.869 17.5974C117.703 17.5974 118.102 18.0537 118.102 18.9715V22.3859H119.229V18.6883C119.229 17.3299 118.526 16.5642 117.252 16.5642C116.392 16.5642 115.825 16.9471 115.547 17.5817H115.463V16.6743H114.378V22.3859Z" fill="#00001C"/>
<path d="M124.423 15.253V16.7006H123.515V17.6499H124.423V20.8754C124.423 21.9768 124.921 22.4173 126.174 22.4173C126.395 22.4173 126.604 22.3911 126.788 22.3596V21.4208C126.631 21.4366 126.531 21.447 126.358 21.447C125.797 21.447 125.55 21.1848 125.55 20.5869V17.6499H126.788V16.7006H125.55V15.253H124.423Z" fill="#00001C"/>
<path d="M128.302 22.3859H129.429V19.0502C129.429 18.1848 129.943 17.6026 130.866 17.6026C131.663 17.6026 132.088 18.0642 132.088 18.9768V22.3859H133.216V18.6988C133.216 17.3404 132.466 16.5694 131.249 16.5694C130.389 16.5694 129.786 16.9523 129.508 17.5922H129.419V14.4453H128.302V22.3859Z" fill="#00001C"/>
<path d="M137.284 17.524C138.118 17.524 138.663 18.1061 138.689 19.003H135.805C135.868 18.1114 136.45 17.524 137.284 17.524ZM138.684 20.8439C138.474 21.2897 138.007 21.5362 137.326 21.5362C136.424 21.5362 135.841 20.9016 135.805 19.8998V19.8369H139.838V19.4436C139.838 17.6499 138.878 16.5642 137.289 16.5642C135.679 16.5642 134.656 17.7233 134.656 19.5484C134.656 21.3736 135.658 22.496 137.294 22.496C138.6 22.496 139.513 21.8666 139.77 20.8439H138.684Z" fill="#00001C"/>
<path d="M38.699 29.4639C38.7264 27.3396 39.8672 25.3296 41.6769 24.217C40.5352 22.5865 38.6229 21.5527 36.6334 21.4904C34.5114 21.2677 32.4542 22.7602 31.3728 22.7602C30.2706 22.7602 28.6057 21.5125 26.8129 21.5494C24.476 21.6249 22.2975 22.9535 21.1605 24.9966C18.7166 29.2279 20.5396 35.4465 22.8807 38.8667C24.052 40.5416 25.4209 42.4124 27.2121 42.346C28.9649 42.2733 29.6195 41.2283 31.7353 41.2283C33.8314 41.2283 34.4456 42.346 36.2731 42.3038C38.1539 42.2733 39.339 40.6216 40.4692 38.9309C41.3107 37.7376 41.9583 36.4186 42.3879 35.023C40.1776 34.0881 38.7016 31.8638 38.699 29.4639Z" fill="#00001C"/>
<path d="M35.247 19.2411C36.2726 18.01 36.7778 16.4277 36.6554 14.8301C35.0887 14.9946 33.6415 15.7434 32.6021 16.9273C31.5857 18.084 31.0568 19.6385 31.1568 21.175C32.7241 21.1911 34.2649 20.4626 35.247 19.2411Z" fill="#00001C"/>
</svg>
