<svg width="24" height="32" viewBox="0 0 24 32" fill="none" xmlns="http://www.w3.org/2000/svg">
<path d="M23.1741 16.0049C23.1741 9.51382 18.7881 4.02847 12.8244 2.35547L12.428 5.80234C16.6868 7.23706 19.7624 11.2685 19.7624 16.0049C19.7624 20.4933 17.0004 24.348 13.0869 25.9605L11.0156 30.035C17.8798 29.0534 23.1741 23.1363 23.1741 16.0049Z" fill="white"/>
<path d="M17.1155 14.288C17.2498 14.0237 17.2371 13.7334 17.082 13.4807C16.927 13.228 16.6517 13.1272 16.3551 13.1272H9.87068L11.2666 0.991521C11.3141 0.580093 11.0591 0.153846 10.6619 0.0359293C10.5799 0.0116211 10.4968 0 10.4148 0C10.0999 0 9.80224 0.17922 9.65564 0.473584L0.886225 18.0945C0.754662 18.3588 0.769162 18.7107 0.924607 18.9619C1.08016 19.213 1.35437 19.4175 1.6498 19.4175H8.04874L6.73694 31.0964C6.6911 31.5063 6.94495 31.851 7.34007 31.9691C7.4212 31.9934 7.5034 32 7.58453 32C7.89884 32 8.19651 31.8255 8.34502 31.5332L17.1155 14.288Z" fill="white"/>
</svg>
