<svg width="134" height="134" viewBox="0 0 134 134" fill="none" xmlns="http://www.w3.org/2000/svg">
<circle cx="67" cy="67" r="66" fill="white" stroke="#0F7FE5" stroke-width="2"/>
<path fill-rule="evenodd" clip-rule="evenodd" d="M59.8333 67C63.6353 67 67.2795 65.4914 69.967 62.8003C72.6581 60.1128 74.1667 56.4686 74.1667 52.6667V49.0833C74.1667 45.2814 72.6581 41.6372 69.967 38.9497C67.2795 36.2586 63.6353 34.75 59.8333 34.75C56.0314 34.75 52.3872 36.2586 49.6997 38.9497C47.0086 41.6372 45.5 45.2814 45.5 49.0833V52.6667C45.5 56.4686 47.0086 60.1128 49.6997 62.8003C52.3872 65.4914 56.0314 67 59.8333 67Z" fill="url(#paint0_linear_151_153)"/>
<path fill-rule="evenodd" clip-rule="evenodd" d="M84.9141 99.2494C86.8921 99.2494 88.4974 97.644 88.4974 95.666V89.7679C88.4974 85.3711 85.8206 81.4187 81.7392 79.7883C76.4323 77.6634 68.3268 74.424 68.3268 74.424C67.904 74.252 67.4525 74.166 66.9974 74.166H52.6641C52.209 74.166 51.7575 74.252 51.3346 74.424C51.3346 74.424 43.2291 77.6634 37.9222 79.7883C33.8408 81.4187 31.1641 85.3711 31.1641 89.7679V95.666C31.1641 97.644 32.7694 99.2494 34.7474 99.2494H84.9141Z" fill="url(#paint1_linear_151_153)"/>
<path fill-rule="evenodd" clip-rule="evenodd" d="M88.5026 41.9167H84.9193C82.9413 41.9167 81.3359 43.522 81.3359 45.5C81.3359 47.478 82.9413 49.0833 84.9193 49.0833H88.5026V52.6667C88.5026 54.6447 90.1079 56.25 92.0859 56.25C94.0639 56.25 95.6693 54.6447 95.6693 52.6667V49.0833H99.2526C101.231 49.0833 102.836 47.478 102.836 45.5C102.836 43.522 101.231 41.9167 99.2526 41.9167H95.6693V38.3333C95.6693 36.3553 94.0639 34.75 92.0859 34.75C90.1079 34.75 88.5026 36.3553 88.5026 38.3333V41.9167Z" fill="url(#paint2_linear_151_153)"/>
<defs>
<linearGradient id="paint0_linear_151_153" x1="52.3334" y1="60.7435" x2="67.3082" y2="41.1606" gradientUnits="userSpaceOnUse">
<stop stop-color="#FFA726"/>
<stop offset="1" stop-color="#FFE0B2"/>
</linearGradient>
<linearGradient id="paint1_linear_151_153" x1="47.9556" y1="98.7513" x2="64.7721" y2="72.8366" gradientUnits="userSpaceOnUse">
<stop stop-color="#039BE5"/>
<stop offset="1" stop-color="#81D4FA"/>
</linearGradient>
<linearGradient id="paint2_linear_151_153" x1="86.8901" y1="53.8312" x2="97.486" y2="38.8565" gradientUnits="userSpaceOnUse">
<stop stop-color="#64DD17"/>
<stop offset="1" stop-color="#CCFF90"/>
</linearGradient>
</defs>
</svg>
