<svg width="134" height="134" viewBox="0 0 134 134" fill="none" xmlns="http://www.w3.org/2000/svg">
<circle cx="67" cy="67" r="66" fill="white" stroke="#390FE1" stroke-width="2"/>
<g clip-path="url(#clip0_151_156)">
<path d="M54.1914 92.9102H79.809V106.717H54.1914V92.9102Z" fill="#3F3A52"/>
<path d="M72.9688 92.9102H79.8063V106.719H72.9688V92.9102Z" fill="#00001C"/>
<path d="M109.466 86.6113V91.0477C109.466 93.0182 107.868 94.6177 105.896 94.6177H28.1013C26.1291 94.6177 24.5312 93.0182 24.5312 91.0477V86.6113L66.9984 84.5059L109.466 86.6113Z" fill="#4D4D5C"/>
<path d="M72.9688 94.6172H79.8063V94.6189H72.9688V94.6172Z" fill="#537983"/>
<path d="M109.466 86.6124V91.0487C109.466 93.0192 107.868 94.6187 105.896 94.6187H99.0586C101.031 94.6187 102.629 93.0192 102.629 91.0487V86.6124L103.942 86.3379L109.466 86.6124Z" fill="#00001C"/>
<path d="M72.9688 94.6172H79.8063V94.6189H72.9688V94.6172Z" fill="#537983"/>
<path d="M109.466 46.6501V86.612H24.5312V46.6501C24.5312 44.678 26.1291 43.0801 28.1013 43.0801H105.896C107.868 43.0801 109.466 44.678 109.466 46.6501Z" fill="#DCF4F7"/>
<path d="M31.5755 74.3011C31.5755 75.0086 31.0012 75.5829 30.2938 75.5829H24.5312V73.0195H30.2938C31.0012 73.0195 31.5755 73.5936 31.5755 74.3011Z" fill="#CB97E7"/>
<path d="M79.3984 43.0801V46.1084C79.3984 46.8876 78.7678 47.5183 77.9901 47.5183H74.9841C74.2049 47.5183 73.5742 46.8878 73.5742 46.1084V43.0801H79.3984Z" fill="#B9F0F1"/>
<path d="M54.7136 43.0801L52.0135 46.8278C51.3503 47.7489 49.9782 47.7489 49.3134 46.8278L46.6133 43.0801H54.7136Z" fill="#B9F0F1"/>
<path d="M109.466 46.6501V86.612H102.629V46.6501C102.629 44.678 101.031 43.0801 99.0586 43.0801H105.896C107.868 43.0801 109.466 44.678 109.466 46.6501Z" fill="#B9F0F1"/>
<path d="M32.7925 80.5111C31.4121 80.5111 30.293 79.3921 30.293 78.0116V69.1245C30.293 67.7442 31.412 66.625 32.7925 66.625C34.1729 66.625 35.2921 67.744 35.2921 69.1245V78.0116C35.2919 79.3921 34.1729 80.5111 32.7925 80.5111Z" fill="#68CA44"/>
<path d="M42.5659 73.5678C41.1856 73.5678 40.0664 72.4488 40.0664 71.0682V62.1812C40.0664 60.8008 41.1854 59.6816 42.5659 59.6816C43.9463 59.6816 45.0655 60.8006 45.0655 62.1812V71.0682C45.0655 72.4488 43.9463 73.5678 42.5659 73.5678Z" fill="#68CA44"/>
<path d="M52.3394 66.6244C50.959 66.6244 49.8398 65.5054 49.8398 64.1249V55.2378C49.8398 53.8575 50.9589 52.7383 52.3394 52.7383C53.7198 52.7383 54.8389 53.8573 54.8389 55.2378V64.1249C54.8389 65.5054 53.7199 66.6244 52.3394 66.6244Z" fill="#CB97E7"/>
<path d="M62.1128 75.5385C60.7325 75.5385 59.6133 74.4195 59.6133 73.0389V64.1519C59.6133 62.7715 60.7323 61.6523 62.1128 61.6523C63.4932 61.6523 64.6124 62.7714 64.6124 64.1519V73.0389C64.6122 74.4195 63.4932 75.5385 62.1128 75.5385Z" fill="#FE5694"/>
<path d="M71.8863 80.5111C70.5059 80.5111 69.3867 79.3921 69.3867 78.0116V69.1245C69.3867 67.7442 70.5057 66.625 71.8863 66.625C73.2666 66.625 74.3858 67.744 74.3858 69.1245V78.0116C74.3858 79.3921 73.2668 80.5111 71.8863 80.5111Z" fill="#FE5694"/>
<path d="M81.6597 73.5678C80.2793 73.5678 79.1602 72.4488 79.1602 71.0682V62.1812C79.1602 60.8008 80.2792 59.6816 81.6597 59.6816C83.0401 59.6816 84.1592 60.8006 84.1592 62.1812V71.0682C84.1591 72.4488 83.0401 73.5678 81.6597 73.5678Z" fill="#68CA44"/>
<path d="M91.4292 68.0131C90.0489 68.0131 88.9297 66.8941 88.9297 65.5136V56.6265C88.9297 55.2461 90.0487 54.127 91.4292 54.127C92.8096 54.127 93.9288 55.246 93.9288 56.6265V65.5136C93.9288 66.8941 92.8096 68.0131 91.4292 68.0131Z" fill="#68CA44"/>
<path d="M101.203 68.0131C99.8223 68.0131 98.7031 66.8941 98.7031 65.5136V56.6265C98.7031 55.2461 99.8221 54.127 101.203 54.127C102.583 54.127 103.702 55.246 103.702 56.6265V65.5136C103.702 66.8941 102.583 68.0131 101.203 68.0131Z" fill="#68CA44"/>
<path d="M102.629 54.5742V67.5661C103.278 67.1146 103.704 66.3643 103.704 65.5137V56.6266C103.704 55.776 103.278 55.0257 102.629 54.5742Z" fill="#4FC123"/>
<path d="M88.2611 36.916H83.9426C83.324 36.916 82.8216 37.4167 82.8216 38.037V46.1065C82.8216 46.8857 82.1911 47.5165 81.4134 47.5165H78.4074C78.3681 47.5165 78.3288 47.5148 78.2895 47.5113C78.2587 47.5096 78.228 47.5062 78.1989 47.501C77.5205 47.4002 76.9976 46.8157 76.9976 46.1065V38.0372C76.9976 37.4168 76.4969 36.9161 75.8766 36.9161H71.5615C70.2046 36.9161 69.4185 35.3797 70.2114 34.2792L78.5612 22.6909C79.2244 21.7697 80.5965 21.7697 81.2613 22.6909L89.6112 34.2792C90.4041 35.3797 89.6163 36.916 88.2611 36.916Z" fill="#A2E62E"/>
<path d="M83.9468 36.916C83.3282 36.916 82.8258 37.4167 82.8258 38.037V46.1066C82.8258 46.8858 82.1952 47.5165 81.4175 47.5165H78.4116C78.3723 47.5165 78.333 47.5148 78.2937 47.5113C78.2629 47.5096 78.2322 47.5063 78.2031 47.5011C78.8832 47.4003 79.4044 46.8158 79.4044 46.1066V38.4012C79.4044 37.5808 80.0693 36.9162 80.8894 36.9162L83.9468 36.916Z" fill="#97D729"/>
<path d="M88.2634 36.9163H84.842C86.1972 36.9163 86.985 35.3799 86.1903 34.2794L79.3938 24.834C78.9255 24.1863 78.1087 23.9931 77.4336 24.258L78.5632 22.6909C79.2263 21.7697 80.5985 21.7697 81.2633 22.6909L89.6132 34.2792C90.4063 35.3801 89.6186 36.9163 88.2634 36.9163Z" fill="#97D729"/>
<path d="M63.7868 35.239L55.4369 46.8273C54.7738 47.7484 53.4016 47.7484 52.7368 46.8273L44.3869 35.239C43.594 34.1384 44.3819 32.602 45.7371 32.602H50.0777C50.6844 32.602 51.1766 32.1116 51.1766 31.5048V23.4098C51.1766 22.7023 51.6978 22.1161 52.3779 22.0153H52.3796C52.3864 22.0136 52.3932 22.0136 52.4017 22.0119C52.4222 22.0086 52.4444 22.0067 52.4667 22.005C52.506 22.0017 52.5453 22 52.5846 22H55.5906C56.3681 22 57.0005 22.6322 57.0005 23.4099V31.5052C57.0005 32.1119 57.491 32.6024 58.0977 32.6024H62.4367C63.7935 32.6022 64.5796 34.1384 63.7868 35.239Z" fill="#FE5694"/>
<path d="M58.0969 32.6022H55.0619C54.2415 32.6022 53.5769 31.9374 53.5769 31.1172V23.4098C53.5769 22.7023 53.0573 22.1177 52.3789 22.0153C52.3858 22.0136 52.3925 22.0136 52.4011 22.0119C52.4216 22.0086 52.4437 22.0067 52.4661 22.005C52.5054 22.0017 52.5447 22 52.584 22H55.59C56.3675 22 56.9999 22.6322 56.9999 23.4099V31.5052C56.9997 32.1117 57.4902 32.6022 58.0969 32.6022Z" fill="#FD3581"/>
<path d="M63.787 35.2385L55.4371 46.8268C54.7739 47.748 53.4018 47.748 52.737 46.8268L51.4297 45.0119C52.1405 45.4495 53.1181 45.299 53.6462 44.566L60.3658 35.2385C61.1588 34.138 60.3727 32.6016 59.0157 32.6016H62.437C63.7937 32.6017 64.5798 34.138 63.787 35.2385Z" fill="#FD3581"/>
<path d="M87.6973 108.001H46.2974C45.5896 108.001 45.0156 107.427 45.0156 106.719C45.0156 106.011 45.5894 105.438 46.2974 105.438H87.6972C88.405 105.438 88.9789 106.011 88.9789 106.719C88.9789 107.427 88.4051 108.001 87.6973 108.001Z" fill="#00001C"/>
<path d="M104.984 74.9732C104.984 75.6807 104.41 76.2549 103.702 76.2549H88.9302C88.2227 76.2549 87.6484 75.6807 87.6484 74.9732C87.6484 74.2657 88.2227 73.6914 88.9302 73.6914H103.702C104.41 73.6914 104.984 74.2657 104.984 74.9732Z" fill="#CB97E7"/>
<path d="M104.986 74.973C104.986 75.6805 104.411 76.2548 103.704 76.2548H102.629V73.6914H103.704C104.412 73.6912 104.986 74.2655 104.986 74.973Z" fill="#BD80E1"/>
<path d="M54.1903 76.253H49.8404C49.1325 76.253 48.5586 75.6792 48.5586 74.9712C48.5586 74.2634 49.1324 73.6895 49.8404 73.6895H54.1903C54.8981 73.6895 55.472 74.2632 55.472 74.9712C55.472 75.6792 54.8981 76.253 54.1903 76.253Z" fill="#CB97E7"/>
</g>
<defs>
<clipPath id="clip0_151_156">
<rect width="86" height="86" fill="white" transform="translate(24 22)"/>
</clipPath>
</defs>
</svg>
