<svg width="134" height="134" viewBox="0 0 134 134" fill="none" xmlns="http://www.w3.org/2000/svg">
<circle cx="67" cy="67" r="66" fill="white" stroke="#6E0DBB" stroke-width="2"/>
<g clip-path="url(#clip0_151_158)">
<path d="M100.878 36.0918H92.3861C91.7359 36.0918 91.2089 36.6187 91.2089 37.269V41.0424C91.2089 42.3199 90.1695 43.3591 88.8923 43.3591C87.6148 43.3591 86.5758 42.3198 86.5758 41.0424V37.269C86.5758 36.6187 86.0488 36.0918 85.3986 36.0918H43.7372C43.087 36.0918 42.56 36.6187 42.56 37.269V41.0424C42.56 42.3199 41.5206 43.3591 40.2434 43.3591C38.9663 43.3591 37.9269 42.3198 37.9269 41.0424V37.269C37.9269 36.6187 37.3998 36.0918 36.7497 36.0918H28.1772C27.527 36.0918 27 36.6187 27 37.2688V94.164C27 94.8143 27.527 95.3412 28.1772 95.3412H67.6042C68.0078 95.3412 68.383 95.1346 68.5987 94.7935C68.8144 94.4526 68.8408 94.0251 68.668 93.6602C67.4683 91.1263 66.8598 88.4102 66.8598 85.5868C66.8598 75.1693 75.3352 66.6938 85.7528 66.6938C91.2091 66.6938 96.3986 69.0538 99.9905 73.1687C100.313 73.5384 100.831 73.6691 101.291 73.4966C101.75 73.3243 102.054 72.8851 102.054 72.3945V37.2688C102.055 36.6188 101.528 36.0918 100.878 36.0918Z" fill="#EFE7E4"/>
<path d="M102.054 46.0859H27V54.8458H102.054V46.0859Z" fill="#D8D1D0"/>
<path d="M47.5116 56.7539H39.9272C39.277 56.7539 38.75 57.2808 38.75 57.9311V65.5153C38.75 66.1656 39.277 66.6925 39.9272 66.6925H47.5116C48.1617 66.6925 48.6888 66.1656 48.6888 65.5153V57.9311C48.6888 57.2809 48.1617 56.7539 47.5116 56.7539Z" fill="#465A65"/>
<path d="M61.41 56.7539H53.8256C53.1755 56.7539 52.6484 57.2808 52.6484 57.9311V65.5153C52.6484 66.1656 53.1755 66.6925 53.8256 66.6925H61.41C62.0602 66.6925 62.5872 66.1656 62.5872 65.5153V57.9311C62.587 57.2809 62.0602 56.7539 61.41 56.7539Z" fill="#465A65"/>
<path d="M75.3084 56.7539H67.7241C67.0739 56.7539 66.5469 57.2808 66.5469 57.9311V65.5153C66.5469 66.1656 67.0739 66.6925 67.7241 66.6925H75.3084C75.9586 66.6925 76.4856 66.1656 76.4856 65.5153V57.9311C76.4856 57.2809 75.9586 56.7539 75.3084 56.7539Z" fill="#465A65"/>
<path d="M89.2069 56.7539H81.6225C80.9723 56.7539 80.4453 57.2808 80.4453 57.9311V65.5153C80.4453 66.1656 80.9723 66.6925 81.6225 66.6925H89.2069C89.857 66.6925 90.3841 66.1656 90.3841 65.5153V57.9311C90.3841 57.2809 89.8569 56.7539 89.2069 56.7539Z" fill="#465A65"/>
<path d="M47.5116 73.0371H39.9272C39.277 73.0371 38.75 73.564 38.75 74.2143V81.7987C38.75 82.449 39.277 82.9759 39.9272 82.9759H47.5116C48.1617 82.9759 48.6888 82.449 48.6888 81.7987V74.2143C48.6888 73.564 48.1617 73.0371 47.5116 73.0371Z" fill="#465A65"/>
<path d="M61.41 73.0352H53.8256C53.1755 73.0352 52.6484 73.562 52.6484 74.2123V81.7967C52.6484 82.447 53.1755 82.9739 53.8256 82.9739H61.41C62.0602 82.9739 62.5872 82.447 62.5872 81.7967V74.2123C62.587 73.562 62.0602 73.0352 61.41 73.0352Z" fill="#465A65"/>
<path d="M100.917 36.0918H92.3847C91.7345 36.0918 91.2075 36.6187 91.2075 37.269V41.0424C91.2075 42.3199 90.1681 43.3591 88.8909 43.3591C87.6134 43.3591 86.5744 42.3198 86.5744 41.0424V37.269C86.5744 36.6187 86.0473 36.0918 85.3972 36.0918H43.7358C43.0856 36.0918 42.5586 36.6187 42.5586 37.269V41.0424C42.5586 42.3199 41.5192 43.3591 40.242 43.3591C38.9648 43.3591 37.9255 42.3198 37.9255 41.0424V37.269C37.9255 36.6187 37.3984 36.0918 36.7483 36.0918H28.2163C27.5661 36.0918 27.0391 36.6187 27.0391 37.269V50.0104C27.0391 50.6607 27.5661 51.1876 28.2163 51.1876H100.917C101.567 51.1876 102.094 50.6607 102.094 50.0104V37.2688C102.094 36.6188 101.567 36.0918 100.917 36.0918Z" fill="#E93234"/>
<path d="M27.0391 46.0859V50.0097C27.0391 50.66 27.5661 51.1869 28.2163 51.1869H100.917C101.567 51.1869 102.094 50.66 102.094 50.0097V46.0859H27.0391Z" fill="#B32425"/>
<path d="M85.755 64.3398C74.0394 64.3398 64.5078 73.8714 64.5078 85.587C64.5078 97.3027 74.0394 106.834 85.755 106.834C97.4708 106.834 107.002 97.3025 107.002 85.587C107.002 73.8713 97.4708 64.3398 85.755 64.3398Z" fill="#FFD039"/>
<path d="M85.7494 64.3398C84.9198 64.3398 84.1019 64.3892 83.2969 64.4822C93.8614 65.702 102.092 74.7006 102.092 85.587C102.092 96.4731 93.8616 105.472 83.2969 106.692C84.1019 106.785 84.9198 106.834 85.7494 106.834C97.4652 106.834 106.997 97.3025 106.997 85.587C106.997 73.8713 97.4652 64.3398 85.7494 64.3398Z" fill="#FFAE47"/>
<path d="M82.7098 94.084C81.9994 94.084 81.3178 93.8016 80.8155 93.2995L74.7222 87.206C73.6759 86.1598 73.6759 84.4634 74.7222 83.4171C75.7684 82.3709 77.4647 82.3709 78.5109 83.4171L82.71 87.6162L93.0023 77.3238C94.0486 76.2776 95.7448 76.2774 96.7911 77.3237C97.8373 78.3699 97.8373 80.0662 96.7911 81.1126L84.6042 93.2993C84.1019 93.8016 83.4203 94.084 82.7098 94.084Z" fill="#00B76C"/>
<path d="M40.2413 27.166C37.6656 27.166 35.5703 29.2615 35.5703 31.8371V41.0416C35.5703 43.6173 37.6656 45.7127 40.2413 45.7127C42.8169 45.7127 44.9122 43.6173 44.9122 41.0416V31.8371C44.9123 29.2613 42.8169 27.166 40.2413 27.166Z" fill="#FFD039"/>
<path d="M40.245 27.166C39.4633 27.166 38.7264 27.3601 38.0781 27.7009C39.5653 28.483 40.5822 30.043 40.5822 31.8368V41.0413C40.5822 42.8351 39.5653 44.3951 38.0781 45.1773C38.7262 45.5182 39.4633 45.7123 40.245 45.7123C42.8206 45.7123 44.9159 43.6168 44.9159 41.0412V31.8371C44.9161 29.2613 42.8206 27.166 40.245 27.166Z" fill="#F4B008"/>
<path d="M88.8897 27.166C86.3141 27.166 84.2188 29.2615 84.2188 31.8371V41.0416C84.2188 43.6173 86.3142 45.7127 88.8897 45.7127C91.4653 45.7127 93.5606 43.6173 93.5606 41.0416V31.8371C93.5608 29.2613 91.4653 27.166 88.8897 27.166Z" fill="#FFD039"/>
<path d="M88.8934 27.166C88.1117 27.166 87.3748 27.3601 86.7266 27.7009C88.2137 28.483 89.2306 30.043 89.2306 31.8368V41.0413C89.2306 42.8351 88.2137 44.3951 86.7266 45.1773C87.3747 45.5182 88.1117 45.7123 88.8934 45.7123C91.4691 45.7123 93.5644 43.6168 93.5644 41.0412V31.8371C93.5645 29.2613 91.4691 27.166 88.8934 27.166Z" fill="#F4B008"/>
</g>
<defs>
<clipPath id="clip0_151_158">
<rect width="80" height="80" fill="white" transform="translate(27 27)"/>
</clipPath>
</defs>
</svg>
