<svg width="129" height="150" viewBox="0 0 129 150" fill="none" xmlns="http://www.w3.org/2000/svg">
<path fill-rule="evenodd" clip-rule="evenodd" d="M75.1999 20.7308C85.8372 24.6391 95.9486 33.0092 103.914 40.8136C120.5 57.0639 122.975 60.4795 143.437 74.1232C155.363 82.0748 164.764 88.799 169.398 97.7936C182.411 123.057 166.912 150.345 134.432 150.345C133.108 150.345 2.40119 150.345 2.40119 150.345C2.40119 150.345 -13.1291 150.692 -24.4621 137.187C-62.876 91.4181 0.833979 -6.59853 75.1999 20.7308Z" fill="#F7F8FB"/>
<path d="M86.5769 5.62288C84.7326 0.94582 79.3713 -1.28771 74.7391 0.764465C70.6836 2.55893 68.4771 7.77528 70.0069 11.9417C70.8123 14.137 72.3897 15.817 74.3102 16.7953C75.1299 17.2105 75.8495 17.8023 76.3404 18.585L77.5985 20.599C78.4468 21.964 80.1481 22.5223 81.6397 21.9353L84.8136 20.6802C86.3052 20.0884 87.163 18.5182 86.858 16.9385L86.3815 14.5188C86.2147 13.6646 86.3291 12.7912 86.6341 11.9751C87.3727 9.9945 87.4109 7.74188 86.5769 5.62288Z" fill="#407BFF"/>
<path d="M82.044 25.9528C81.8439 25.9528 81.6437 25.9099 81.4531 25.8287C81.0909 25.6712 80.8097 25.3801 80.662 25.0126C80.3617 24.2538 80.7382 23.39 81.496 23.0893L85.704 21.4237C86.0709 21.2805 86.476 21.2853 86.8382 21.4428C87.2004 21.6003 87.4816 21.8914 87.6293 22.2589C87.7723 22.6264 87.7675 23.0273 87.6102 23.3947C87.453 23.7575 87.1623 24.039 86.7953 24.187L82.5873 25.8526C82.411 25.9146 82.2299 25.9528 82.044 25.9528ZM86.2473 21.796C86.1234 21.796 85.9995 21.8198 85.8803 21.8675L81.6723 23.5331C81.1576 23.7384 80.9003 24.3254 81.1052 24.8408C81.2053 25.089 81.3959 25.2847 81.6389 25.3944C81.8867 25.5042 82.1584 25.509 82.4062 25.4087L86.6142 23.7431C86.862 23.6429 87.0574 23.452 87.167 23.2086C87.2766 22.9604 87.2814 22.6884 87.1813 22.4402C87.0812 22.1921 86.8906 21.9964 86.6476 21.8866C86.5189 21.8246 86.3855 21.796 86.2473 21.796Z" fill="#263238"/>
<path d="M84.1885 28.516C84.0646 28.516 83.9407 28.4921 83.8216 28.4396C83.5928 28.3394 83.4212 28.1628 83.3307 27.9337L83.2592 27.7476C83.0734 27.2751 83.3069 26.7358 83.7787 26.5497L86.4093 25.5093C86.8811 25.3232 87.4196 25.557 87.6054 26.0295L87.6769 26.2156C87.7675 26.4447 87.7627 26.6929 87.6626 26.922C87.5625 27.1511 87.3862 27.3229 87.1575 27.4135L84.5269 28.4539C84.4173 28.4969 84.3029 28.516 84.1885 28.516ZM86.7429 25.9197C86.6904 25.9197 86.6333 25.9293 86.5808 25.9532L83.9502 26.9936C83.7215 27.0842 83.6071 27.3467 83.6977 27.5758L83.7691 27.7619C83.812 27.8717 83.8978 27.9624 84.0074 28.0053C84.117 28.0531 84.2409 28.0531 84.3505 28.0101L86.9811 26.9697C87.0908 26.9267 87.1765 26.8408 87.2242 26.7311C87.2718 26.6213 87.2718 26.502 87.229 26.3875L87.1575 26.2013C87.0908 26.0295 86.9192 25.9197 86.7429 25.9197Z" fill="#263238"/>
<path d="M76.374 14.0843C75.6592 14.0843 74.9873 13.6548 74.7108 12.9532C74.3487 12.0369 74.8014 10.9917 75.7164 10.629C76.6361 10.2663 77.675 10.7197 78.0372 11.636L78.6949 13.3016L77.0317 13.9602C76.8125 14.0461 76.5885 14.0843 76.374 14.0843ZM76.3693 10.9822C76.2072 10.9822 76.0452 11.0108 75.8879 11.0728C75.216 11.3401 74.8824 12.1037 75.1493 12.7766C75.4162 13.4495 76.1786 13.7836 76.8506 13.5164L78.0706 13.0343L77.5893 11.8126C77.3843 11.2971 76.8935 10.9822 76.3693 10.9822Z" fill="white"/>
<path d="M81.6445 22.0974L78.0703 13.0345L81.3538 11.7363L84.928 20.7993L84.4848 20.9711L81.0869 12.3568L78.6898 13.3017L82.0877 21.9209L81.6445 22.0974Z" fill="white"/>
<path d="M81.0872 12.3571L80.4296 10.6915C80.0674 9.77517 80.5201 8.72999 81.4351 8.36728C82.3501 8.00457 83.3938 8.45795 83.756 9.37428C84.1182 10.2906 83.6654 11.3358 82.7504 11.6985L81.0872 12.3571ZM82.0928 8.72044C81.9355 8.72044 81.7687 8.74908 81.6115 8.81112C80.9395 9.07838 80.6059 9.84198 80.8728 10.5149L81.3541 11.7367L82.5741 11.2546C83.2461 10.9874 83.5797 10.2238 83.3128 9.55086C83.1079 9.03543 82.6122 8.72044 82.0928 8.72044Z" fill="white"/>
<path d="M88.4868 35.1021C86.6854 35.1021 84.8887 34.9541 83.1445 34.6678L83.2208 34.1953C84.9364 34.4817 86.7092 34.6248 88.4868 34.6248V35.1021Z" fill="#407BFF"/>
<path d="M98.3476 40.0431L98.6001 39.5277C99.6438 37.3991 99.5342 34.8984 99.1005 33.2948C97.2944 33.9486 95.3738 34.4354 93.3913 34.7361L93.3198 34.2636C95.3595 33.9534 97.3277 33.4475 99.172 32.7603L99.4103 32.6744L99.4865 32.9178C99.9631 34.4688 100.158 36.9792 99.2625 39.2222C105.119 36.8885 111.234 28.6034 111.234 18.7339C111.234 9.96676 101.031 2.83663 88.4923 2.83663C75.954 2.83663 65.7509 9.96676 65.7509 18.7339C65.7509 25.1052 71.1693 30.8417 79.552 33.3521L79.4138 33.8102C70.8215 31.2378 65.2695 25.3199 65.2695 18.7339C65.2695 9.70427 75.6871 2.35938 88.4875 2.35938C101.293 2.35938 111.706 9.70427 111.706 18.7339C111.706 29.1093 105.053 37.7809 98.8861 39.8665L98.3476 40.0431Z" fill="#407BFF"/>
<path d="M113.995 20.0029L98.1165 22.8426C96.9823 23.043 95.8909 22.2842 95.686 21.1483L93.9942 11.6749C93.7893 10.539 94.5518 9.44611 95.686 9.2409L111.565 6.40125C112.699 6.20081 113.791 6.95963 113.995 8.09549L115.687 17.5689C115.892 18.7048 115.13 19.8025 113.995 20.0029Z" fill="#407BFF"/>
<path d="M107.751 14.1043L102.133 12.0664L103.186 17.9605L107.751 14.1043Z" fill="white"/>
<path d="M47.9432 98.1432H7.44991C6.61593 98.1432 5.92969 97.4608 5.92969 96.6208V94.4541C5.92969 93.6189 6.61117 92.9316 7.44991 92.9316H47.9432C48.7772 92.9316 49.4634 93.6141 49.4634 94.4541V96.6208C49.4634 97.456 48.7772 98.1432 47.9432 98.1432Z" fill="#407BFF"/>
<path d="M47.4866 147.137H48.6923L47.3008 98.1426H45.6328L47.4866 147.137Z" fill="#407BFF"/>
<path opacity="0.3" d="M47.4866 147.137H48.6923L47.3008 98.1426H45.6328L47.4866 147.137Z" fill="white"/>
<path d="M36.3659 147.137H35.1602L36.5469 98.1426H38.2197L36.3659 147.137Z" fill="#407BFF"/>
<path opacity="0.3" d="M36.3659 147.137H35.1602L36.5469 98.1426H38.2197L36.3659 147.137Z" fill="white"/>
<path d="M19.0296 147.137H20.2353L18.8437 98.1426H17.1758L19.0296 147.137Z" fill="#407BFF"/>
<path opacity="0.3" d="M19.0296 147.137H20.2353L18.8437 98.1426H17.1758L19.0296 147.137Z" fill="white"/>
<path d="M7.91273 147.137H6.70703L8.09382 98.1426H9.76655L7.91273 147.137Z" fill="#407BFF"/>
<path opacity="0.3" d="M7.91273 147.137H6.70703L8.09382 98.1426H9.76655L7.91273 147.137Z" fill="white"/>
<path d="M60.3594 134.687L64.6532 133.227L61.1219 123.176L56.8281 124.636L60.3594 134.687Z" fill="#FFC3BD"/>
<path d="M64.3383 131.569L59.6251 133.64C59.4536 133.717 59.3868 133.884 59.4679 134.051L61.255 137.688C61.4408 138.065 62.0032 138.251 62.3939 138.074C64.019 137.325 64.7529 136.891 66.8212 135.979C68.0984 135.421 70.667 134.418 72.2587 133.397C73.8123 132.395 72.6018 130.887 71.8203 131.187C69.9665 131.894 66.8879 131.865 65.2009 131.502C64.8959 131.431 64.5909 131.459 64.3383 131.569Z" fill="#263238"/>
<path opacity="0.2" d="M56.8281 124.64L61.1219 123.18L63.1425 128.926L58.7725 130.181L56.8281 124.64Z" fill="black"/>
<path d="M29.9124 79.3438C29.9124 79.3438 51.3671 83.219 53.0875 90.2728C56.4853 104.218 64.1484 126.028 64.1484 126.028L55.9897 128.396C55.9897 128.396 44.3283 103.388 42.8557 94.969C30.8274 94.9546 16.1588 95.9425 14.2621 90.8216C12.5894 86.2973 13.1851 79.3438 13.1851 79.3438H29.9124Z" fill="#263238"/>
<path d="M55.5369 129.842L65.0728 126.692L64.2579 122.383L53.8594 126.043L55.5369 129.842Z" fill="#407BFF"/>
<path d="M41.6748 136.212L46.4261 136.575L43.6334 124.844L39.2109 125.846L41.6748 136.212Z" fill="#FFC3BD"/>
<path d="M46.2983 135.429L41.1848 134.861C40.999 134.842 40.856 134.957 40.8465 135.138L40.5796 139.185C40.551 139.605 40.9418 140.049 41.3707 140.087C43.153 140.254 44.0013 140.24 46.2507 140.493C47.6327 140.646 50.3586 141.066 52.2506 140.975C54.0996 140.884 53.7994 138.975 52.9749 138.842C51.0163 138.527 48.3666 136.957 47.0846 135.802C46.8511 135.587 46.57 135.458 46.2983 135.429Z" fill="#263238"/>
<path opacity="0.2" d="M39.2109 125.852L43.6334 124.85L45.044 130.777L40.5644 131.565L39.2109 125.852Z" fill="black"/>
<path d="M18.7659 79.3438C18.7659 79.3438 44.8385 83.2524 43.6423 93.1363C41.9219 107.387 46.3396 127.999 46.3396 127.999L37.976 129.498C37.976 129.498 31.8236 103.879 31.7712 95.3317C23.2884 95.3317 8.46267 95.9378 6.57073 90.8216C4.898 86.2973 5.4937 79.3438 5.4937 79.3438H18.7659Z" fill="#263238"/>
<path d="M37.3818 130.893L47.1894 128.754L46.832 124.383L36.1094 126.941L37.3818 130.893Z" fill="#407BFF"/>
<path d="M32.5081 51.877C33.2039 54.6068 33.8854 57.3606 34.5525 60.1048C35.2197 62.849 35.8726 65.5979 36.5636 68.3087L37.0831 70.3323L37.3499 71.3249L37.4881 71.8165L37.5072 71.8785L37.5167 71.912C37.5215 71.9263 37.5024 71.869 37.4929 71.8499C37.45 71.7401 37.3928 71.6304 37.3547 71.5683C37.3356 71.5302 37.3071 71.492 37.2832 71.4633C37.2642 71.4395 37.2499 71.4156 37.2308 71.3917C37.1831 71.3393 37.1641 71.3154 37.1355 71.2868C37.0306 71.1913 37.0211 71.2056 37.0449 71.2295C37.064 71.2581 37.1403 71.3106 37.2165 71.3679C37.3833 71.4824 37.6168 71.6161 37.8742 71.7401C38.3888 71.9931 38.9893 72.2269 39.6041 72.4656C42.0869 73.3867 44.8224 74.1693 47.4816 75.0141L47.0622 78.0589C45.5801 78.078 44.1362 78.0112 42.6731 77.8871C41.2101 77.7583 39.7518 77.5721 38.2554 77.2667C37.5024 77.1188 36.7495 76.9279 35.9393 76.6654C35.5342 76.5317 35.1196 76.3743 34.6574 76.1595C34.4239 76.045 34.1903 75.9256 33.9187 75.7491C33.6518 75.5725 33.3611 75.3625 33.018 75.0045C32.9322 74.9091 32.8512 74.8232 32.7559 74.6943L32.6225 74.513C32.5748 74.4462 32.5272 74.365 32.4843 74.2887C32.3985 74.1455 32.3079 73.9594 32.2365 73.7637L32.1554 73.5394L31.9743 73.0144L31.6169 71.974C31.3834 71.282 31.1547 70.5947 30.945 69.9027C30.0824 67.149 29.2961 64.4 28.5526 61.6367C27.814 58.8735 27.123 56.1149 26.4844 53.3183L32.5081 51.877Z" fill="#FFC3BD"/>
<path d="M25.8003 48.5748C28.4166 45.654 32.5674 47.6967 34.3116 54.2302C35.1599 57.4087 34.893 59.0743 34.893 59.0743L25.867 61.8567C23.9321 57.5662 22.2404 52.5503 25.8003 48.5748Z" fill="#407BFF"/>
<g opacity="0.2">
<path d="M25.8003 48.5748C28.4166 45.654 32.5674 47.6967 34.3116 54.2302C35.1599 57.4087 34.893 59.0743 34.893 59.0743L25.867 61.8567C23.9321 57.5662 22.2404 52.5503 25.8003 48.5748Z" fill="black"/>
</g>
<path d="M52.1854 73.7644L51.3753 73.5162C50.8844 73.3635 50.3697 73.3206 49.8598 73.3778L48.1204 73.5831C46.9528 73.879 45.9711 74.633 45.4659 75.6209L44.875 76.7711C45.1705 78.9044 49.4786 78.2172 49.4786 78.2172H53.5293L53.3959 75.325C53.3625 74.6044 52.8812 73.9792 52.1854 73.7644Z" fill="#FFC3BD"/>
<path d="M54.977 69.1056C54.896 69.979 54.4337 70.5994 53.9905 71.2294C53.5569 71.8641 53.1089 72.4941 52.6562 73.1193C51.7459 74.3602 50.8166 75.5915 49.792 76.7607C49.692 76.8753 49.5156 76.8896 49.4013 76.7846C49.3059 76.6987 49.2821 76.5603 49.3393 76.4505C50.0446 75.0665 50.8405 73.7445 51.6554 72.4368C52.0652 71.783 52.4846 71.1387 52.9135 70.4992C53.3329 69.8549 53.738 69.1963 54.5195 68.7954C54.672 68.7143 54.8626 68.7763 54.9436 68.9338C54.9722 68.9911 54.9865 69.0484 54.977 69.1056Z" fill="#263238"/>
<path d="M26.4084 45.7454L21.3187 44.2898L14.7756 43.9796C12.7359 43.8841 10.8916 45.1679 10.253 47.1104C9.00443 50.9188 7.86069 56.4311 7.02194 61.1893C6.08312 66.5249 5.59703 72.0515 5.49219 79.3439H29.9064C30.402 65.7613 31.9984 59.1323 32.9468 54.3264C33.5234 51.3913 32.0461 48.4371 29.3488 47.1533L26.4084 45.7454Z" fill="#407BFF"/>
<path d="M19.5859 46.6992C20.2055 48.2932 22.6073 51.696 25.3952 53.0276C26.944 51.906 27.2728 49.4625 27.5111 48.3123L19.5859 46.6992Z" fill="white"/>
<path d="M27.5106 48.3183C27.644 47.6645 27.6535 46.9963 27.3009 46.4379C26.9053 45.8175 27.0054 45.1064 27.401 44.3762C27.6583 43.8989 28.3684 42.8824 28.5685 42.787L25.3708 39.0405L22.764 36.0195C22.54 38.8496 22.3208 42.3527 20.0953 44.5528C19.309 45.3259 19.1469 45.5646 19.5901 46.7052C20.2097 48.2992 22.4257 50.5232 25.2135 51.8547C26.7576 50.7284 27.2771 49.4637 27.5106 48.3183Z" fill="#FFC3BD"/>
<path opacity="0.2" d="M27.5825 42.1421L25.7811 39.207C25.743 39.2786 25.7001 39.3645 25.6572 39.4504C25.5142 39.7654 25.376 40.1568 25.2712 40.5767C24.9376 41.8796 26.0432 43.7409 27.2584 44.6334C27.3061 44.5475 27.349 44.4663 27.4014 44.3804C27.6302 43.9509 28.2735 43.0203 28.4927 42.8389C28.5166 42.815 28.5404 42.8007 28.5642 42.7864L27.5825 42.1421Z" fill="black"/>
<path d="M33.8993 35.1268C34.3186 37.8328 38.1835 30.8697 36.0247 29.3425C33.3846 27.4717 33.1034 29.9773 33.8993 35.1268Z" fill="#263238"/>
<path d="M22.8838 31.5949C22.636 35.9904 22.2595 38.5436 24.2754 41.0826C27.3063 44.9006 33.1251 43.6407 34.7311 39.4313C36.1751 35.642 36.3371 29.0941 32.1195 26.7746C27.9639 24.4934 23.1316 27.1994 22.8838 31.5949Z" fill="#FFC3BD"/>
<path d="M31.5305 28.9556C31.5305 28.9556 34.3374 31.7141 36.339 30.5735C38.3358 29.4329 38.7504 26.4787 36.339 23.892C35.181 22.6463 33.4272 21.4294 29.9865 21.5248C30.239 21.8541 30.9586 22.1214 30.9586 22.1214C30.9586 22.1214 26.5981 21.3912 23.5529 22.6463C23.5529 22.6463 23.9484 23.2572 24.5251 23.534C21.5656 23.3097 18.692 24.4694 20.7317 27.2709C18.0486 27.5286 17.4482 30.9696 18.8778 33.2365C20.3075 35.5035 20.5601 37.2025 22.4711 38.2334C22.4902 35.1455 23.1812 34.4201 23.1812 34.4201C24.5584 33.8379 26.1454 30.8932 25.8308 29.409C28.714 30.5735 31.8498 30.9648 31.5305 28.9556Z" fill="#263238"/>
<path d="M21.3827 27.1516C20.544 26.4595 19.8196 25.8296 19.2906 24.498C18.9475 26.0348 20.5392 27.7863 20.5392 27.7863L21.3827 27.1516Z" fill="#263238"/>
<path d="M20.692 33.9954C20.7158 35.074 21.2019 36.0667 21.8024 36.7015C22.7126 37.656 23.9517 36.8446 24.1661 35.6181C24.3615 34.5156 23.8945 32.8262 22.7555 32.3298C21.6356 31.843 20.6634 32.7641 20.692 33.9954Z" fill="#FFC3BD"/>
<path d="M30.0666 33.8626C29.9951 34.2253 30.1238 34.5642 30.3573 34.6167C30.5908 34.6739 30.8386 34.4258 30.9149 34.0631C30.9864 33.7003 30.8577 33.3615 30.6242 33.309C30.3859 33.2517 30.1381 33.4999 30.0666 33.8626Z" fill="#263238"/>
<path d="M34.1135 34.8262C34.042 35.189 34.1707 35.5278 34.4042 35.5803C34.6377 35.6376 34.8855 35.3894 34.9618 35.0267C35.0332 34.664 34.9046 34.3251 34.6711 34.2726C34.4375 34.2201 34.1897 34.4683 34.1135 34.8262Z" fill="#263238"/>
<path d="M32.7659 34.8008C32.7659 34.8008 32.9709 36.7623 33.4903 37.8361C32.8231 38.1702 31.9844 37.6643 31.9844 37.6643L32.7659 34.8008Z" fill="#ED847E"/>
<path d="M31.2374 39.6939C29.822 39.3837 29.2216 38.3242 29.193 38.2765C29.1644 38.224 29.1834 38.1572 29.2359 38.1285C29.2883 38.0999 29.355 38.119 29.3836 38.1715C29.3884 38.1858 30.0698 39.3885 31.6806 39.546C31.7426 39.5507 31.7855 39.6032 31.7759 39.6653C31.7712 39.7226 31.7187 39.7703 31.6568 39.7607C31.5138 39.7416 31.3709 39.7226 31.2374 39.6939Z" fill="#263238"/>
<path d="M29.5335 32.4008C29.5001 32.3865 29.4715 32.3674 29.4477 32.3387C29.3715 32.2481 29.3858 32.1097 29.4763 32.0333C30.3865 31.2792 31.3444 31.5942 31.3826 31.6086C31.4922 31.6324 31.5541 31.7708 31.516 31.8854C31.4779 31.9999 31.354 32.0572 31.2444 32.019C31.2062 32.0047 30.4676 31.7804 29.7527 32.3722C29.686 32.4151 29.605 32.4294 29.5335 32.4008Z" fill="#263238"/>
<path d="M34.6243 32.487C34.6148 32.4536 34.6148 32.4154 34.6243 32.3773C34.6577 32.2627 34.7768 32.1959 34.8912 32.2293C36.0302 32.5491 36.3161 33.5131 36.3257 33.5561C36.3685 33.6611 36.2923 33.7899 36.1779 33.8233C36.0635 33.8567 35.9444 33.7899 35.911 33.6754C35.8967 33.6372 35.668 32.9022 34.7721 32.6493C34.6958 32.6254 34.6434 32.5634 34.6243 32.487Z" fill="#263238"/>
<path d="M15.8035 50.5547C14.8837 53.1701 13.9735 55.8999 13.1538 58.5678C12.7392 59.9088 12.3675 61.2499 12.0244 62.5719C11.6955 63.8939 11.4144 65.2159 11.2666 66.4233C11.2523 66.5713 11.2285 66.724 11.2237 66.8624L11.2094 67.0724C11.2047 67.1392 11.1999 67.2394 11.1951 67.206C11.1809 67.1965 11.157 67.2299 11.1856 67.3301C11.2285 67.5258 11.4287 67.9219 11.7623 68.3132C12.4294 69.115 13.4445 69.955 14.5263 70.709C16.7042 72.241 19.2299 73.606 21.6985 74.8802L20.7168 77.7914C19.2014 77.4669 17.7907 77.0565 16.3515 76.5601C14.9218 76.0638 13.5112 75.4863 12.1054 74.78C10.7091 74.045 9.30797 73.2432 7.95454 71.9594C7.28736 71.3056 6.59634 70.5325 6.08643 69.3823C5.83385 68.8144 5.65276 68.1271 5.60987 67.3969C5.59557 67.1822 5.60033 67.1058 5.59557 66.9913L5.5908 66.6572C5.58604 66.4329 5.60033 66.2277 5.6051 66.0129C5.67182 64.3282 5.91963 62.7962 6.20557 61.2833C6.4915 59.7752 6.84892 58.3148 7.23017 56.864C8.01173 53.9623 8.91719 51.1799 9.99898 48.3594L15.8035 50.5547Z" fill="#FFC3BD"/>
<path d="M14.471 43.9789C19.1318 43.9359 20.0134 47.5678 17.4781 53.3235C16.1533 56.3349 13.9325 59.208 13.9325 59.208L6.22656 55.1084C7.25593 50.5077 9.13834 44.0266 14.471 43.9789Z" fill="#407BFF"/>
<path d="M27.3268 74.4171L25.6208 73.4817C25.3444 73.329 25.0203 73.2717 24.7058 73.3146L22.6566 73.5962C21.2793 73.7394 20.2785 74.7941 19.5256 75.7104L18.6487 76.7795C18.6058 78.9367 24.0481 78.4308 24.0481 78.4308L28.8089 78.3687L28.6612 76.4884C28.5993 75.6198 28.0941 74.8418 27.3268 74.4171Z" fill="#FFC3BD"/>
<path d="M129 77.293H0V83.3397H129V77.293Z" fill="#407BFF"/>
<path opacity="0.3" d="M41.842 77.293H0V83.3397H41.842V77.293Z" fill="white"/>
<path d="M3.45733 83.3359H1.48438V149.998H3.45733V83.3359Z" fill="#407BFF"/>
<path opacity="0.7" d="M3.45733 83.3359H1.48438V149.998H3.45733V83.3359Z" fill="white"/>
<path d="M40.3597 83.3359H38.3867V149.998H40.3597V83.3359Z" fill="#407BFF"/>
<path opacity="0.7" d="M40.3597 83.3359H38.3867V149.998H40.3597V83.3359Z" fill="white"/>
<path d="M90.6136 83.3359H88.6406V149.998H90.6136V83.3359Z" fill="#407BFF"/>
<path opacity="0.7" d="M90.6136 83.3359H88.6406V149.998H90.6136V83.3359Z" fill="white"/>
<path d="M127.52 83.3359H125.547V149.998H127.52V83.3359Z" fill="#407BFF"/>
<path opacity="0.7" d="M127.52 83.3359H125.547V149.998H127.52V83.3359Z" fill="white"/>
<path d="M114.996 50.5664H79.7307C78.5345 50.5664 77.4003 51.5448 77.2002 52.7427L73.5211 75.121C73.3257 76.3189 74.1407 77.2972 75.3368 77.2972H110.602C111.798 77.2972 112.933 76.3189 113.133 75.121L116.812 52.7427C117.007 51.5448 116.192 50.5664 114.996 50.5664Z" fill="#263238"/>
<path d="M92.6248 75.832H59.4229C59.2037 75.832 59.0273 76.0134 59.0273 76.2282V76.8915C59.0273 77.1111 59.2084 77.2876 59.4229 77.2876H92.6248C92.844 77.2876 93.0204 77.1063 93.0204 76.8915V76.2282C93.0204 76.0134 92.844 75.832 92.6248 75.832Z" fill="#263238"/>
<path opacity="0.2" d="M114.993 50.5664H80.5237C79.3275 50.5664 78.1933 51.5448 77.9931 52.7427L74.3141 75.121C74.1187 76.3189 74.9336 77.2972 76.1298 77.2972H110.599C111.796 77.2972 112.93 76.3189 113.13 75.121L116.809 52.7427C117.004 51.5448 116.189 50.5664 114.993 50.5664Z" fill="white"/>
<path d="M23.7383 75.8331C23.7383 75.8331 35.0947 77.5274 40.5751 75.2891C43.139 76.5251 52.2747 77.136 55.4486 75.8331C54.4669 76.9738 52.1603 77.2935 52.1603 77.2935C52.1603 77.2935 30.5054 77.2935 28.2036 77.2935C25.9019 77.2935 24.1386 76.2817 23.7383 75.8331Z" fill="#407BFF"/>
<path opacity="0.7" d="M23.7383 75.8331C23.7383 75.8331 35.0947 77.5274 40.5751 75.2891C43.139 76.5251 52.2747 77.136 55.4486 75.8331C54.4669 76.9738 52.1603 77.2935 52.1603 77.2935C52.1603 77.2935 30.5054 77.2935 28.2036 77.2935C25.9019 77.2935 24.1386 76.2817 23.7383 75.8331Z" fill="white"/>
</svg>
