<svg width="66" height="66" viewBox="0 0 66 66" fill="none" xmlns="http://www.w3.org/2000/svg">
<circle cx="32.9375" cy="33.0801" r="31.3571" fill="#FF0000" stroke="white" stroke-width="2.09048"/>
<path d="M23.8439 46.1758V42.2383L33.0439 33.7198C33.8264 32.9626 34.4826 32.2811 35.0127 31.6753C35.5511 31.0696 35.9592 30.4764 36.2368 29.8959C36.5145 29.307 36.6533 28.6718 36.6533 27.9903C36.6533 27.2331 36.4808 26.581 36.1359 26.0342C35.7909 25.4789 35.3198 25.054 34.7224 24.7595C34.1251 24.4567 33.4478 24.3052 32.6906 24.3052C31.8997 24.3052 31.2098 24.4651 30.6209 24.7848C30.032 25.1045 29.5776 25.563 29.2579 26.1604C28.9382 26.7577 28.7784 27.4686 28.7784 28.2932H23.5915C23.5915 26.6021 23.9743 25.1339 24.7399 23.8888C25.5056 22.6436 26.5783 21.6802 27.9581 20.9988C29.3379 20.3173 30.928 19.9765 32.7284 19.9765C34.5794 19.9765 36.1905 20.3047 37.5619 20.9609C38.9417 21.6087 40.0144 22.509 40.78 23.6616C41.5457 24.8142 41.9285 26.1351 41.9285 27.6243C41.9285 28.6002 41.735 29.5636 41.3479 30.5143C40.9693 31.465 40.2921 32.5209 39.3161 33.6819C38.3402 34.8346 36.9646 36.2186 35.1894 37.8339L31.416 41.5316V41.7083H42.2692V46.1758H23.8439Z" fill="white"/>
</svg>
