<svg width="66" height="66" viewBox="0 0 66 66" fill="none" xmlns="http://www.w3.org/2000/svg">
<circle cx="33.3868" cy="33.0801" r="31.3571" fill="#FF0000" stroke="white" stroke-width="2.09048"/>
<path d="M33.8259 46.5291C31.9414 46.5291 30.2629 46.2052 28.7905 45.5574C27.3266 44.9012 26.1698 44.0009 25.32 42.8567C24.4787 41.7041 24.0454 40.3748 24.0202 38.8688H29.5225C29.5562 39.4998 29.7623 40.0551 30.1409 40.5346C30.5279 41.0058 31.0411 41.3717 31.6805 41.6326C32.32 41.8934 33.0393 42.0238 33.8386 42.0238C34.6715 42.0238 35.4077 41.8765 36.0471 41.5821C36.6865 41.2876 37.1871 40.8796 37.5489 40.3579C37.9106 39.8363 38.0915 39.2347 38.0915 38.5533C38.0915 37.8634 37.898 37.2534 37.511 36.7234C37.1324 36.1849 36.5855 35.7642 35.8704 35.4613C35.1637 35.1585 34.3223 35.007 33.3464 35.007H30.936V30.9938H33.3464C34.1709 30.9938 34.8987 30.8508 35.5297 30.5648C36.1691 30.2787 36.6655 29.8833 37.0188 29.3785C37.3722 28.8653 37.5489 28.2679 37.5489 27.5864C37.5489 26.9386 37.3932 26.3707 37.0819 25.8827C36.779 25.3863 36.35 24.9993 35.7947 24.7217C35.2478 24.444 34.6084 24.3052 33.8764 24.3052C33.1361 24.3052 32.4588 24.4398 31.8446 24.7091C31.2304 24.9699 30.7382 25.3443 30.3681 25.8322C29.9979 26.3202 29.8001 26.8923 29.7749 27.5486H24.5376C24.5628 26.0594 24.9877 24.7469 25.8122 23.6111C26.6367 22.4753 27.7473 21.5877 29.1439 20.9483C30.5489 20.3004 32.1349 19.9765 33.9017 19.9765C35.6853 19.9765 37.246 20.3004 38.5837 20.9483C39.9214 21.5961 40.9605 22.4711 41.7009 23.5732C42.4497 24.667 42.8198 25.8953 42.8114 27.2583C42.8198 28.7054 42.3697 29.9127 41.4611 30.8803C40.5609 31.8478 39.3872 32.462 37.9401 32.7228V32.9247C39.8415 33.1687 41.2886 33.8292 42.2814 34.9061C43.2826 35.9746 43.779 37.3123 43.7706 38.9192C43.779 40.3916 43.3541 41.6999 42.4959 42.8441C41.6462 43.9883 40.4725 44.8885 38.9749 45.5448C37.4774 46.201 35.761 46.5291 33.8259 46.5291Z" fill="white"/>
</svg>
