<svg width="168" height="60" viewBox="0 0 168 60" fill="none" xmlns="http://www.w3.org/2000/svg">
<rect x="0.667969" width="166.667" height="60" rx="11.1111" fill="#00001C"/>
<path d="M83.8825 32.2236C80.9104 32.2236 78.4879 34.4843 78.4879 37.598C78.4879 40.6928 80.9104 42.9724 83.8825 42.9724C86.856 42.9724 89.2784 40.6928 89.2784 37.598C89.2771 34.4843 86.8547 32.2236 83.8825 32.2236ZM83.8825 40.857C82.2537 40.857 80.8497 39.5138 80.8497 37.5993C80.8497 35.6646 82.2549 34.3415 83.8825 34.3415C85.5114 34.3415 86.9153 35.6646 86.9153 37.5993C86.9153 39.5125 85.5114 40.857 83.8825 40.857ZM72.1127 32.2236C69.1405 32.2236 66.718 34.4843 66.718 37.598C66.718 40.6928 69.1405 42.9724 72.1127 42.9724C75.0861 42.9724 77.5086 40.6928 77.5086 37.598C77.5086 34.4843 75.0861 32.2236 72.1127 32.2236ZM72.1127 40.857C70.4838 40.857 69.0798 39.5138 69.0798 37.5993C69.0798 35.6646 70.485 34.3415 72.1127 34.3415C73.7415 34.3415 75.1455 35.6646 75.1455 37.5993C75.1467 39.5125 73.7415 40.857 72.1127 40.857ZM58.1137 33.874V36.1536H63.5702C63.4072 37.4363 62.9801 38.3727 62.328 39.0235C61.5344 39.817 60.2923 40.6928 58.1137 40.6928C54.7548 40.6928 52.1289 37.9847 52.1289 34.6259C52.1289 31.267 54.7548 28.559 58.1137 28.559C59.9258 28.559 61.2489 29.2717 62.2257 30.1878L63.8343 28.5792C62.4696 27.2763 60.6587 26.2793 58.1137 26.2793C53.5126 26.2793 49.6445 30.0248 49.6445 34.6259C49.6445 39.2269 53.5126 42.9724 58.1137 42.9724C60.5968 42.9724 62.4708 42.1574 63.9354 40.6308C65.4417 39.1245 65.9105 37.0066 65.9105 35.2969C65.9105 34.7687 65.8701 34.2796 65.788 33.8727H58.1137V33.874ZM115.368 35.6444C114.921 34.4439 113.556 32.2236 110.767 32.2236C107.998 32.2236 105.697 34.4022 105.697 37.598C105.697 40.6106 107.978 42.9724 111.031 42.9724C113.494 42.9724 114.92 41.4661 115.511 40.5904L113.679 39.3684C113.068 40.2644 112.233 40.8545 111.031 40.8545C109.831 40.8545 108.975 40.3048 108.426 39.2256L115.612 36.2535L115.368 35.6444ZM108.039 37.4363C107.978 35.3588 109.648 34.3011 110.849 34.3011C111.786 34.3011 112.579 34.7699 112.845 35.4409L108.039 37.4363ZM102.197 42.6477H104.558V26.8505H102.197V42.6477ZM98.3276 33.4254H98.2467C97.7172 32.7935 96.6987 32.2236 95.4173 32.2236C92.7295 32.2236 90.2666 34.5854 90.2666 37.6195C90.2666 40.6321 92.7295 42.9737 95.4173 42.9737C96.7 42.9737 97.7172 42.4038 98.2467 41.753H98.3276V42.5264C98.3276 44.5824 97.2282 45.6818 95.4578 45.6818C94.0121 45.6818 93.1162 44.6443 92.7497 43.7686L90.6937 44.6241C91.2839 46.0482 92.8508 47.7997 95.4578 47.7997C98.2265 47.7997 100.568 46.1708 100.568 42.2003V32.5509H98.3288V33.4254H98.3276ZM95.6208 40.857C93.9919 40.857 92.6284 39.4923 92.6284 37.6195C92.6284 35.7253 93.9919 34.3415 95.6208 34.3415C97.2282 34.3415 98.4906 35.7253 98.4906 37.6195C98.4906 39.4923 97.2282 40.857 95.6208 40.857ZM126.43 26.8505H120.781V42.6477H123.137V36.6629H126.429C129.042 36.6629 131.613 34.7712 131.613 31.7573C131.613 28.7435 129.044 26.8505 126.43 26.8505ZM126.491 34.4641H123.137V29.0493H126.491C128.254 29.0493 129.255 30.5088 129.255 31.7573C129.255 32.9806 128.254 34.4641 126.491 34.4641ZM141.064 32.1958C139.357 32.1958 137.589 32.9477 136.857 34.6145L138.95 35.4877C139.397 34.6145 140.231 34.3289 141.104 34.3289C142.324 34.3289 143.563 35.0606 143.584 36.3609V36.5239C143.156 36.28 142.242 35.9148 141.124 35.9148C138.869 35.9148 136.571 37.1545 136.571 39.4708C136.571 41.5849 138.421 42.9459 140.494 42.9459C142.079 42.9459 142.953 42.2344 143.501 41.4004H143.582V42.6199H145.859V36.5631C145.861 33.7603 143.766 32.1958 141.064 32.1958ZM140.778 40.8533C140.007 40.8533 138.929 40.4666 138.929 39.5112C138.929 38.2918 140.271 37.8242 141.43 37.8242C142.465 37.8242 142.954 38.0479 143.584 38.3524C143.4 39.817 142.14 40.8533 140.778 40.8533ZM154.152 32.5408L151.449 39.3899H151.368L148.562 32.5408H146.022L150.229 42.1131L147.831 47.4383H150.29L156.774 32.5408H154.152ZM132.914 42.6477H135.271V26.8505H132.914V42.6477Z" fill="white"/>
<path fill-rule="evenodd" clip-rule="evenodd" d="M88.0194 13.334C86.8903 13.334 85.943 13.7263 85.1831 14.5082C84.4223 15.2896 84.0432 16.2476 84.0432 17.3758C84.0432 18.504 84.4223 19.4621 85.1831 20.2435C85.9431 21.0254 86.8904 21.4164 88.0194 21.4164C89.1484 21.4164 90.0957 21.0254 90.857 20.2434C91.6164 19.4621 91.9968 18.5041 91.9968 17.3758C91.9968 16.2536 91.615 15.2983 90.8519 14.5133C90.0883 13.7277 89.1423 13.334 88.0194 13.334ZM85.1982 17.3758C85.1982 16.5126 85.4732 15.8083 86.0166 15.2562C86.5624 14.7043 87.2279 14.4283 88.0194 14.4283C88.811 14.4283 89.4777 14.7032 90.022 15.2561C90.5668 15.8082 90.8418 16.5126 90.8418 17.3758C90.8418 18.2391 90.5668 18.9435 90.022 19.4955C89.4776 20.0473 88.8109 20.3234 88.0194 20.3234C87.2278 20.3234 86.5624 20.0486 86.0168 19.4956C85.4733 18.9435 85.1982 18.2391 85.1982 17.3758Z" fill="white"/>
<path d="M53.9761 13.3365C52.8611 13.3365 51.9093 13.7236 51.1294 14.4983C50.3478 15.2722 49.957 16.2332 49.957 17.377C49.957 18.5196 50.3478 19.4806 51.1294 20.2558C51.9093 21.0292 52.8611 21.4164 53.9761 21.4164C55.1375 21.4164 56.0892 21.0353 56.8187 20.27C57.4642 19.6229 57.7829 18.7583 57.7829 17.6829C57.7829 17.4948 57.7661 17.2989 57.7272 17.0953L57.7147 17.0302H53.8946V18.1017H56.6399C56.5736 18.7015 56.3699 19.1651 56.036 19.5002C55.4872 20.049 54.8017 20.3233 53.9749 20.3233C53.1973 20.3233 52.5272 20.051 51.9594 19.5041C51.3943 18.9599 51.1107 18.2526 51.1107 17.3758C51.1107 16.499 51.3943 15.7916 51.9594 15.2474C52.5272 14.7005 53.1973 14.4282 53.9749 14.4282C54.8379 14.4282 55.5052 14.7197 55.9895 15.2992L56.0458 15.3666L56.8257 14.5852L56.7785 14.529C56.4734 14.1652 56.0669 13.8765 55.5633 13.6601C55.0604 13.4448 54.5303 13.3365 53.9761 13.3365Z" fill="white"/>
<path d="M63.6086 13.5046H59.0215V21.2471H63.6086V20.154H60.1562V17.911H63.2699V16.8394H60.1562V14.5964H63.6086V13.5046Z" fill="white"/>
<path d="M69.8346 13.5046H64.464V14.5964H66.5819V21.2471H67.7167V14.5964H69.8346V13.5046Z" fill="white"/>
<path d="M74.5784 13.5046H73.4436V21.2471H74.5784V13.5046Z" fill="white"/>
<path d="M81.017 13.5046H75.6464V14.5964H77.7643V21.2471H78.8991V14.5964H81.017V13.5046Z" fill="white"/>
<path d="M94.5137 13.5046H93.2036V21.2471H94.3359L94.3359 16.4433L94.3006 15.2062L98.0666 21.2471H99.2086V13.5046H98.0738V18.0216L98.0739 18.0239L98.1091 19.259L94.5137 13.5046Z" fill="white"/>
<g filter="url(#filter0_ii_739_1077)">
<path d="M12.3103 16.8588C11.9778 17.2107 11.7812 17.7568 11.7812 18.4641V43.7327C11.7812 44.4411 11.9778 44.9861 12.3103 45.338L12.3948 45.4202L26.5498 31.2652V31.0984V30.9316L12.3948 16.7754L12.3103 16.8588Z" fill="url(#paint0_linear_739_1077)"/>
<path d="M31.2645 35.9871L26.5469 31.2672V31.1004V30.9336L31.2656 26.2148L31.3719 26.2754L36.9623 29.4517C38.5585 30.3589 38.5585 31.843 36.9623 32.7514L31.3719 35.9277L31.2645 35.9871Z" fill="url(#paint1_linear_739_1077)"/>
<g filter="url(#filter1_i_739_1077)">
<path d="M31.3771 35.9257L26.5509 31.0996L12.3125 45.3392C12.8381 45.8968 13.7076 45.9653 14.6867 45.41L31.3771 35.9257Z" fill="url(#paint2_linear_739_1077)"/>
</g>
<path d="M31.3771 26.2734L14.6867 16.7902C13.7076 16.2338 12.8381 16.3035 12.3125 16.8611L26.5521 31.1007L31.3771 26.2734Z" fill="url(#paint3_linear_739_1077)"/>
</g>
<defs>
<filter id="filter0_ii_739_1077" x="11.7812" y="16.4062" width="26.3789" height="29.3867" filterUnits="userSpaceOnUse" color-interpolation-filters="sRGB">
<feFlood flood-opacity="0" result="BackgroundImageFix"/>
<feBlend mode="normal" in="SourceGraphic" in2="BackgroundImageFix" result="shape"/>
<feColorMatrix in="SourceAlpha" type="matrix" values="0 0 0 0 0 0 0 0 0 0 0 0 0 0 0 0 0 0 127 0" result="hardAlpha"/>
<feOffset dy="-0.166667"/>
<feComposite in2="hardAlpha" operator="arithmetic" k2="-1" k3="1"/>
<feColorMatrix type="matrix" values="0 0 0 0 0 0 0 0 0 0 0 0 0 0 0 0 0 0 0.12 0"/>
<feBlend mode="normal" in2="shape" result="effect1_innerShadow_739_1077"/>
<feColorMatrix in="SourceAlpha" type="matrix" values="0 0 0 0 0 0 0 0 0 0 0 0 0 0 0 0 0 0 127 0" result="hardAlpha"/>
<feOffset dy="0.166667"/>
<feComposite in2="hardAlpha" operator="arithmetic" k2="-1" k3="1"/>
<feColorMatrix type="matrix" values="0 0 0 0 1 0 0 0 0 1 0 0 0 0 1 0 0 0 0.25 0"/>
<feBlend mode="normal" in2="effect1_innerShadow_739_1077" result="effect2_innerShadow_739_1077"/>
</filter>
<filter id="filter1_i_739_1077" x="12.3125" y="31.0996" width="19.0645" height="14.6934" filterUnits="userSpaceOnUse" color-interpolation-filters="sRGB">
<feFlood flood-opacity="0" result="BackgroundImageFix"/>
<feBlend mode="normal" in="SourceGraphic" in2="BackgroundImageFix" result="shape"/>
<feColorMatrix in="SourceAlpha" type="matrix" values="0 0 0 0 0 0 0 0 0 0 0 0 0 0 0 0 0 0 127 0" result="hardAlpha"/>
<feOffset dy="-0.166667"/>
<feComposite in2="hardAlpha" operator="arithmetic" k2="-1" k3="1"/>
<feColorMatrix type="matrix" values="0 0 0 0 0 0 0 0 0 0 0 0 0 0 0 0 0 0 0.08 0"/>
<feBlend mode="normal" in2="shape" result="effect1_innerShadow_739_1077"/>
</filter>
<linearGradient id="paint0_linear_739_1077" x1="25.2951" y1="18.1967" x2="6.12084" y2="37.371" gradientUnits="userSpaceOnUse">
<stop stop-color="#00A0FF"/>
<stop offset="0.0066" stop-color="#00A1FF"/>
<stop offset="0.2601" stop-color="#00BEFF"/>
<stop offset="0.5122" stop-color="#00D2FF"/>
<stop offset="0.7604" stop-color="#00DFFF"/>
<stop offset="1" stop-color="#00E3FF"/>
</linearGradient>
<linearGradient id="paint1_linear_739_1077" x1="39.0401" y1="31.1004" x2="11.3951" y2="31.1004" gradientUnits="userSpaceOnUse">
<stop stop-color="#FFE000"/>
<stop offset="0.4087" stop-color="#FFBD00"/>
<stop offset="0.7754" stop-color="#FFA500"/>
<stop offset="1" stop-color="#FF9C00"/>
</linearGradient>
<linearGradient id="paint2_linear_739_1077" x1="28.7562" y1="33.7205" x2="2.75348" y2="59.7232" gradientUnits="userSpaceOnUse">
<stop stop-color="#FF3A44"/>
<stop offset="1" stop-color="#C31162"/>
</linearGradient>
<linearGradient id="paint3_linear_739_1077" x1="8.7265" y1="8.4494" x2="20.3374" y2="20.0603" gradientUnits="userSpaceOnUse">
<stop stop-color="#32A071"/>
<stop offset="0.0685" stop-color="#2DA771"/>
<stop offset="0.4762" stop-color="#15CF74"/>
<stop offset="0.8009" stop-color="#06E775"/>
<stop offset="1" stop-color="#00F076"/>
</linearGradient>
</defs>
</svg>
