<svg width="120" height="120" viewBox="0 0 120 120" fill="none" xmlns="http://www.w3.org/2000/svg">
<circle cx="60" cy="60" r="60" fill="#4AA8FF"/>
<path d="M70.475 35H49.525C40.425 35 35 40.425 35 49.525V70.475C35 79.575 40.425 85 49.525 85H70.475C79.575 85 85 79.575 85 70.475V49.525C85 40.425 79.575 35 70.475 35ZM54.925 67.25L49.3 72.875C48.925 73.25 48.45 73.425 47.975 73.425C47.5 73.425 47 73.25 46.65 72.875L44.775 71C44.025 70.275 44.025 69.075 44.775 68.35C45.5 67.625 46.675 67.625 47.425 68.35L47.975 68.9L52.275 64.6C53 63.875 54.175 63.875 54.925 64.6C55.65 65.325 55.65 66.525 54.925 67.25ZM54.925 49.75L49.3 55.375C48.925 55.75 48.45 55.925 47.975 55.925C47.5 55.925 47 55.75 46.65 55.375L44.775 53.5C44.025 52.775 44.025 51.575 44.775 50.85C45.5 50.125 46.675 50.125 47.425 50.85L47.975 51.4L52.275 47.1C53 46.375 54.175 46.375 54.925 47.1C55.65 47.825 55.65 49.025 54.925 49.75ZM73.9 71.55H60.775C59.75 71.55 58.9 70.7 58.9 69.675C58.9 68.65 59.75 67.8 60.775 67.8H73.9C74.95 67.8 75.775 68.65 75.775 69.675C75.775 70.7 74.95 71.55 73.9 71.55ZM73.9 54.05H60.775C59.75 54.05 58.9 53.2 58.9 52.175C58.9 51.15 59.75 50.3 60.775 50.3H73.9C74.95 50.3 75.775 51.15 75.775 52.175C75.775 53.2 74.95 54.05 73.9 54.05Z" fill="white"/>
</svg>
