<svg width="120" height="120" viewBox="0 0 120 120" fill="none" xmlns="http://www.w3.org/2000/svg">
<circle cx="60" cy="60" r="60" fill="#28CEF2"/>
<g clip-path="url(#clip0_739_1265)">
<path d="M84.3 35.7H76.2V33H43.8V35.7H35.7C34.08 35.7 33 36.78 33 38.4V44.88C33 51.09 37.59 56.22 43.8 57.03V57.3C43.8 65.13 49.2 71.61 56.49 73.23L54.6 78.9H48.39C47.31 78.9 46.23 79.71 45.96 80.79L43.8 87H76.2L74.04 80.79C73.77 79.71 72.69 78.9 71.61 78.9H65.4L63.51 73.23C70.8 71.61 76.2 65.13 76.2 57.3V57.03C82.41 56.22 87 51.09 87 44.88V38.4C87 36.78 85.92 35.7 84.3 35.7ZM43.8 51.63C40.83 50.82 38.4 48.12 38.4 44.88V41.1H43.8V51.63ZM65.4 60L60 57.03L54.6 60L55.95 54.6L51.9 49.2H57.57L60 43.8L62.43 49.2H68.1L64.05 54.6L65.4 60ZM81.6 44.88C81.6 48.12 79.17 51.09 76.2 51.63V41.1H81.6V44.88Z" fill="white"/>
</g>
<defs>
<clipPath id="clip0_739_1265">
<rect width="54" height="54" fill="white" transform="translate(33 33)"/>
</clipPath>
</defs>
</svg>
