<svg width="36" height="36" viewBox="0 0 36 36" fill="none" xmlns="http://www.w3.org/2000/svg">
<g clip-path="url(#clip0_739_112)">
<path fill-rule="evenodd" clip-rule="evenodd" d="M36 18C36 27.9411 27.9411 36 18 36C8.05888 36 0 27.9411 0 18C0 8.05888 8.05888 0 18 0C27.9411 0 36 8.05888 36 18ZM24.9906 13.7962C25.7266 13.7084 26.4266 13.5129 27.0784 13.2237C26.5897 13.9545 25.9747 14.5925 25.2623 15.1078C25.2699 15.2638 25.2734 15.4203 25.2734 15.578C25.2734 20.3812 21.617 25.92 14.9313 25.92C12.8785 25.92 10.9683 25.3178 9.35939 24.2861C9.6439 24.3204 9.93371 24.3379 10.227 24.3379C11.9295 24.3379 13.497 23.7566 14.741 22.7814C13.1509 22.7517 11.8085 21.7009 11.3459 20.2573C11.5682 20.2991 11.7957 20.3213 12.0302 20.3213C12.3618 20.3213 12.6824 20.2776 12.9879 20.1939C11.3249 19.8598 10.0722 18.3912 10.0722 16.6299V16.584C10.5769 16.8647 11.1416 17.0205 11.7189 17.0384C10.7437 16.3867 10.1019 15.2742 10.1019 14.0133C10.1019 13.3471 10.281 12.7227 10.5941 12.1857C12.3868 14.3846 15.0651 15.8316 18.0862 15.9835C18.0245 15.717 17.9925 15.4394 17.9925 15.1549C17.9925 13.1469 19.62 11.52 21.6269 11.52C22.6724 11.52 23.6174 11.9611 24.2801 12.6674C25.0945 12.5075 25.8754 12.2091 26.5889 11.7853C26.3172 12.6337 25.7418 13.3464 24.9906 13.7962Z" fill="white"/>
</g>
<defs>
<clipPath id="clip0_739_112">
<rect width="36" height="36" fill="white"/>
</clipPath>
</defs>
</svg>
