<svg width="80" height="80" viewBox="0 0 80 80" fill="none" xmlns="http://www.w3.org/2000/svg">
<circle cx="40" cy="40" r="40" fill="#4AA8FF"/>
<path d="M23.7318 23.1897C23.3472 23.2038 23.0909 23.5924 23.2294 23.9514L24.396 27.0038L23.5972 29.9236C23.5212 30.2012 23.6679 30.4912 23.9364 30.5945L30.8364 33.2408C31.3677 33.4481 31.8329 32.8217 31.481 32.3729L28.8677 28.989L29.8679 26.6853C29.988 26.41 29.8697 26.0891 29.5998 25.9575L23.9988 23.2477C23.9166 23.207 23.8256 23.1871 23.7339 23.1897L23.7318 23.1897ZM40.0018 23.1897C39.6753 23.1961 39.4414 23.4374 39.4414 23.7479V24.8686C39.4414 25.242 39.7217 25.4295 40.0018 25.43C40.2818 25.4295 40.5621 25.2419 40.5621 24.8686V23.7479C40.5621 23.4374 40.3283 23.1958 40.0018 23.1897ZM56.0048 23.2477L50.4038 25.9575C50.1338 26.0891 50.0156 26.41 50.1356 26.6853L51.1359 28.989L48.5225 32.373C48.1707 32.8217 48.6359 33.4481 49.1671 33.2409L56.0671 30.5946C56.3357 30.4912 56.4823 30.2012 56.4064 29.9237L55.6075 27.0038L56.7741 23.9514C56.9129 23.5916 56.6551 23.2023 56.2696 23.1897C56.1779 23.1871 56.087 23.207 56.0048 23.2477ZM36.5698 25.0349L37.3643 25.8251C37.9172 26.3392 38.67 25.5645 38.1589 25.0349L37.3643 24.2403C37.2589 24.1319 37.1228 24.0773 36.9715 24.0773C36.4649 24.0731 36.2202 24.688 36.5698 25.0349ZM42.6392 24.2404L41.8447 25.0349C41.3335 25.5646 42.0864 26.3392 42.6392 25.8251L43.4337 25.0349C43.7834 24.6881 43.5386 24.0734 43.0321 24.0773C42.8809 24.0773 42.7447 24.1319 42.6392 24.2404ZM32.3215 27.5039L32.4867 27.6702L32.3215 27.8354C31.7486 28.3639 32.5887 29.2006 33.1149 28.6255L33.279 28.4614L33.4421 28.6255C33.9687 29.1768 34.785 28.365 34.2366 27.8354L34.0704 27.6702L34.2366 27.5039C34.6004 27.1463 34.3361 26.5281 33.8262 26.5441C33.6811 26.5484 33.5433 26.6096 33.4421 26.7138L33.279 26.8779L33.1149 26.7138C33.0101 26.6047 32.8661 26.5429 32.6859 26.543C32.1824 26.5913 31.9793 27.1718 32.3215 27.5039ZM46.8854 26.7137L46.7212 26.8778L46.5582 26.7137C46.4569 26.6095 46.3192 26.5487 46.174 26.5441C45.6642 26.5271 45.3998 27.1463 45.7636 27.5039L45.9301 27.6701L45.7636 27.8353C45.2146 28.365 46.0316 29.1774 46.5582 28.6255L46.7212 28.4614L46.8854 28.6255C47.4115 29.2006 48.2517 28.3639 47.6788 27.8353L47.5136 27.6701L47.6788 27.5039C48.021 27.1717 47.8179 26.5912 47.3144 26.543C47.1341 26.5428 46.9902 26.6048 46.8854 26.7137ZM39.0114 28.9069L38.2191 29.7004C37.8749 30.0446 37.6631 30.4713 37.5909 30.9207C37.1651 30.97 36.7604 31.159 36.4363 31.4832C36.049 31.8706 35.855 32.3794 35.8618 32.8906C35.3498 32.8843 34.842 33.0763 34.4544 33.4641C34.0673 33.8512 33.8734 34.3581 33.8799 34.8693C33.3687 34.863 32.8618 35.0568 32.4747 35.4439C32.0868 35.8318 31.895 36.3225 31.8969 36.8491C31.3796 36.848 30.8735 37.0463 30.4928 37.427C29.9111 38.0087 29.7687 38.8736 30.0758 39.5895C29.8121 40.1686 29.7282 40.793 29.5834 41.3855C29.4633 41.8768 29.3136 42.3367 29.0592 42.736C28.9584 42.6559 28.831 42.6087 28.7024 42.6102C28.5514 42.6144 28.4059 42.678 28.303 42.7885L23.7516 47.2844L33.2775 56.8103L37.4464 51.8678C37.6387 51.6545 37.6449 51.3353 37.4422 51.1104C38.1144 50.5229 39.0974 49.7946 40.2219 48.9566C40.7858 49.2015 41.4053 49.2912 41.9794 49.4316C42.4702 49.5515 42.9298 49.7008 43.3288 49.9547C43.1511 50.1679 43.1666 50.4906 43.3605 50.6924L48.4068 55.6896L56.812 46.1637L52.0761 41.9732C51.966 41.8687 51.8183 41.8135 51.6668 41.8198C51.5359 41.8241 51.4086 41.88 51.3111 41.9676C50.8757 41.4631 50.4079 40.8153 49.8841 40.0765C50.251 39.3164 50.1141 38.4274 49.5109 37.8242C49.2101 37.5234 48.8422 37.3379 48.4494 37.2737C48.5982 36.6345 48.4225 35.9411 47.9274 35.446C47.6274 35.146 47.2575 34.9602 46.8647 34.8966C47.0138 34.256 46.838 33.5632 46.3427 33.0679C45.962 32.6871 45.4515 32.49 44.9375 32.4911C44.9333 31.9803 44.749 31.4729 44.3619 31.0859C43.9812 30.7052 43.486 30.5113 42.983 30.5113C42.936 30.5113 42.8832 30.5102 42.8364 30.5134C42.8449 29.9266 42.6268 29.3516 42.182 28.9068C41.7465 28.4712 41.1722 28.2491 40.5972 28.2491C40.0223 28.2492 39.4469 28.4714 39.0114 28.9069ZM41.3897 29.7004C41.8176 30.1283 41.8348 30.8313 41.3961 31.2775C41.1294 31.5438 40.8634 31.8107 40.5972 32.0775C40.1513 32.5233 39.4434 32.5094 39.0114 32.0775C38.5749 31.6409 38.5656 30.9386 39.0114 30.4928L39.8049 29.7004C40.0278 29.4775 40.3167 29.3688 40.5885 29.3688C40.8735 29.3688 41.1668 29.4774 41.3897 29.7004ZM43.5675 31.8805C43.8943 32.2073 43.9036 32.7318 43.5675 33.0679L41.7848 34.8507C41.2326 35.3803 42.0505 36.1971 42.5793 35.6442L44.362 33.8614C44.6981 33.5252 45.2265 33.5384 45.5494 33.8614C45.8724 34.1843 45.8855 34.7127 45.5494 35.0488C44.8823 35.7127 44.399 36.2012 43.7667 36.8316C43.2154 37.3582 44.0272 38.1746 44.5568 37.6262L45.9664 36.2198C46.2947 35.9102 46.8078 35.9111 47.133 36.2368C47.4582 36.5619 47.4691 37.0914 47.133 37.4275C46.4751 38.0853 45.9733 38.589 45.3503 39.2103C44.8019 39.74 45.6182 40.5518 46.1448 40.0005C46.6066 39.5386 47.0684 39.0768 47.5303 38.6149C47.8664 38.2788 48.3947 38.2919 48.7176 38.6149C49.0472 38.9445 49.0537 39.4663 48.7176 39.8024L44.953 43.5661C41.9211 46.5981 38.5151 48.6412 36.6478 50.3164L29.8671 43.5354C30.2123 43.1192 30.5365 42.2817 30.6715 41.6508C30.7632 41.2758 30.8326 40.9198 30.91 40.6166L31.2876 40.9931C32.0501 41.7534 33.2972 41.7545 34.0585 40.9931C34.3598 40.6918 34.5429 40.3269 34.6057 39.9326C35.2467 40.083 35.9421 39.904 36.4377 39.4084C36.8248 39.0213 37.0173 38.514 37.0101 38.0021C37.522 38.0084 38.0315 37.8146 38.4185 37.4275C38.8053 37.0407 39.0011 36.5306 38.9942 36.019C39.5064 36.0253 40.012 35.8339 40.3993 35.4466C40.9816 34.8643 41.1235 34.0048 40.8152 33.2873C40.9711 33.2096 41.098 33.1245 41.2354 33.0082C41.3636 32.9159 41.9964 32.2651 42.3801 31.881C42.5483 31.7131 42.7616 31.6293 42.9744 31.629C43.1871 31.6288 43.3995 31.7124 43.5675 31.8805ZM38.2193 32.8709C38.6132 33.2648 39.1222 33.4844 39.6562 33.5232C39.9266 33.8293 39.9274 34.329 39.6048 34.6515C39.2841 34.9722 38.7546 34.9877 38.4185 34.6515C38.0247 34.2603 37.5868 33.8228 37.2223 33.4597C36.8913 33.1235 36.9098 32.5903 37.2266 32.2734C37.3464 32.1535 37.5194 32.0622 37.6918 32.0381C37.7994 32.3411 37.9781 32.6296 38.2193 32.8709ZM36.4355 34.2564C36.832 34.6527 37.2284 35.049 37.6251 35.4472C37.9584 35.7845 37.944 36.3169 37.6262 36.6346C37.3009 36.9599 36.7717 36.9685 36.4356 36.6325L35.2482 35.4439C34.9121 35.1078 34.923 34.5817 35.2482 34.2565C35.4163 34.0883 35.6307 34.0091 35.8435 34.0091C36.0563 34.0091 36.2675 34.0883 36.4355 34.2564ZM34.4547 36.2373L35.6432 37.4248C35.9793 37.7609 35.9684 38.2925 35.6453 38.6155C35.3223 38.9385 34.7886 38.9516 34.4525 38.6155C34.0573 38.2172 33.6632 37.8235 33.2651 37.427C32.929 37.0909 32.9432 36.5614 33.2672 36.2373C33.4352 36.0692 33.6464 35.9911 33.8593 35.9911C34.0722 35.9911 34.2866 36.0692 34.4547 36.2373ZM31.8786 37.972C32.0913 37.972 32.3069 38.0491 32.475 38.2171L33.264 39.0117C33.6001 39.3478 33.5968 39.8663 33.264 40.1991C32.9389 40.5243 32.4138 40.5352 32.0777 40.1991L31.2876 39.409C30.9515 39.0728 30.9515 38.5532 31.2876 38.2171C31.4555 38.049 31.6658 37.972 31.8786 37.972ZM49.1422 40.9652C49.6153 41.6313 50.0273 42.2084 50.519 42.7568L44.13 49.146C43.5233 48.7029 42.8482 48.4914 42.2444 48.3438C41.9117 48.2624 41.5962 48.1997 41.3186 48.1314C42.7569 47.0354 44.331 45.7767 45.7475 44.3601L49.1422 40.9652Z" fill="white"/>
</svg>
