<svg width="36" height="36" viewBox="0 0 36 36" fill="none" xmlns="http://www.w3.org/2000/svg">
<path fill-rule="evenodd" clip-rule="evenodd" d="M18 36C27.9411 36 36 27.9411 36 18C36 8.05887 27.9411 0 18 0C8.05887 0 0 8.05887 0 18C0 27.9411 8.05887 36 18 36ZM25.3283 11.6607C26.1315 11.877 26.7648 12.5102 26.9808 13.3135C27.3825 14.7806 27.3671 17.8387 27.3671 17.8387C27.3671 17.8387 27.3671 20.8812 26.9811 22.3485C26.7648 23.1516 26.1316 23.7848 25.3283 24.001C23.8611 24.3873 17.9922 24.3873 17.9922 24.3873C17.9922 24.3873 12.1385 24.3873 10.656 23.9857C9.85269 23.7694 9.2196 23.1362 9.00331 22.333C8.61719 20.8812 8.61719 17.8233 8.61719 17.8233C8.61719 17.8233 8.61719 14.7806 9.00331 13.3135C9.21938 12.5103 9.86814 11.8616 10.6558 11.6455C12.1231 11.2593 17.992 11.2593 17.992 11.2593C17.992 11.2593 23.8611 11.2593 25.3283 11.6607ZM21.0038 17.8233L16.1234 15.0124V20.6342L21.0038 17.8233Z" fill="white"/>
</svg>
